{"glyphs":{"0":{"ha":694,"x_min":54,"x_max":639,"o":"m 54 444 q 106 760 54 648 q 347 925 178 925 q 421 915 383 925 q 506 868 458 905 q 583 770 554 831 q 639 444 639 652 q 587 131 639 241 q 346 -31 512 -31 q 220 1 283 -31 q 117 110 157 33 q 54 444 54 224 m 170 461 q 184 168 170 252 q 248 39 201 78 q 346 0 294 0 q 448 42 401 0 q 509 174 494 83 q 524 461 524 262 q 510 732 524 654 q 443 858 492 822 q 346 895 395 895 q 308 889 328 895 q 261 868 289 884 q 212 814 233 852 q 180 717 191 775 q 170 461 170 642 z "},"1":{"ha":694,"x_min":123,"x_max":582,"o":"m 123 793 l 123 836 q 376 925 290 836 q 404 920 400 925 q 408 889 408 914 l 408 110 q 429 56 408 68 q 538 43 449 43 l 582 43 l 582 0 q 357 4 533 4 q 132 0 180 4 l 132 43 l 176 43 q 285 55 264 43 q 306 110 306 68 l 306 829 q 123 793 233 793 z "},"2":{"ha":694,"x_min":69,"x_max":624,"o":"m 69 0 q 72 33 69 25 q 85 52 74 40 l 351 349 q 497 656 497 513 q 449 815 497 749 q 311 882 400 882 q 199 844 250 882 q 123 741 147 807 q 142 742 127 742 q 196 720 176 742 q 215 669 215 699 q 191 614 215 632 q 143 596 167 596 q 121 598 134 596 q 89 620 109 600 q 69 673 69 639 q 143 848 69 770 q 329 925 216 925 q 540 849 456 925 q 624 656 624 774 q 611 577 624 614 q 582 510 599 539 q 521 434 566 481 q 440 354 476 387 q 323 250 404 321 l 176 107 l 427 107 q 558 118 549 107 q 589 241 572 138 l 624 241 l 585 0 l 69 0 z "},"3":{"ha":694,"x_min":58,"x_max":635,"o":"m 58 187 q 82 248 58 229 q 136 268 106 268 q 191 247 168 268 q 214 191 214 227 q 187 130 214 152 q 122 114 160 109 q 217 33 155 58 q 335 8 278 8 q 443 60 395 8 q 492 237 492 111 q 450 406 492 345 q 326 468 408 468 l 265 468 q 238 470 244 468 q 232 484 232 472 q 253 500 232 497 q 307 504 274 500 q 431 576 388 507 q 469 734 469 642 q 429 855 469 819 q 336 890 389 890 q 234 870 288 890 q 151 804 180 850 q 237 734 237 804 q 218 684 237 704 q 167 664 199 664 q 116 683 136 664 q 96 736 96 703 q 166 870 96 815 q 342 925 237 925 q 521 871 445 925 q 597 733 597 817 q 543 584 597 651 q 403 489 489 517 q 572 396 509 468 q 635 237 635 325 q 549 49 635 129 q 339 -31 464 -31 q 141 32 224 -31 q 58 187 58 94 z "},"4":{"ha":694,"x_min":39,"x_max":654,"o":"m 39 229 l 39 272 l 465 924 q 493 940 476 941 q 512 934 509 940 q 515 904 515 928 l 515 272 l 654 272 l 654 229 l 515 229 l 515 109 q 532 56 515 68 q 621 43 549 43 l 650 43 l 650 0 q 461 4 593 4 q 273 0 330 4 l 273 43 l 302 43 q 391 55 374 43 q 408 109 408 68 l 408 229 l 39 229 m 78 272 l 416 272 l 416 790 l 78 272 z "},"5":{"ha":694,"x_min":69,"x_max":624,"o":"m 69 224 q 92 281 69 265 q 138 297 114 297 q 188 277 170 297 q 207 229 207 257 q 188 181 207 201 q 138 161 170 161 q 114 164 122 161 q 188 54 132 100 q 318 8 244 8 q 467 98 411 8 q 500 289 500 157 q 475 464 500 406 q 357 553 436 553 q 178 456 244 553 q 160 443 170 444 q 143 451 146 443 q 140 479 140 458 l 140 890 q 154 924 140 924 q 171 920 159 924 q 355 880 258 881 q 545 921 455 880 q 555 925 551 925 q 570 909 569 925 q 558 888 570 904 q 524 851 547 872 q 469 811 500 831 q 394 778 439 791 q 301 765 350 765 q 183 783 243 765 l 183 513 q 359 583 255 583 q 547 494 471 583 q 624 279 624 404 q 533 59 624 149 q 321 -31 443 -31 q 139 49 210 -31 q 69 224 69 128 z "},"6":{"ha":694,"x_min":58,"x_max":635,"o":"m 58 439 q 170 791 58 657 q 424 925 281 925 q 554 883 507 925 q 600 775 600 840 q 579 724 600 739 q 536 708 558 708 q 492 725 511 708 q 472 772 472 742 q 549 835 472 835 q 427 890 513 890 q 373 883 400 890 q 311 849 346 875 q 248 783 275 823 q 202 665 221 742 q 183 489 183 589 l 183 456 q 357 593 240 593 q 554 504 473 593 q 635 283 635 415 q 551 59 635 149 q 349 -31 467 -31 q 248 -8 296 -31 q 156 64 200 14 q 85 210 111 114 q 58 439 58 307 m 186 314 q 211 113 186 178 q 224 87 215 102 q 249 53 233 72 q 292 21 265 33 q 349 8 318 8 q 486 98 441 8 q 510 285 510 149 q 485 475 510 424 q 355 561 442 561 q 257 521 297 561 q 201 427 216 481 q 186 314 186 374 z "},"7":{"ha":694,"x_min":78,"x_max":673,"o":"m 78 653 l 123 939 l 158 939 q 169 914 162 922 q 216 901 176 907 q 336 895 256 895 l 673 895 q 661 846 673 863 l 473 582 q 387 345 414 498 q 372 117 372 241 l 372 46 q 308 -31 372 -31 q 244 46 244 -31 q 415 568 244 311 q 501 689 433 595 q 571 787 568 783 l 283 787 q 147 779 157 787 q 113 653 134 767 l 78 653 z "},"8":{"ha":694,"x_min":58,"x_max":635,"o":"m 58 210 q 258 465 58 365 q 157 541 172 524 q 96 693 96 608 q 169 858 96 790 q 347 925 243 925 q 522 867 447 925 q 597 718 597 810 q 429 503 597 589 q 567 404 541 433 q 635 233 635 329 q 549 46 635 122 q 346 -31 464 -31 q 144 37 231 -31 q 58 210 58 104 m 127 210 q 192 66 127 123 q 347 8 257 8 q 500 58 435 8 q 566 183 566 109 q 556 237 566 212 q 527 282 546 262 q 495 312 507 302 q 461 336 484 321 l 290 444 q 127 210 127 354 m 157 747 q 227 635 157 681 l 399 524 q 536 718 536 604 q 480 841 536 792 q 346 890 424 890 q 213 850 269 890 q 157 747 157 810 z "},"9":{"ha":694,"x_min":58,"x_max":635,"o":"m 58 612 q 80 737 58 686 q 147 838 102 787 q 351 925 231 925 q 449 903 403 925 q 538 832 494 882 q 608 687 582 783 q 635 457 635 590 q 531 106 635 242 q 286 -31 427 -31 q 145 10 197 -31 q 93 119 93 50 q 113 171 93 155 q 157 186 134 186 q 201 169 182 186 q 221 122 221 153 q 205 78 221 97 q 149 58 189 58 q 285 8 189 8 q 354 24 319 8 q 426 79 389 40 q 487 200 464 118 q 510 397 510 282 l 510 441 q 336 302 454 302 q 139 392 220 302 q 58 612 58 481 m 183 611 q 208 422 183 473 q 338 335 251 335 q 465 411 422 335 q 507 585 507 486 q 485 781 507 721 q 352 890 444 890 q 212 803 260 890 q 183 611 183 751 z "},"\u0000":{"ha":1055,"x_min":14,"x_max":1042,"o":"m 14 14 l 14 1063 l 1042 1063 l 1042 14 l 14 14 m 97 155 l 481 539 l 97 921 l 97 155 m 146 97 l 909 97 l 528 481 l 146 97 m 146 979 l 528 596 l 909 979 l 146 979 m 575 539 l 958 155 l 958 921 l 575 539 z "},"\r":{"ha":462,"x_min":0,"x_max":0,"o":""}," ":{"ha":462,"x_min":0,"x_max":0,"o":""},"!":{"ha":386,"x_min":118,"x_max":265,"o":"m 118 74 q 140 126 118 106 q 192 147 163 147 q 242 126 221 147 q 264 74 264 106 q 242 22 264 43 q 192 1 220 1 q 139 23 160 1 q 118 74 118 45 m 118 922 q 140 975 118 956 q 192 994 163 994 q 243 975 221 994 q 265 922 265 956 q 264 915 265 920 q 264 907 264 909 l 211 293 q 191 261 208 261 q 172 298 175 261 l 119 903 q 119 912 119 905 q 118 922 118 920 z "},"\"":{"ha":694,"x_min":165,"x_max":526,"o":"m 165 922 q 186 971 165 957 q 229 986 207 986 q 274 971 253 986 q 294 922 294 957 q 282 809 294 916 q 258 594 271 703 q 245 482 245 486 l 214 482 q 197 633 210 525 q 175 829 184 742 q 165 922 165 916 m 399 921 q 417 969 399 953 q 463 986 436 986 q 506 971 485 986 q 526 922 526 957 q 517 829 526 916 q 495 635 507 743 q 478 482 482 526 l 447 482 q 421 706 444 503 q 399 921 399 909 z "},"#":{"ha":1156,"x_min":79,"x_max":1076,"o":"m 79 212 q 115 228 79 228 l 363 228 l 428 467 l 111 467 q 79 482 79 467 q 121 498 79 499 l 437 498 l 550 909 q 553 922 550 911 q 557 937 555 933 q 563 948 559 940 q 570 958 566 956 q 578 961 574 961 q 590 945 590 961 q 582 903 590 937 l 471 498 l 770 498 l 882 909 q 885 922 883 912 q 889 937 888 932 q 893 948 890 942 q 900 958 896 954 q 908 961 904 961 q 922 945 922 961 q 913 903 922 942 l 802 498 l 1042 498 q 1076 482 1076 498 q 1040 467 1075 467 l 791 467 l 728 228 l 1043 228 q 1076 212 1076 228 q 1043 196 1076 195 l 718 196 l 604 -215 q 602 -228 604 -218 q 597 -242 599 -237 q 592 -254 596 -248 q 585 -264 589 -261 q 578 -267 582 -267 q 566 -250 566 -267 q 574 -208 566 -242 l 685 196 l 386 196 l 273 -215 q 271 -228 273 -218 q 267 -242 268 -237 q 262 -254 265 -248 q 255 -264 258 -261 q 248 -267 252 -267 q 233 -250 234 -267 q 243 -208 233 -248 l 354 196 l 114 196 q 79 212 79 195 m 396 228 l 694 228 l 760 467 l 461 467 l 396 228 z "},"$":{"ha":694,"x_min":77,"x_max":616,"o":"m 77 245 q 97 300 77 283 q 140 317 117 317 q 185 299 165 317 q 204 254 204 282 q 187 209 204 228 q 142 191 170 191 q 118 193 135 191 q 325 28 157 43 l 325 443 q 309 447 323 443 q 287 452 294 450 q 262 460 279 454 q 233 471 244 465 q 203 487 221 476 q 172 508 186 497 q 143 536 158 519 q 117 572 129 553 q 77 713 77 636 q 145 891 77 816 q 325 979 214 966 l 325 1042 l 368 1042 l 368 979 q 474 956 428 975 q 546 910 519 936 q 588 850 572 884 q 610 789 604 817 q 615 736 615 762 q 596 682 615 697 q 553 667 576 667 q 508 684 526 667 q 489 729 489 701 q 506 774 489 755 q 551 793 524 793 q 574 790 559 793 q 368 936 532 921 l 368 559 q 384 556 370 559 q 404 551 397 553 q 427 544 411 549 q 453 533 443 539 q 480 520 464 528 q 508 502 496 513 q 535 477 521 490 q 561 447 549 464 q 583 410 574 429 q 616 271 616 345 q 546 78 616 161 q 368 -14 476 -4 l 368 -77 l 325 -77 l 325 -14 q 197 22 250 -8 q 120 94 144 52 q 86 173 96 136 q 77 245 77 210 m 149 754 q 184 651 149 694 q 265 587 220 607 q 300 576 276 582 q 325 571 323 571 l 325 935 q 198 875 248 926 q 149 754 149 823 m 368 29 q 497 98 450 40 q 545 229 545 157 q 511 342 545 292 q 427 414 478 392 q 368 432 418 418 l 368 29 z "},"%":{"ha":1156,"x_min":78,"x_max":1078,"o":"m 78 762 q 139 962 78 882 q 282 1042 200 1042 q 382 997 332 1042 q 642 890 494 890 q 905 1022 808 890 q 935 1042 922 1042 q 954 1033 945 1042 q 962 1014 962 1025 q 951 989 962 1006 l 249 -57 q 221 -78 233 -78 q 202 -70 210 -78 q 193 -50 193 -61 q 205 -22 193 -41 l 829 907 l 828 908 q 643 860 756 859 q 433 918 536 860 q 463 761 463 846 q 410 563 463 644 q 282 482 358 482 q 139 561 200 482 q 78 762 78 640 m 174 876 q 169 851 174 876 q 164 761 164 827 q 174 647 164 696 q 197 574 183 599 q 230 534 211 549 q 260 516 249 519 q 283 513 272 513 q 384 584 340 513 q 428 762 428 654 q 384 940 428 868 q 283 1011 340 1011 q 259 1008 271 1011 q 229 990 248 1004 q 197 950 211 975 q 174 876 183 925 m 693 203 q 754 402 693 322 q 897 482 815 482 q 1025 401 972 482 q 1078 201 1078 319 q 1026 3 1078 85 q 897 -78 974 -78 q 754 1 815 -78 q 693 203 693 81 m 789 316 q 784 291 789 316 q 779 201 779 267 q 789 87 779 136 q 813 14 799 39 q 845 -25 827 -11 q 876 -44 864 -40 q 899 -47 888 -47 q 999 23 956 -47 q 1043 203 1043 94 q 999 380 1043 309 q 899 452 956 452 q 874 448 886 452 q 845 430 863 444 q 813 390 827 415 q 789 316 799 366 z "},"&":{"ha":1079,"x_min":58,"x_max":1010,"o":"m 58 178 q 80 263 58 229 q 157 354 102 297 l 283 489 q 227 771 227 633 q 285 934 227 874 q 415 994 343 994 q 475 976 450 994 q 513 928 501 957 q 531 871 525 899 q 536 815 536 843 q 506 718 536 772 q 446 627 475 663 q 367 534 418 591 q 482 320 406 433 q 597 164 558 208 q 796 467 686 274 q 804 494 804 492 q 779 538 804 521 q 705 555 753 555 l 705 599 q 875 595 761 595 q 1010 599 933 595 l 1010 555 q 933 547 964 555 q 879 517 903 539 q 842 476 856 494 q 803 414 828 457 q 619 136 685 211 q 811 12 724 13 q 915 53 867 12 q 966 168 964 93 l 1002 168 q 943 25 1000 81 q 806 -31 886 -31 q 561 75 682 -31 q 310 -31 443 -31 q 132 29 205 -31 q 58 178 58 89 m 174 222 q 185 133 174 178 q 233 51 197 89 q 321 12 268 12 q 534 102 435 12 q 407 264 480 156 q 296 457 343 355 q 201 346 229 393 q 174 222 174 299 m 314 803 q 355 568 314 692 q 501 817 501 726 q 500 834 501 823 q 496 869 500 844 q 484 913 492 895 q 459 948 476 932 q 418 964 441 964 q 345 924 376 964 q 314 803 314 884 z "},"'":{"ha":386,"x_min":127,"x_max":256,"o":"m 127 922 q 149 971 127 957 q 192 986 170 986 q 238 969 220 986 q 256 922 256 953 q 254 901 256 909 l 208 482 l 176 482 l 129 901 q 127 922 127 909 z "},"(":{"ha":538,"x_min":138,"x_max":460,"o":"m 138 347 q 225 771 138 582 q 315 917 262 850 q 401 1013 367 983 q 446 1042 436 1042 q 460 1028 459 1042 q 441 1004 460 1021 q 218 347 218 777 q 436 -302 218 -83 q 460 -334 460 -326 q 446 -347 460 -347 q 403 -319 436 -347 q 318 -228 370 -292 q 229 -86 267 -164 q 138 347 138 103 z "},")":{"ha":538,"x_min":79,"x_max":401,"o":"m 79 -334 q 97 -310 79 -327 q 321 347 321 -82 q 106 996 321 778 q 79 1028 79 1021 q 93 1042 79 1042 q 136 1014 102 1042 q 221 922 170 986 q 310 781 272 859 q 401 347 401 591 q 314 -77 401 113 q 224 -222 277 -156 q 138 -318 172 -289 q 93 -347 103 -347 q 79 -334 79 -347 z "},"*":{"ha":694,"x_min":90,"x_max":603,"o":"m 90 612 q 122 652 90 636 l 315 743 l 119 835 q 90 872 90 848 q 101 898 90 886 q 127 911 113 911 q 158 896 138 911 l 330 771 q 310 1007 309 1000 q 320 1031 310 1021 q 347 1042 330 1042 q 372 1032 361 1042 q 383 1007 383 1022 l 363 771 l 517 885 q 566 911 553 911 q 592 899 581 911 q 603 872 603 886 q 571 833 603 848 l 378 742 l 574 650 q 603 612 603 636 q 592 586 603 599 q 566 574 581 574 q 543 582 557 574 q 511 605 541 583 q 437 660 482 627 q 363 714 392 693 q 383 478 384 485 q 373 454 383 465 q 346 443 363 443 q 321 453 332 443 q 310 478 310 463 l 330 714 l 136 574 q 104 584 115 574 q 92 601 93 595 q 90 612 90 607 z "},"+":{"ha":1080,"x_min":79,"x_max":999,"o":"m 111 330 q 79 347 79 330 q 113 364 79 364 q 124 363 117 364 q 132 363 131 363 l 524 363 l 524 755 q 523 763 524 757 q 522 774 522 770 q 539 807 522 807 q 555 774 555 807 l 555 363 l 947 363 q 956 363 949 363 q 966 364 962 364 q 999 347 998 364 q 965 330 999 330 q 955 331 961 330 q 947 332 949 332 l 555 332 l 555 -81 q 539 -113 555 -113 q 522 -79 522 -113 q 523 -69 522 -75 q 524 -61 524 -62 l 524 332 l 132 332 q 123 331 131 332 q 111 330 115 330 z "},",":{"ha":385,"x_min":119,"x_max":282,"o":"m 139 22 q 129 34 139 22 q 119 74 119 45 q 139 125 119 103 q 193 147 158 147 q 258 107 235 147 q 282 1 282 68 q 253 -137 282 -71 q 195 -236 224 -204 q 155 -268 167 -268 q 142 -253 142 -268 q 151 -237 142 -248 q 252 1 251 -130 q 249 22 252 22 l 245 20 q 193 0 222 0 q 139 22 159 0 z "},"-":{"ha":462,"x_min":14,"x_max":383,"o":"m 14 258 l 14 340 l 383 340 l 383 258 l 14 258 z "},".":{"ha":386,"x_min":118,"x_max":264,"o":"m 139 22 q 129 34 139 22 q 118 74 118 45 q 139 124 118 103 q 192 146 160 146 q 243 126 222 146 q 264 74 264 106 q 242 21 264 41 q 192 0 220 0 q 139 22 160 0 z "},"/":{"ha":694,"x_min":79,"x_max":614,"o":"m 79 -328 q 85 -306 79 -321 l 575 1004 q 578 1013 575 1006 q 584 1026 582 1021 q 590 1035 586 1031 q 600 1039 595 1039 q 614 1022 614 1039 q 610 1004 614 1021 l 118 -307 q 105 -338 110 -331 q 92 -345 100 -345 q 79 -328 79 -345 z "},":":{"ha":385,"x_min":119,"x_max":267,"o":"m 141 21 q 130 32 141 21 q 119 73 119 43 q 141 125 119 104 q 193 147 163 147 q 245 125 224 147 q 267 73 267 104 q 245 21 267 43 q 193 0 224 0 q 141 21 163 0 m 141 473 q 130 484 141 473 q 119 525 119 494 q 141 577 119 555 q 193 599 163 599 q 245 577 224 599 q 267 525 267 555 q 245 473 267 494 q 193 452 224 452 q 141 473 163 452 z "},";":{"ha":386,"x_min":118,"x_max":282,"o":"m 139 474 q 129 485 139 474 q 118 526 118 496 q 139 576 118 555 q 192 597 160 597 q 243 577 222 597 q 264 525 264 557 q 242 472 264 493 q 192 452 220 452 q 139 474 160 452 m 139 22 q 129 34 139 22 q 119 74 119 45 q 139 125 119 103 q 193 147 158 147 q 258 107 235 147 q 282 1 282 68 q 253 -137 282 -71 q 195 -236 224 -204 q 155 -268 167 -268 q 142 -253 142 -268 q 151 -237 142 -248 q 252 1 251 -130 q 249 22 252 22 l 245 20 q 193 0 222 0 q 139 22 159 0 z "},"<":{"ha":1080,"x_min":118,"x_max":960,"o":"m 118 347 q 140 370 118 358 l 911 721 q 946 734 939 734 q 960 721 960 734 q 928 694 960 710 l 250 383 q 170 347 209 363 q 250 311 208 330 l 928 0 q 960 -26 960 -14 q 946 -40 960 -40 q 911 -26 939 -40 l 140 325 q 118 347 119 334 z "},"=":{"ha":1080,"x_min":79,"x_max":999,"o":"m 79 211 q 107 228 81 228 l 958 228 q 999 212 998 228 q 961 196 999 195 l 117 196 q 79 211 79 195 m 79 482 q 109 498 79 499 l 957 498 q 999 482 998 498 q 964 467 999 467 l 107 467 q 79 482 79 467 z "},">":{"ha":1080,"x_min":118,"x_max":961,"o":"m 118 -26 q 124 -14 118 -18 q 151 0 131 -9 l 829 311 q 909 347 882 336 q 829 383 882 358 l 151 694 q 142 699 149 696 q 133 703 136 701 q 125 708 129 705 q 120 714 122 711 q 118 721 118 717 q 134 734 118 734 q 168 721 140 734 l 939 370 q 944 368 940 370 q 950 363 947 366 q 956 359 953 361 q 960 354 958 357 q 961 347 961 351 q 921 317 960 335 l 168 -26 q 134 -40 140 -40 q 118 -26 118 -40 z "},"?":{"ha":655,"x_min":78,"x_max":576,"o":"m 78 794 q 142 923 78 866 q 314 979 207 979 q 515 922 454 979 q 576 791 576 865 q 510 656 576 705 q 326 346 327 519 l 326 297 q 326 275 326 281 q 321 264 325 269 q 309 260 317 260 q 295 266 298 260 q 292 293 292 272 l 292 355 q 321 514 292 429 q 414 668 350 599 q 437 695 429 684 q 453 734 446 707 q 461 800 461 761 q 460 838 461 824 q 451 875 460 851 q 428 912 443 899 q 383 938 414 926 q 310 949 353 949 q 127 854 184 949 q 205 791 205 854 q 188 746 205 764 q 142 728 171 728 q 97 744 115 728 q 78 794 78 761 m 256 21 q 245 32 256 21 q 235 74 235 43 q 256 126 235 104 q 309 147 278 147 q 360 126 339 147 q 382 74 382 104 q 360 21 382 43 q 309 0 339 0 q 256 21 278 0 z "},"@":{"ha":1079,"x_min":78,"x_max":1002,"o":"m 78 482 q 213 834 78 689 q 541 979 349 979 q 707 944 625 979 q 855 847 789 909 q 961 686 921 785 q 1002 469 1002 587 q 996 360 1002 407 q 976 270 990 314 q 933 201 962 225 q 860 178 904 178 q 772 202 814 178 q 721 277 730 227 q 538 178 650 178 q 345 266 428 178 q 262 482 262 354 q 345 698 262 610 q 538 786 428 786 q 728 679 650 786 q 760 668 737 668 l 783 668 q 812 663 807 668 q 817 635 817 659 l 817 300 q 865 208 817 208 q 919 229 899 208 q 950 288 940 249 q 963 367 960 328 q 966 461 966 406 q 927 677 966 581 q 824 831 888 774 q 686 919 760 889 q 539 949 612 949 q 239 813 366 949 q 113 482 113 677 q 236 154 113 292 q 546 16 359 16 q 924 104 735 16 q 956 109 930 109 l 968 109 q 986 108 981 109 q 996 104 991 107 q 1000 94 1000 102 q 922 54 1000 81 q 798 16 844 26 q 547 -16 667 -15 q 211 133 345 -16 q 78 482 78 281 m 412 676 q 385 637 412 676 q 358 482 358 597 q 412 288 358 367 q 542 208 467 208 q 701 304 635 208 q 721 364 721 334 l 721 600 q 703 656 721 629 q 542 755 639 755 q 412 676 465 755 z "},"A":{"ha":1042,"x_min":45,"x_max":996,"o":"m 45 0 l 45 43 q 200 136 168 45 l 488 966 q 499 989 493 983 q 521 994 505 994 q 534 993 529 994 q 543 987 539 991 q 547 979 546 982 q 553 966 549 977 l 852 98 q 886 53 863 64 q 971 43 908 43 l 996 43 l 996 0 q 814 4 908 4 q 614 0 664 4 l 614 43 q 729 85 729 43 q 725 104 729 87 l 652 317 l 309 317 l 244 135 q 241 114 241 130 q 269 64 241 85 q 346 43 296 43 l 346 0 q 186 4 212 4 q 45 0 140 4 m 323 359 l 636 359 l 479 811 l 323 359 z "},"B":{"ha":983,"x_min":50,"x_max":904,"o":"m 50 0 l 50 43 l 83 43 q 176 55 159 43 q 193 109 193 68 l 193 840 q 176 893 193 880 q 83 905 158 905 l 50 905 l 50 949 l 558 949 q 779 878 690 949 q 867 714 867 807 q 802 576 867 637 q 636 496 737 515 q 828 414 751 484 q 904 254 904 345 q 817 76 904 153 q 595 0 729 0 l 50 0 m 309 98 q 319 53 309 62 q 376 43 329 43 l 550 43 q 707 108 650 43 q 765 256 765 174 q 714 408 765 338 q 570 478 664 478 l 309 478 l 309 98 m 309 509 l 510 509 q 674 573 617 509 q 732 714 732 637 q 686 844 732 782 q 549 905 640 905 l 376 905 q 319 896 329 905 q 309 850 309 886 l 309 509 z "},"C":{"ha":1002,"x_min":78,"x_max":924,"o":"m 78 475 q 221 832 78 684 q 561 979 364 979 q 676 957 622 979 q 755 915 730 935 q 817 860 781 896 l 886 962 q 908 979 897 979 q 922 973 920 979 q 924 946 924 966 l 924 616 q 921 589 924 594 q 901 583 918 583 q 885 587 888 583 q 879 607 882 591 q 775 846 858 757 q 576 936 692 936 q 506 928 543 936 q 416 892 469 921 q 322 817 363 864 q 251 681 281 770 q 221 473 221 591 q 251 267 221 357 q 322 131 281 178 q 416 56 363 85 q 507 20 469 28 q 578 12 545 12 q 789 97 697 12 q 889 325 880 182 q 890 335 890 332 q 892 341 890 338 q 897 346 893 345 q 905 347 900 347 q 924 323 924 347 q 822 80 924 191 q 561 -31 721 -31 q 221 116 363 -31 q 78 475 78 262 z "},"D":{"ha":1059,"x_min":49,"x_max":982,"o":"m 49 0 l 49 43 l 82 43 q 175 55 157 43 q 192 109 192 68 l 192 840 q 174 893 192 880 q 82 905 157 905 l 49 905 l 49 949 l 557 949 q 858 807 734 949 q 982 467 982 665 q 858 136 982 272 q 557 0 733 0 l 49 0 m 311 98 q 321 53 311 62 q 379 43 332 43 l 519 43 q 673 80 611 43 q 766 161 734 118 q 843 467 843 266 q 771 777 843 677 q 518 905 678 905 l 379 905 q 321 896 332 905 q 311 850 311 886 l 311 98 z "},"E":{"ha":944,"x_min":46,"x_max":905,"o":"m 46 0 l 46 43 l 79 43 q 172 55 155 43 q 189 109 189 68 l 189 836 q 172 889 189 876 q 79 901 154 901 l 46 901 l 46 945 l 828 945 l 867 632 l 832 632 q 810 757 823 711 q 767 838 798 803 q 688 887 737 873 q 559 901 639 901 l 380 901 q 323 891 333 901 q 313 846 313 882 l 313 513 l 437 513 q 560 546 533 513 q 587 675 587 579 l 623 675 l 623 307 l 587 307 q 560 435 587 401 q 437 469 533 469 l 313 469 l 313 98 q 323 53 313 62 q 380 43 334 43 l 566 43 q 669 51 625 43 q 743 78 713 58 q 794 119 774 97 q 830 182 815 142 q 853 260 844 222 q 871 358 861 297 l 905 358 l 847 0 l 46 0 z "},"F":{"ha":905,"x_min":46,"x_max":847,"o":"m 46 0 l 46 43 l 79 43 q 172 55 155 43 q 189 109 189 68 l 189 836 q 172 889 189 876 q 79 901 154 901 l 46 901 l 46 945 l 808 945 l 847 632 l 812 632 q 790 756 803 711 q 749 838 778 802 q 673 887 721 873 q 547 901 625 901 l 380 901 q 323 891 333 901 q 313 846 313 882 l 313 494 l 432 494 q 553 528 526 494 q 579 657 579 562 l 614 657 l 614 289 l 579 289 q 553 418 579 385 q 432 452 526 452 l 313 452 l 313 110 q 317 70 313 81 q 351 51 322 58 q 444 43 380 43 l 490 43 l 490 0 q 257 4 440 4 q 46 0 95 4 z "},"G":{"ha":1088,"x_min":78,"x_max":1021,"o":"m 221 117 q 149 190 221 117 q 78 475 78 264 q 222 833 78 686 q 561 979 366 979 q 651 968 610 979 q 726 935 693 957 q 777 898 760 913 q 818 860 794 884 l 888 962 q 910 979 899 979 q 923 973 921 979 q 925 946 925 966 l 925 616 q 922 589 925 594 q 903 583 920 583 q 886 587 889 583 q 880 607 884 591 q 775 846 859 757 q 578 936 692 936 q 508 928 545 936 q 417 892 471 921 q 322 818 363 864 q 251 682 281 771 q 221 475 221 593 q 251 269 221 358 q 322 133 281 179 q 419 57 364 86 q 512 20 473 28 q 586 12 551 12 q 637 17 610 12 q 707 38 665 22 q 775 90 749 53 q 802 180 802 126 l 802 269 q 781 323 802 311 q 672 336 761 336 l 628 336 l 628 379 q 851 375 678 375 q 1021 379 867 375 l 1021 336 q 940 327 954 336 q 925 275 925 317 l 925 33 q 913 1 925 1 q 870 33 902 1 q 823 87 838 64 q 718 -1 790 29 q 564 -31 646 -31 q 221 117 363 -31 z "},"H":{"ha":1042,"x_min":46,"x_max":994,"o":"m 46 0 l 46 43 l 79 43 q 172 55 155 43 q 189 109 189 68 l 189 840 q 172 893 189 880 q 79 905 154 905 l 46 905 l 46 949 q 252 945 95 945 q 456 949 407 945 l 456 905 l 422 905 q 330 893 347 905 q 313 840 313 880 l 313 515 l 728 515 l 728 840 q 710 893 728 880 q 618 905 693 905 l 585 905 l 585 949 q 790 945 633 945 q 994 949 945 945 l 994 905 l 961 905 q 868 893 886 905 q 851 840 851 880 l 851 109 q 869 56 851 68 q 961 43 886 43 l 994 43 l 994 0 q 789 4 945 4 q 585 0 633 4 l 585 43 l 618 43 q 710 55 693 43 q 728 109 728 68 l 728 472 l 313 472 l 313 109 q 330 56 313 68 q 422 43 347 43 l 456 43 l 456 0 q 250 4 407 4 q 46 0 95 4 z "},"I":{"ha":501,"x_min":39,"x_max":463,"o":"m 39 0 l 39 43 l 75 43 q 171 55 153 43 q 189 109 189 68 l 189 840 q 171 893 189 880 q 75 905 153 905 l 39 905 l 39 949 q 252 945 87 945 q 463 949 414 945 l 463 905 l 427 905 q 331 893 349 905 q 313 840 313 880 l 313 109 q 331 56 313 68 q 427 43 349 43 l 463 43 l 463 0 q 250 4 414 4 q 39 0 87 4 z "},"J":{"ha":712,"x_min":57,"x_max":646,"o":"m 57 155 q 81 216 57 197 q 135 236 106 236 q 189 215 165 236 q 212 158 212 195 q 125 81 212 81 q 123 81 124 81 q 277 0 174 0 q 377 57 335 0 q 419 205 419 114 l 419 839 q 414 879 419 868 q 379 898 408 890 q 283 905 350 905 l 233 905 l 233 949 q 467 945 286 945 q 646 949 554 945 l 646 905 q 557 897 575 905 q 539 848 539 889 l 539 232 q 538 171 539 182 q 454 29 526 89 q 279 -31 382 -31 q 122 23 186 -31 q 57 155 57 77 z "},"K":{"ha":1079,"x_min":46,"x_max":1022,"o":"m 46 0 l 46 43 l 79 43 q 172 55 155 43 q 189 109 189 68 l 189 840 q 172 893 189 880 q 79 905 154 905 l 46 905 l 46 949 q 252 945 95 945 q 456 949 407 945 l 456 905 l 422 905 q 330 893 347 905 q 313 840 313 880 l 313 399 l 747 814 q 772 860 772 836 q 769 877 772 868 q 749 896 765 886 q 708 905 733 905 l 708 949 q 885 945 755 945 q 1003 949 967 945 l 1003 905 q 806 822 888 904 l 555 582 l 876 110 q 934 55 905 67 q 1022 43 962 43 l 1022 0 q 863 4 935 4 q 664 0 713 4 l 664 43 q 746 85 746 43 q 725 132 746 100 l 473 504 l 313 351 l 313 109 q 330 56 313 68 q 422 43 347 43 l 456 43 l 456 0 q 250 4 407 4 q 46 0 95 4 z "},"L":{"ha":868,"x_min":46,"x_max":808,"o":"m 46 0 l 46 43 l 79 43 q 172 55 155 43 q 189 109 189 68 l 189 840 q 172 893 189 880 q 79 905 154 905 l 46 905 l 46 949 q 257 945 95 945 q 490 949 440 945 l 490 905 l 444 905 q 351 897 380 905 q 317 878 322 889 q 313 839 313 867 l 313 98 q 323 53 313 62 q 380 43 334 43 l 494 43 q 616 64 565 43 q 694 111 667 85 q 739 188 721 138 q 763 269 757 237 q 774 358 768 301 l 808 358 l 770 0 l 46 0 z "},"M":{"ha":1272,"x_min":52,"x_max":1221,"o":"m 52 0 l 52 43 q 134 53 102 43 q 177 81 165 62 q 192 112 189 100 q 195 146 195 125 l 195 840 q 177 893 195 880 q 85 905 160 905 l 52 905 l 52 949 l 286 949 q 318 944 311 949 q 335 918 325 940 l 636 140 l 940 922 q 953 945 947 942 q 986 949 960 949 l 1221 949 l 1221 905 l 1187 905 q 1095 893 1112 905 q 1078 840 1078 880 l 1078 109 q 1095 56 1078 68 q 1187 43 1112 43 l 1221 43 l 1221 0 q 1022 4 1169 4 q 822 0 873 4 l 822 43 l 856 43 q 948 55 931 43 q 965 109 965 68 l 965 905 l 964 905 l 623 26 q 597 0 613 0 q 570 31 581 0 l 235 895 l 233 895 l 233 146 q 236 112 233 125 q 251 81 239 100 q 294 53 262 62 q 376 43 326 43 l 376 0 q 214 4 231 4 q 52 0 197 4 z "},"N":{"ha":1042,"x_min":46,"x_max":994,"o":"m 46 0 l 46 43 q 128 53 96 43 q 172 81 160 62 q 186 112 183 100 q 189 146 189 125 l 189 871 q 184 895 189 890 q 155 903 179 900 q 86 905 114 905 l 46 905 l 46 949 l 282 949 q 307 946 302 949 q 322 930 313 943 l 812 210 l 812 803 q 810 836 812 824 q 795 867 807 848 q 751 896 783 886 q 669 905 720 905 l 669 949 q 832 945 815 945 q 994 949 848 945 l 994 905 q 912 896 944 905 q 869 867 880 886 q 854 836 857 848 q 851 803 851 823 l 851 36 q 848 7 851 14 q 832 0 846 0 q 808 18 823 0 l 241 851 q 228 868 236 859 l 228 146 q 231 112 228 125 q 245 81 233 100 q 289 53 257 62 q 371 43 321 43 l 371 0 q 209 4 225 4 q 46 0 192 4 z "},"O":{"ha":1079,"x_min":78,"x_max":1002,"o":"m 78 471 q 214 831 78 683 q 539 979 350 979 q 866 831 730 979 q 1002 471 1002 682 q 865 115 1002 261 q 539 -31 729 -31 q 215 115 352 -31 q 78 471 78 260 m 221 490 q 252 263 221 361 q 331 111 282 164 q 433 31 380 57 q 541 5 486 5 q 645 31 593 5 q 747 109 697 56 q 827 260 796 161 q 859 490 859 359 q 837 674 859 592 q 781 805 815 755 q 704 887 747 854 q 619 932 660 920 q 539 945 578 945 q 439 923 490 945 q 337 853 389 901 q 254 712 286 806 q 221 490 221 618 z "},"P":{"ha":944,"x_min":49,"x_max":867,"o":"m 49 0 l 49 43 l 82 43 q 175 55 157 43 q 192 109 192 68 l 192 840 q 174 893 192 880 q 82 905 157 905 l 49 905 l 49 949 l 539 949 q 773 871 680 949 q 867 690 867 794 q 771 513 867 587 q 550 439 676 439 l 315 439 l 315 109 q 333 56 315 68 q 425 43 350 43 l 458 43 l 458 0 q 253 4 410 4 q 49 0 98 4 m 311 475 l 503 475 q 610 492 565 475 q 676 531 656 510 q 709 588 697 553 q 722 642 721 623 q 724 690 724 661 q 722 740 724 721 q 709 794 721 760 q 676 851 697 829 q 611 889 656 872 q 503 905 566 905 l 379 905 q 321 896 332 905 q 311 850 311 886 l 311 475 z "},"Q":{"ha":1079,"x_min":78,"x_max":1010,"o":"m 78 471 q 214 831 78 683 q 539 979 350 979 q 866 831 730 979 q 1002 471 1002 682 q 923 192 1002 317 q 720 9 844 66 q 776 -94 746 -61 q 853 -126 806 -126 q 937 -95 900 -126 q 979 -9 974 -64 q 994 16 982 16 q 1010 -14 1010 16 q 1003 -84 1010 -47 q 979 -166 996 -122 q 927 -240 962 -211 q 842 -269 892 -269 q 777 -253 804 -269 q 733 -218 749 -237 q 704 -157 717 -199 q 686 -89 690 -115 q 672 -9 681 -62 q 541 -31 606 -31 q 214 115 350 -31 q 78 471 78 261 m 216 471 q 241 271 216 358 q 305 135 265 184 q 378 60 345 86 q 447 22 412 35 q 428 89 427 61 q 460 170 428 135 q 542 205 492 205 q 699 58 640 205 q 863 471 863 179 q 831 693 863 597 q 750 842 800 789 q 646 920 700 895 q 539 945 593 945 q 433 920 486 945 q 331 844 380 896 q 249 695 281 793 q 216 471 216 598 m 458 89 q 463 57 458 73 q 488 22 468 40 q 541 4 509 4 q 663 36 606 4 q 542 175 636 175 q 481 149 505 175 q 458 89 458 122 z "},"R":{"ha":1022,"x_min":49,"x_max":1017,"o":"m 49 0 l 49 43 l 82 43 q 175 55 157 43 q 192 109 192 68 l 192 840 q 174 893 192 880 q 82 905 157 905 l 49 905 l 49 949 l 485 949 q 742 874 636 949 q 847 699 847 800 q 779 559 847 621 q 604 472 710 498 q 774 311 742 425 l 791 200 q 801 140 797 160 q 810 92 804 119 q 823 51 817 64 q 839 23 829 37 q 861 5 848 9 q 890 0 873 0 q 949 28 922 0 q 982 123 977 57 q 999 146 985 146 q 1017 123 1017 146 q 1011 81 1017 104 q 992 32 1006 58 q 951 -13 979 5 q 885 -31 922 -31 q 710 28 777 -31 q 670 85 682 53 q 655 144 657 118 q 653 227 653 170 q 645 342 653 307 q 600 412 636 378 q 471 460 551 460 l 311 460 l 311 109 q 329 56 311 68 q 421 43 346 43 l 454 43 l 454 0 q 252 4 404 4 q 49 0 99 4 m 311 490 l 465 490 q 589 508 539 490 q 663 559 639 526 q 695 624 686 591 q 704 699 704 657 q 693 784 704 747 q 659 842 682 821 q 611 878 635 864 q 551 897 587 892 q 489 904 514 903 q 424 905 464 905 q 342 903 356 905 q 320 894 326 901 q 313 878 314 886 q 311 850 311 869 l 311 490 z "},"S":{"ha":770,"x_min":78,"x_max":693,"o":"m 78 3 l 78 281 q 79 302 78 296 q 83 311 79 307 q 96 315 87 315 q 113 301 111 315 q 199 87 117 163 q 418 12 279 12 q 553 72 501 12 q 604 211 604 132 q 561 339 604 286 q 520 378 543 363 q 483 398 497 393 q 443 410 469 403 q 260 456 271 451 q 128 554 178 484 q 78 710 78 624 q 156 900 78 821 q 349 979 235 979 q 453 961 406 979 q 521 927 501 943 q 571 882 541 911 l 619 961 q 640 979 630 979 q 653 973 651 979 q 656 946 656 966 l 656 667 q 655 646 656 651 q 650 637 654 640 q 637 633 646 633 q 621 650 624 633 q 350 940 582 940 q 219 887 271 940 q 167 758 167 833 q 205 647 167 697 q 307 582 243 597 l 485 539 q 633 439 574 518 q 693 258 693 361 q 616 55 693 140 q 419 -31 539 -31 q 267 -2 333 -31 q 164 66 200 26 q 118 -5 136 20 l 114 -12 q 93 -31 103 -31 q 80 -24 82 -31 q 78 3 78 -17 z "},"T":{"ha":1002,"x_min":50,"x_max":951,"o":"m 50 628 l 77 940 l 925 940 l 951 628 l 917 628 q 906 726 911 690 q 889 797 901 762 q 863 847 878 831 q 821 877 848 864 q 757 894 793 890 q 667 897 721 897 q 587 895 603 897 q 566 879 570 890 q 562 842 562 867 l 562 110 q 568 71 562 82 q 606 51 574 60 q 708 43 637 43 l 764 43 l 764 0 q 500 4 707 4 q 237 0 294 4 l 237 43 l 293 43 q 396 51 363 43 q 433 71 428 60 q 439 110 439 82 l 439 842 q 437 869 439 861 q 430 885 436 878 q 410 895 424 892 q 335 897 396 897 q 244 894 281 897 q 180 877 208 890 q 138 847 153 864 q 112 797 123 831 q 95 726 100 762 q 85 628 90 690 l 50 628 z "},"U":{"ha":1042,"x_min":46,"x_max":994,"o":"m 46 905 l 46 949 q 252 945 95 945 q 456 949 407 945 l 456 905 l 422 905 q 330 893 347 905 q 313 840 313 880 l 313 311 q 338 154 313 218 q 404 62 364 90 q 477 23 444 33 q 542 12 510 12 q 728 96 648 12 q 808 321 808 180 l 808 803 q 806 836 808 824 q 791 867 803 848 q 747 896 779 886 q 665 905 715 905 l 665 949 q 831 945 815 945 q 994 949 844 945 l 994 905 q 912 897 944 905 q 869 868 880 888 q 854 834 857 848 q 851 798 851 821 l 851 353 q 847 257 851 285 q 743 53 829 136 q 539 -31 657 -31 q 293 70 396 -31 q 189 317 189 171 l 189 840 q 172 893 189 880 q 79 905 154 905 l 46 905 z "},"V":{"ha":1042,"x_min":26,"x_max":1014,"o":"m 26 905 l 26 949 q 203 945 176 945 q 401 949 351 945 l 401 905 q 288 865 288 905 q 296 840 288 860 l 561 139 l 815 808 q 822 836 822 829 q 797 884 822 864 q 721 905 771 904 l 721 949 q 879 945 829 945 q 1014 949 949 945 l 1014 905 q 863 812 897 904 l 553 -4 q 542 -26 547 -21 q 519 -31 536 -31 q 499 -25 506 -31 q 485 0 492 -20 l 163 852 q 125 898 149 890 q 26 905 100 905 z "},"W":{"ha":1426,"x_min":25,"x_max":1401,"o":"m 25 905 l 25 949 q 80 947 45 949 q 143 945 115 946 q 195 945 171 945 q 392 949 342 945 l 392 905 q 275 864 275 905 q 278 846 275 854 l 501 163 l 694 758 l 664 856 q 629 898 653 890 q 539 905 606 905 l 539 949 q 594 947 559 949 q 657 945 629 946 q 708 945 685 945 q 905 949 855 945 l 905 905 q 789 864 789 905 q 793 843 789 860 l 1015 163 l 1223 804 q 1231 832 1230 825 q 1202 881 1231 857 q 1109 905 1173 904 l 1109 949 q 1275 945 1218 945 q 1401 949 1339 945 l 1401 905 q 1263 812 1291 905 l 997 -3 q 992 -19 994 -14 q 985 -27 990 -24 q 970 -31 979 -31 q 943 -4 951 -31 l 713 703 l 484 -3 q 478 -19 481 -14 q 471 -27 476 -24 q 456 -31 465 -31 q 429 -4 437 -31 l 151 847 q 120 896 139 887 q 25 905 102 905 z "},"X":{"ha":1042,"x_min":33,"x_max":1008,"o":"m 33 0 l 33 43 q 144 62 97 43 q 204 97 191 82 q 235 135 218 111 l 463 471 l 207 857 q 161 896 187 886 q 78 905 135 905 l 52 905 l 52 949 q 232 945 128 945 q 435 949 386 945 l 435 905 q 369 891 393 904 q 345 864 345 878 q 354 843 345 859 l 533 575 l 692 810 q 704 842 704 829 q 681 885 704 867 q 618 905 659 904 l 618 949 q 796 945 673 945 q 837 945 812 945 q 897 947 863 946 q 950 949 930 949 l 950 905 q 749 815 810 904 l 558 536 l 851 93 q 899 53 872 62 q 982 43 925 43 l 1008 43 l 1008 0 q 828 4 921 4 q 625 0 674 4 l 625 43 q 691 57 667 44 q 715 85 715 71 q 708 100 715 86 l 489 432 l 292 140 q 278 107 278 118 q 300 65 278 85 q 366 43 322 45 l 366 0 q 187 4 315 4 q 33 0 183 4 z "},"Y":{"ha":1042,"x_min":16,"x_max":1025,"o":"m 16 905 l 16 949 q 196 945 103 945 q 401 949 351 945 l 401 905 q 327 899 350 905 q 304 871 304 892 q 314 847 304 861 l 566 437 l 794 810 q 808 851 808 831 q 789 890 808 875 q 729 905 770 905 l 729 949 q 889 945 838 945 q 1025 949 961 945 l 1025 905 q 847 815 901 905 l 579 379 l 579 111 q 596 56 579 68 q 690 43 614 43 l 722 43 l 722 0 q 519 4 672 4 q 317 0 367 4 l 317 43 l 350 43 q 443 55 425 43 q 460 109 460 68 l 460 379 l 168 854 q 146 884 156 876 q 111 899 136 893 q 40 905 86 905 l 16 905 z "},"Z":{"ha":848,"x_min":78,"x_max":778,"o":"m 78 24 q 87 52 78 36 l 628 905 l 410 905 q 271 887 326 905 q 187 828 216 868 q 146 745 158 789 q 131 636 135 701 l 96 636 l 111 949 l 733 949 q 750 949 745 949 q 761 946 755 949 q 768 939 766 943 q 770 926 770 935 q 760 900 770 916 l 221 47 l 449 47 q 577 63 524 47 q 660 104 629 79 q 708 174 690 129 q 733 262 726 220 q 743 371 739 304 l 778 371 l 754 0 l 114 0 q 84 3 90 0 q 78 24 78 7 z "},"[":{"ha":386,"x_min":144,"x_max":354,"o":"m 144 -347 l 144 1042 l 354 1042 l 354 1010 l 237 1010 l 237 -315 l 354 -315 l 354 -347 l 144 -347 z "},"\\":{"ha":694,"x_min":79,"x_max":614,"o":"m 79 1022 q 92 1039 79 1039 q 115 1010 104 1039 l 607 -302 q 614 -328 614 -323 q 600 -345 614 -345 q 576 -313 589 -345 l 85 1002 q 79 1022 79 1015 z "},"]":{"ha":386,"x_min":29,"x_max":239,"o":"m 29 -315 l 146 -315 l 146 1010 l 29 1010 l 29 1042 l 239 1042 l 239 -347 l 29 -347 l 29 -315 z "},"^":{"ha":848,"x_min":163,"x_max":684,"o":"m 163 672 l 422 872 l 684 672 l 663 643 l 422 799 l 183 643 l 163 672 z "},"_":{"ha":1080,"x_min":117,"x_max":961,"o":"m 157 -323 q 117 -296 117 -323 q 158 -268 117 -268 l 920 -268 q 961 -296 961 -268 q 922 -323 961 -323 l 157 -323 z "},"`":{"ha":694,"x_min":139,"x_max":396,"o":"m 139 840 q 153 875 139 859 q 187 892 167 892 q 221 877 203 892 q 317 786 240 861 q 396 708 364 739 l 375 681 q 189 785 347 694 l 180 789 q 170 795 174 793 q 160 803 167 798 q 149 813 153 808 q 142 825 146 818 q 139 840 139 832 z "},"a":{"ha":694,"x_min":58,"x_max":685,"o":"m 58 132 q 197 313 58 250 q 453 363 281 353 l 453 414 q 408 546 453 500 q 306 591 363 591 q 155 528 204 591 q 212 506 197 526 q 227 464 227 485 q 209 418 227 436 q 163 400 192 400 q 117 417 135 400 q 98 465 98 435 q 160 578 98 533 q 309 623 221 623 q 498 546 422 623 q 534 492 522 522 q 547 441 546 461 q 549 382 549 421 l 549 104 q 551 83 549 96 q 567 52 554 69 q 600 35 579 35 q 650 123 650 35 l 650 201 l 685 201 l 685 123 q 646 21 685 50 q 571 -8 607 -8 q 496 26 525 -8 q 463 106 467 60 q 394 19 441 53 q 281 -16 346 -16 q 183 -3 231 -16 q 97 44 136 9 q 58 132 58 79 m 165 134 q 202 49 165 82 q 290 16 239 16 q 401 61 349 16 q 453 195 453 106 l 453 334 q 232 267 299 328 q 165 134 165 205 z "},"b":{"ha":770,"x_min":39,"x_max":724,"o":"m 39 905 l 39 949 l 239 964 l 239 524 q 429 614 319 614 q 636 522 549 614 q 724 300 724 431 q 632 76 724 168 q 414 -16 541 -16 q 232 86 298 -16 q 182 0 183 1 l 147 0 l 147 828 q 129 892 147 880 q 39 905 111 905 m 243 158 q 262 100 243 129 q 407 16 317 16 q 408 16 408 16 q 566 104 505 16 q 608 301 608 171 q 568 494 608 430 q 422 583 513 583 q 258 494 321 583 q 243 444 243 472 l 243 158 z "},"c":{"ha":616,"x_min":47,"x_max":576,"o":"m 136 76 q 92 122 136 76 q 47 300 47 168 q 134 527 47 432 q 349 623 221 623 q 497 582 433 623 q 561 473 561 542 q 543 426 561 443 q 497 408 525 408 q 451 426 468 408 q 433 472 433 444 q 437 496 433 484 q 457 522 441 509 q 498 536 472 534 q 353 587 449 587 q 350 587 351 587 q 221 521 279 587 q 163 302 163 454 q 182 165 163 223 q 233 77 201 107 q 296 34 265 47 q 358 20 328 20 q 541 165 494 20 q 558 179 545 179 q 576 165 576 179 q 571 141 576 159 q 549 96 566 123 q 508 44 532 68 q 441 2 484 20 q 346 -16 399 -16 q 136 76 224 -16 z "},"d":{"ha":770,"x_min":47,"x_max":732,"o":"m 47 298 q 140 522 47 431 q 357 614 232 614 q 532 528 463 614 l 532 828 q 514 892 532 880 q 424 905 496 905 l 424 949 l 624 964 l 624 121 q 642 56 624 69 q 732 43 660 43 l 732 0 l 528 -16 l 528 77 q 342 -16 456 -15 q 135 76 222 -16 q 47 298 47 168 m 163 297 q 203 104 163 168 q 349 16 258 16 q 513 113 452 16 q 528 164 528 136 l 528 449 q 513 500 528 477 q 363 583 456 583 q 205 494 266 583 q 163 297 163 428 z "},"e":{"ha":616,"x_min":39,"x_max":576,"o":"m 39 306 q 123 530 39 437 q 328 623 207 623 q 513 543 450 623 q 576 350 576 464 q 571 325 576 329 q 542 321 566 321 l 154 321 q 196 113 154 179 q 353 20 254 20 q 382 22 366 20 q 432 37 399 25 q 494 81 465 49 q 541 163 524 113 q 558 182 545 182 q 576 165 576 182 q 563 126 576 153 q 525 66 550 98 q 451 9 500 33 q 345 -16 403 -16 q 131 77 222 -16 q 39 306 39 170 m 155 350 l 485 350 q 480 412 485 379 q 460 489 475 444 q 412 563 446 534 q 328 591 378 591 q 281 582 305 591 q 228 549 257 572 q 178 474 199 526 q 155 350 158 422 z "},"f":{"ha":423,"x_min":46,"x_max":496,"o":"m 46 555 l 46 599 l 155 599 l 155 758 q 222 920 155 861 q 371 979 289 979 q 460 950 425 979 q 496 882 496 921 q 480 838 496 855 q 435 821 464 821 q 391 838 407 821 q 375 880 375 856 q 416 939 375 925 q 371 949 395 948 q 282 897 321 949 q 243 760 243 846 l 243 599 l 406 599 l 406 555 l 248 555 l 248 109 q 264 56 248 68 q 353 43 281 43 l 382 43 l 382 0 q 205 4 326 4 q 162 3 189 4 q 101 1 136 3 q 47 0 66 0 l 47 43 q 138 52 121 43 q 155 106 155 61 l 155 555 l 46 555 z "},"g":{"ha":694,"x_min":39,"x_max":673,"o":"m 39 -110 q 73 -26 39 -65 q 167 29 107 12 q 106 153 106 68 q 149 268 106 218 q 83 411 83 322 q 149 553 83 493 q 309 614 214 614 q 456 564 392 614 q 603 629 522 629 q 656 607 639 629 q 673 561 673 585 q 660 530 673 540 q 633 519 647 519 q 605 531 616 519 q 593 559 593 542 q 615 597 593 589 q 602 599 611 599 q 476 545 534 599 q 533 410 533 492 q 468 267 533 328 q 309 207 403 207 q 171 250 231 207 q 147 184 147 222 q 168 123 147 150 q 221 92 189 96 q 325 90 231 90 q 411 89 380 90 q 485 78 441 87 q 564 52 529 69 q 654 -107 654 1 q 563 -236 654 -186 q 346 -286 472 -286 q 129 -236 218 -286 q 39 -110 39 -185 m 111 -110 q 178 -211 111 -167 q 347 -254 245 -254 q 514 -211 447 -254 q 582 -110 582 -168 q 558 -42 582 -68 q 486 -5 534 -16 q 404 7 437 5 q 307 9 370 9 l 225 9 q 144 -28 178 7 q 111 -110 111 -62 m 187 410 q 309 239 187 239 q 407 294 370 239 q 429 411 429 332 q 309 582 429 582 q 210 526 248 582 q 187 410 187 489 z "},"h":{"ha":770,"x_min":45,"x_max":743,"o":"m 45 0 l 45 43 q 136 52 119 43 q 153 106 153 61 l 153 828 q 135 892 153 880 q 45 905 117 905 l 45 949 l 244 964 l 244 481 l 245 481 q 318 572 268 531 q 446 614 368 614 q 591 562 550 614 q 628 489 622 528 q 635 350 635 450 l 635 85 q 659 49 636 56 q 743 43 681 43 l 743 0 q 587 4 602 4 q 431 0 576 4 l 431 43 q 522 52 505 43 q 539 106 539 61 l 539 429 q 517 542 539 500 q 436 583 496 583 q 307 523 364 583 q 249 361 249 463 l 249 106 q 266 52 249 61 q 357 43 283 43 l 357 0 q 201 4 215 4 q 45 0 191 4 z "},"i":{"ha":385,"x_min":46,"x_max":343,"o":"m 46 0 l 46 43 q 137 52 120 43 q 154 106 154 61 l 154 479 q 137 543 154 531 q 52 555 119 555 l 52 599 l 245 614 l 245 104 q 260 53 245 63 q 343 43 275 43 l 343 0 q 199 4 201 4 q 46 0 180 4 m 104 856 q 126 906 104 884 q 178 929 147 929 q 230 908 208 929 q 252 856 252 888 q 230 803 252 823 q 178 782 208 782 q 125 804 146 782 q 104 856 104 827 z "},"j":{"ha":423,"x_min":-56,"x_max":292,"o":"m -56 -174 q -38 -128 -56 -146 q 8 -110 -21 -110 q 55 -128 37 -110 q 72 -174 72 -146 q 57 -215 72 -199 q 24 -236 43 -231 q 98 -254 60 -254 q 152 -235 130 -254 q 183 -185 174 -216 q 197 -128 193 -154 q 200 -72 200 -102 l 200 478 q 180 543 200 530 q 81 555 160 555 l 81 599 l 292 614 l 292 -69 q 236 -223 292 -162 q 102 -285 180 -285 q -9 -255 38 -285 q -56 -174 -56 -225 m 166 803 q 155 814 166 803 q 144 855 144 825 q 166 907 144 886 q 218 929 188 929 q 271 907 249 929 q 292 855 292 886 q 271 803 292 825 q 218 782 249 782 q 166 803 188 782 z "},"k":{"ha":732,"x_min":39,"x_max":710,"o":"m 39 0 l 39 43 q 130 52 113 43 q 147 106 147 61 l 147 828 q 129 892 147 880 q 39 905 111 905 l 39 949 l 239 964 l 239 297 l 435 467 q 465 521 465 493 q 425 555 465 553 l 425 599 q 581 595 484 595 q 677 599 637 595 l 677 555 q 503 481 590 551 q 436 425 483 465 q 390 380 390 385 q 392 376 390 379 q 396 370 393 372 q 399 366 399 367 l 575 117 q 637 55 611 66 q 710 43 664 43 l 710 0 q 589 4 650 4 q 439 0 555 4 l 439 43 q 489 75 489 43 q 376 253 489 98 q 350 288 368 264 q 323 325 333 313 l 235 249 l 235 106 q 252 52 235 61 q 343 43 269 43 l 343 0 q 191 4 260 4 q 39 0 176 4 z "},"l":{"ha":385,"x_min":46,"x_max":354,"o":"m 46 0 l 46 43 q 137 52 120 43 q 154 106 154 61 l 154 828 q 136 892 154 880 q 46 905 118 905 l 46 949 l 245 964 l 245 106 q 263 52 245 61 q 354 43 281 43 l 354 0 q 302 1 337 0 q 241 3 267 3 q 200 4 215 4 q 46 0 184 4 z "},"m":{"ha":1156,"x_min":45,"x_max":1129,"o":"m 45 0 l 45 43 q 136 52 119 43 q 153 106 153 61 l 153 478 q 135 543 153 530 q 45 555 117 555 l 45 599 l 240 614 l 240 468 q 446 614 305 614 q 631 478 608 614 q 704 572 654 531 q 832 614 754 614 q 978 562 937 614 q 1015 489 1008 528 q 1021 350 1021 450 l 1021 85 q 1044 49 1022 56 q 1129 43 1067 43 l 1129 0 q 974 4 987 4 q 817 0 963 4 l 817 43 q 908 52 890 43 q 925 106 925 61 l 925 429 q 903 542 925 500 q 822 583 882 583 q 692 523 750 583 q 635 361 635 463 l 635 106 q 652 52 635 61 q 743 43 669 43 l 743 0 q 587 4 602 4 q 431 0 576 4 l 431 43 q 522 52 505 43 q 539 106 539 61 l 539 429 q 517 542 539 500 q 436 583 496 583 q 307 523 364 583 q 249 361 249 463 l 249 106 q 266 52 249 61 q 357 43 283 43 l 357 0 q 201 4 215 4 q 45 0 191 4 z "},"n":{"ha":770,"x_min":45,"x_max":743,"o":"m 45 0 l 45 43 q 136 52 119 43 q 153 106 153 61 l 153 478 q 135 543 153 530 q 45 555 117 555 l 45 599 l 240 614 l 240 468 q 446 614 305 614 q 591 562 550 614 q 628 489 622 528 q 635 350 635 450 l 635 85 q 659 49 636 56 q 743 43 681 43 l 743 0 q 587 4 602 4 q 431 0 576 4 l 431 43 q 522 52 505 43 q 539 106 539 61 l 539 429 q 517 542 539 500 q 436 583 496 583 q 307 523 364 583 q 249 361 249 463 l 249 106 q 266 52 249 61 q 357 43 283 43 l 357 0 q 201 4 215 4 q 45 0 191 4 z "},"o":{"ha":694,"x_min":39,"x_max":654,"o":"m 131 75 q 85 120 131 75 q 39 297 39 165 q 129 526 39 429 q 347 623 218 623 q 564 527 473 623 q 654 297 654 431 q 563 75 654 166 q 346 -16 472 -16 q 131 75 222 -16 m 154 309 q 189 113 154 174 q 347 20 243 20 q 442 47 399 20 q 509 122 485 75 q 539 309 539 183 q 503 501 539 442 q 346 591 448 591 q 257 568 301 591 q 187 498 214 545 q 154 309 154 437 z "},"p":{"ha":770,"x_min":39,"x_max":724,"o":"m 39 -227 q 130 -217 113 -227 q 147 -164 147 -208 l 147 486 q 130 544 147 532 q 39 555 113 555 l 39 599 l 239 614 l 239 522 q 433 614 322 614 q 637 522 551 614 q 724 300 724 431 q 632 76 724 168 q 414 -16 541 -16 q 298 20 345 -16 q 243 82 252 56 l 243 69 l 243 -164 q 260 -218 243 -209 q 351 -227 278 -227 l 351 -269 q 195 -265 205 -265 q 39 -269 181 -265 l 39 -227 m 243 158 q 246 130 243 137 q 262 100 249 122 q 407 16 317 16 q 408 16 408 16 q 548 97 488 16 q 608 300 608 178 q 553 498 608 416 q 422 579 498 579 q 321 550 368 579 q 243 468 273 521 l 243 158 z "},"q":{"ha":732,"x_min":47,"x_max":732,"o":"m 47 298 q 139 523 47 432 q 354 614 231 614 q 448 589 406 614 q 509 539 490 564 q 541 488 528 514 l 593 614 l 624 614 l 624 -164 q 641 -218 624 -209 q 732 -227 659 -227 l 732 -269 q 575 -265 586 -265 q 419 -269 562 -265 l 419 -227 q 510 -217 493 -227 q 528 -164 528 -208 l 528 85 q 343 -16 451 -15 q 135 77 222 -16 q 47 298 47 170 m 163 298 q 217 97 163 179 q 349 16 272 16 q 476 72 424 16 q 532 189 532 133 l 532 385 q 485 514 532 450 q 363 579 439 579 q 223 499 283 579 q 163 298 163 419 z "},"r":{"ha":543,"x_min":39,"x_max":505,"o":"m 39 0 l 39 43 q 130 52 113 43 q 147 106 147 61 l 147 478 q 129 543 147 530 q 39 555 111 555 l 39 599 l 232 614 l 232 461 q 293 567 252 521 q 403 614 335 614 q 476 589 448 614 q 505 529 505 564 q 487 483 505 498 q 446 468 468 468 q 403 484 420 468 q 386 528 386 500 q 394 558 386 545 q 408 576 401 571 q 418 582 414 581 q 403 583 415 583 q 282 507 326 583 q 239 322 239 431 l 239 109 q 255 56 239 68 q 345 43 272 43 l 374 43 l 374 0 q 197 4 318 4 q 154 3 180 4 q 93 1 127 3 q 39 0 58 0 z "},"s":{"ha":547,"x_min":46,"x_max":500,"o":"m 46 18 l 46 201 q 47 222 46 217 q 52 232 47 228 q 64 236 56 236 q 77 232 73 236 q 83 212 81 228 q 150 66 104 117 q 277 16 195 16 q 394 50 355 16 q 433 142 433 85 q 289 269 433 243 q 171 297 205 286 q 106 334 136 309 q 46 452 46 382 q 99 572 46 521 q 268 623 151 623 q 399 583 346 623 q 422 606 414 595 q 450 623 441 623 q 463 615 461 623 q 465 589 465 608 l 465 449 q 465 428 465 433 q 460 419 464 422 q 447 415 456 415 q 431 428 431 415 q 268 596 420 596 q 149 565 186 596 q 113 490 113 533 q 124 449 113 467 q 150 420 135 431 q 191 400 164 410 q 235 387 218 390 q 283 376 252 383 q 441 310 395 355 q 500 178 500 252 q 444 40 500 96 q 277 -16 389 -16 q 123 45 186 -16 q 109 30 115 37 q 101 20 103 22 q 98 15 98 17 q 96 12 97 14 q 61 -16 68 -16 q 48 -8 50 -16 q 46 18 46 -1 z "},"t":{"ha":538,"x_min":26,"x_max":461,"o":"m 26 555 l 26 586 q 133 634 90 589 q 190 734 175 679 q 205 854 204 790 l 240 854 l 240 599 l 439 599 l 439 555 l 240 555 l 240 170 q 334 20 240 20 q 400 61 374 20 q 427 175 427 102 l 427 252 l 461 252 l 461 172 q 427 41 461 97 q 323 -16 392 -16 q 274 -9 298 -16 q 217 14 249 -3 q 164 72 184 31 q 144 172 144 113 l 144 555 l 26 555 z "},"u":{"ha":770,"x_min":45,"x_max":743,"o":"m 45 555 l 45 599 l 249 614 l 249 153 q 252 100 249 119 q 266 58 254 81 q 303 26 277 36 q 371 16 329 16 q 493 77 446 16 q 539 231 539 139 l 539 478 q 521 543 539 530 q 431 555 503 555 l 431 599 l 635 614 l 635 121 q 653 56 635 69 q 743 43 671 43 l 743 0 l 543 -16 l 543 110 q 364 -16 485 -15 q 261 0 303 -16 q 199 35 220 16 q 166 92 178 54 q 154 152 155 129 q 153 220 153 175 l 153 428 q 139 539 153 522 q 45 555 125 555 z "},"v":{"ha":732,"x_min":26,"x_max":705,"o":"m 26 555 l 26 599 q 161 595 89 595 q 313 599 188 595 l 313 555 q 233 519 233 555 q 241 496 233 514 l 397 109 l 539 463 q 547 496 547 486 q 531 537 547 519 q 481 555 515 554 l 481 599 q 602 595 551 595 q 705 599 659 595 l 705 555 q 635 537 664 555 q 596 502 606 518 q 578 463 587 486 l 396 11 q 367 -16 385 -16 q 350 -11 355 -16 q 338 11 345 -5 l 138 504 q 106 547 124 538 q 26 555 89 555 z "},"w":{"ha":1002,"x_min":25,"x_max":977,"o":"m 25 555 l 25 599 q 154 595 100 595 q 306 599 180 595 l 306 555 q 224 518 224 555 q 231 493 224 510 l 363 122 l 482 458 q 450 534 457 526 q 363 555 433 555 l 363 599 q 486 595 425 595 q 631 599 510 595 l 631 555 q 549 518 549 555 q 555 492 549 513 l 693 104 l 819 460 q 827 489 826 478 q 805 537 827 519 q 746 555 783 554 l 746 599 q 875 595 825 595 q 977 599 930 595 l 977 555 q 860 467 890 553 l 697 11 q 669 -16 682 -14 q 642 11 651 -16 l 500 406 l 359 12 q 349 -10 354 -5 q 332 -16 345 -16 q 314 -8 319 -16 q 302 16 309 -1 l 127 507 q 97 547 115 539 q 25 555 79 555 z "},"x":{"ha":732,"x_min":17,"x_max":717,"o":"m 17 0 l 17 43 q 195 126 125 43 q 325 292 195 126 l 187 471 q 117 544 138 533 q 24 555 96 555 l 24 599 q 155 595 81 595 q 306 599 197 595 l 306 555 q 257 521 257 553 q 269 496 257 510 l 378 355 l 464 464 q 485 513 485 489 q 444 555 485 551 l 444 599 q 578 595 498 595 q 692 599 637 595 l 692 555 q 526 484 586 553 q 399 326 500 454 l 585 86 q 632 50 607 57 q 717 43 657 43 l 717 0 q 583 4 654 4 q 433 0 558 4 l 433 43 q 471 55 458 44 q 484 78 484 66 q 454 123 484 83 l 349 262 q 229 109 243 138 q 224 86 224 96 q 264 43 224 49 l 264 0 q 132 4 164 4 q 17 0 71 4 z "},"y":{"ha":732,"x_min":26,"x_max":705,"o":"m 26 -172 q 44 -128 26 -143 q 85 -113 61 -113 q 126 -129 110 -113 q 143 -171 143 -144 q 89 -229 143 -222 q 154 -254 115 -254 q 229 -224 195 -254 q 277 -164 262 -193 q 313 -82 292 -135 q 347 0 332 -41 l 139 507 q 104 548 125 541 q 26 555 83 555 l 26 599 q 161 595 89 595 q 313 599 204 595 l 313 555 q 235 519 235 555 q 243 494 235 515 l 397 121 l 538 463 q 546 496 546 482 q 481 555 546 553 l 481 599 q 602 595 572 595 q 705 599 659 595 l 705 555 q 576 467 612 555 l 332 -126 q 154 -285 265 -284 q 64 -252 101 -285 q 26 -172 26 -220 z "},"z":{"ha":616,"x_min":39,"x_max":557,"o":"m 39 20 q 52 45 39 29 l 439 568 l 281 568 q 135 528 171 568 q 93 375 100 488 l 58 375 l 74 599 l 518 599 q 540 598 534 599 q 550 593 546 597 q 554 581 554 589 q 542 557 554 572 l 155 35 l 319 35 q 474 83 435 35 q 522 260 513 131 l 557 260 l 533 0 l 75 0 q 46 3 53 0 q 39 20 39 6 z "},"{":{"ha":694,"x_min":102,"x_max":590,"o":"m 104 338 q 103 340 104 338 q 102 347 102 342 q 104 356 102 353 q 111 361 106 359 q 120 363 115 363 q 135 366 125 364 q 154 368 146 367 q 245 412 204 378 q 294 496 286 446 q 297 536 297 509 l 297 839 q 332 953 297 911 q 436 1020 369 999 q 566 1042 504 1042 q 590 1026 591 1042 q 586 1016 590 1019 q 574 1011 582 1013 q 558 1008 567 1010 q 536 1005 549 1007 q 513 1000 524 1003 q 395 847 395 962 l 395 534 q 229 347 395 389 q 395 168 395 306 l 395 -140 q 397 -191 395 -174 q 450 -273 407 -238 q 557 -314 493 -307 q 590 -332 590 -318 q 567 -347 590 -347 q 389 -305 469 -347 q 298 -182 309 -262 q 297 -142 297 -168 l 297 163 q 278 243 297 209 q 232 295 260 278 q 183 319 204 311 q 146 329 163 326 q 134 330 142 329 q 121 331 126 330 q 112 333 117 332 q 104 338 107 335 z "},"|":{"ha":386,"x_min":164,"x_max":220,"o":"m 164 -304 l 164 989 q 192 1040 164 1040 q 220 999 220 1040 l 220 -294 q 192 -346 220 -346 q 164 -304 164 -346 z "},"}":{"ha":694,"x_min":102,"x_max":590,"o":"m 102 -332 q 111 -319 102 -322 q 141 -314 119 -317 q 179 -306 163 -311 q 297 -153 297 -267 l 297 160 q 463 347 297 306 q 297 525 297 389 l 297 835 q 294 885 297 868 q 242 967 285 932 q 135 1008 199 1002 q 127 1009 134 1008 q 118 1010 121 1010 q 111 1013 115 1011 q 104 1017 106 1014 q 102 1025 102 1021 q 125 1042 102 1042 q 303 999 223 1042 q 393 876 383 957 q 395 836 395 863 l 395 532 q 413 451 395 486 q 459 400 431 416 q 507 376 488 383 q 546 366 526 368 q 558 365 550 366 q 570 362 566 364 q 580 359 575 361 q 587 355 585 358 q 590 347 590 351 q 588 338 590 342 q 581 333 586 335 q 569 331 575 332 q 554 329 564 330 q 536 326 545 328 q 446 283 486 317 q 397 199 406 250 q 395 158 395 185 l 395 -144 q 392 -189 395 -172 q 374 -235 390 -205 q 328 -289 358 -265 q 126 -347 248 -347 q 102 -332 102 -347 z "},"~":{"ha":848,"x_min":115,"x_max":732,"o":"m 115 817 q 134 838 118 819 q 155 862 150 857 q 175 881 160 867 q 199 901 189 896 q 223 914 208 905 q 255 925 239 922 q 289 928 271 928 q 431 895 338 928 q 572 861 524 861 q 646 878 617 861 q 708 928 675 895 l 732 907 q 716 888 730 904 q 699 868 703 872 q 682 851 696 864 q 662 833 668 838 q 642 820 656 829 q 617 807 628 810 q 590 801 606 804 q 558 798 575 798 q 416 830 509 798 q 275 863 323 863 q 201 847 231 863 q 139 798 172 831 l 115 817 z "},"":{"ha":462,"x_min":0,"x_max":0,"o":""},"":{"ha":386,"x_min":118,"x_max":265,"o":"m 118 -228 q 123 -167 118 -217 l 172 399 q 192 433 176 433 q 210 410 208 433 q 215 353 212 397 q 222 273 219 305 l 262 -200 q 265 -228 265 -220 q 242 -281 265 -262 q 192 -300 220 -300 q 140 -280 163 -300 q 118 -228 118 -261 m 118 621 q 140 673 118 652 q 192 694 163 694 q 242 674 221 694 q 264 621 264 653 q 242 569 264 590 q 192 549 220 549 q 139 570 160 549 q 118 621 118 591 z "},"":{"ha":694,"x_min":46,"x_max":653,"o":"m 46 298 q 136 517 46 425 q 364 619 225 610 l 364 741 l 407 741 l 407 619 q 576 578 514 616 q 639 475 639 541 q 621 426 639 443 q 576 408 603 408 q 531 427 549 408 q 513 472 513 446 q 575 536 513 526 q 407 585 515 581 l 407 21 q 507 43 465 25 q 568 83 549 61 q 599 128 587 106 q 619 164 611 150 q 636 179 627 179 q 653 164 653 179 q 647 140 653 157 q 623 98 640 123 q 580 49 606 72 q 508 8 554 26 q 407 -14 463 -9 l 407 -135 l 364 -135 l 364 -14 q 136 85 227 -4 q 46 298 46 175 m 163 300 q 212 119 163 197 q 364 22 261 41 l 364 583 q 217 497 271 571 q 163 300 163 423 z "},"":{"ha":887,"x_min":77,"x_max":847,"o":"m 77 66 q 124 156 77 119 q 241 193 172 193 l 243 193 q 334 176 280 193 q 336 304 336 203 l 336 461 l 253 461 q 221 471 227 461 q 216 484 217 477 q 250 504 216 505 l 336 504 l 336 708 q 412 910 336 840 q 578 981 488 981 q 744 902 680 981 q 808 729 808 823 q 788 676 808 692 q 745 660 768 660 q 700 677 718 660 q 681 722 681 694 q 700 768 681 750 q 745 786 718 786 q 766 783 753 786 q 692 906 744 864 q 581 949 640 949 q 463 875 505 949 q 433 703 433 822 l 433 504 l 551 504 q 590 484 587 496 q 557 461 590 461 l 433 461 l 433 257 q 414 142 433 196 q 467 113 425 136 q 533 79 510 90 q 594 57 557 68 q 661 46 631 46 q 761 83 721 46 q 810 170 802 119 q 828 205 815 205 q 838 203 833 205 q 847 180 847 197 q 791 50 847 115 q 643 -16 736 -16 q 604 -13 623 -16 q 562 -1 585 -9 q 523 13 539 7 q 481 31 507 18 q 447 48 456 43 q 410 67 437 53 q 382 83 383 82 q 193 -16 305 -15 q 109 7 140 -16 q 77 66 77 29 m 129 65 q 149 31 129 44 q 195 17 168 17 q 265 42 232 17 q 317 113 298 68 q 224 131 268 131 q 153 111 178 131 q 129 65 129 90 z "},"":{"ha":1042,"x_min":16,"x_max":1025,"o":"m 16 905 l 16 949 q 193 945 95 945 q 401 949 298 945 l 401 905 l 393 905 q 306 871 306 905 q 307 865 306 868 q 310 856 307 861 q 317 843 313 850 q 328 824 321 836 q 342 800 335 812 q 363 767 350 787 q 390 724 376 746 q 422 671 403 703 q 463 606 441 639 l 668 606 q 806 833 802 824 q 808 852 808 842 q 730 905 808 903 l 730 949 q 893 945 811 945 q 1025 949 964 945 l 1025 905 q 861 835 916 904 q 720 606 853 824 l 896 606 q 933 603 926 606 q 942 583 950 596 q 908 574 937 574 l 722 574 q 701 570 707 574 q 685 549 696 567 q 583 378 587 389 q 581 357 581 371 l 581 336 l 908 336 q 942 319 941 336 q 911 304 942 304 l 581 304 l 581 107 q 603 54 581 64 q 710 43 625 43 l 724 43 l 724 0 q 529 4 549 4 q 317 0 422 4 l 317 43 l 330 43 q 437 54 415 43 q 460 109 460 65 l 460 304 l 129 304 q 97 319 97 304 q 132 336 97 336 l 460 336 l 460 358 l 460 359 q 439 412 460 379 q 410 461 432 425 q 355 549 378 513 q 339 570 345 567 q 319 574 334 574 l 132 574 q 97 590 98 574 q 144 606 97 606 l 321 606 l 174 846 q 122 896 147 887 q 28 905 97 905 l 16 905 m 482 574 l 566 437 l 648 574 l 482 574 z "},"":{"ha":616,"x_min":96,"x_max":519,"o":"m 96 354 q 205 542 96 479 q 96 764 96 648 q 159 918 96 857 q 309 979 222 979 q 445 928 389 979 q 500 814 500 878 q 484 773 500 786 q 452 761 468 761 q 418 775 432 761 q 404 810 404 789 q 408 828 404 818 q 424 847 411 838 q 456 859 436 857 q 389 928 432 909 q 310 947 346 947 q 199 890 241 947 q 158 770 158 833 q 164 733 158 750 q 183 701 170 715 q 207 676 197 686 q 239 654 216 667 q 270 637 262 642 q 302 623 278 633 l 329 612 q 473 491 427 568 q 519 340 519 414 q 410 153 519 217 q 519 -71 519 51 q 458 -222 519 -159 q 307 -285 397 -285 q 170 -234 225 -285 q 115 -121 115 -183 q 131 -80 115 -93 q 164 -68 147 -68 q 197 -81 184 -68 q 211 -115 211 -94 q 208 -133 211 -123 q 192 -153 204 -143 q 160 -164 179 -163 q 227 -235 184 -216 q 306 -254 271 -254 q 416 -198 375 -254 q 457 -77 457 -142 q 451 -40 457 -57 q 432 -8 446 -22 q 408 17 418 7 q 376 39 399 26 q 345 56 353 52 q 311 69 338 60 l 286 81 q 142 203 188 125 q 96 354 96 280 m 158 358 q 171 305 158 329 q 208 263 183 281 q 254 235 232 245 q 307 210 275 224 q 353 189 339 196 q 374 182 367 182 q 427 229 396 182 q 457 334 457 277 q 444 388 457 364 q 406 431 431 412 q 359 460 380 449 q 307 485 338 471 q 262 504 275 498 q 241 513 249 512 q 187 464 216 513 q 158 358 158 415 z "},"":{"ha":694,"x_min":139,"x_max":554,"o":"m 139 842 q 160 895 139 873 q 211 916 182 916 q 262 894 239 916 q 285 842 285 872 q 262 790 285 811 q 211 770 239 770 q 159 791 179 770 q 139 842 139 812 m 408 842 q 431 895 408 873 q 482 916 453 916 q 533 895 511 916 q 554 842 554 873 q 532 790 554 811 q 482 770 510 770 q 429 791 450 770 q 408 842 408 812 z "},"":{"ha":1543,"x_min":77,"x_max":1464,"o":"m 77 347 q 174 720 77 551 q 430 980 272 888 q 771 1072 589 1072 q 1036 1016 909 1072 q 1257 864 1162 960 q 1408 633 1352 768 q 1464 347 1464 497 q 1408 60 1464 196 q 1257 -171 1352 -75 q 1035 -322 1162 -267 q 769 -378 907 -378 q 505 -321 632 -378 q 283 -170 378 -265 q 133 62 189 -74 q 77 347 77 197 m 132 346 q 321 -129 132 65 q 768 -322 510 -322 q 1087 -234 941 -322 q 1321 8 1234 -146 q 1409 347 1409 163 q 1320 688 1409 533 q 1086 930 1232 843 q 772 1017 940 1017 q 455 930 602 1017 q 220 687 309 843 q 132 346 132 532 m 385 332 q 503 588 385 481 q 782 694 621 694 q 979 618 893 694 l 981 618 q 1063 693 1048 693 q 1079 664 1080 693 l 1079 436 q 1069 407 1079 416 q 1039 414 1050 393 q 1034 439 1039 418 q 1013 497 1029 460 q 973 568 997 534 q 903 627 949 602 q 800 652 857 652 q 741 646 771 652 q 670 620 710 640 q 600 567 629 600 q 549 473 570 534 q 528 334 528 412 q 549 193 528 253 q 600 99 570 132 q 669 45 629 65 q 740 19 708 25 q 802 12 771 12 q 963 68 895 12 q 1042 215 1032 125 q 1062 247 1046 247 q 1079 221 1079 248 q 999 53 1079 136 q 783 -31 920 -31 q 501 77 618 -31 q 385 332 385 184 z "},"":{"ha":616,"x_min":57,"x_max":608,"o":"m 57 603 q 142 696 57 661 q 375 733 227 730 l 375 796 q 341 976 375 920 q 267 1032 307 1032 q 190 998 225 1032 q 139 896 154 964 q 161 897 146 897 q 207 879 188 897 q 225 835 225 861 q 207 790 225 808 q 161 771 189 771 q 136 775 149 771 q 110 797 123 779 q 97 843 97 814 q 142 992 97 921 q 271 1064 187 1064 q 407 999 342 1064 q 472 803 472 935 l 472 599 q 475 579 472 587 q 490 565 478 571 q 524 558 501 558 q 565 568 555 559 q 574 597 574 576 l 574 632 l 608 632 l 608 600 q 581 534 608 553 q 461 514 554 515 l 443 514 q 405 527 416 515 q 386 570 393 538 q 237 505 337 506 q 57 603 57 506 m 64 449 q 90 465 64 466 l 521 465 q 551 450 551 465 q 521 433 551 433 l 92 433 q 64 449 64 433 m 167 603 q 192 556 167 574 q 253 538 216 538 q 323 553 290 538 q 368 595 355 568 q 375 643 375 610 l 375 704 q 225 674 283 701 q 167 603 167 648 z "},"":{"ha":770,"x_min":157,"x_max":690,"o":"m 157 336 q 179 361 157 345 q 284 450 237 402 q 355 535 330 498 q 398 604 380 572 q 428 651 416 635 q 446 668 439 668 q 458 657 458 668 q 440 597 458 642 q 372 477 421 553 q 257 335 322 401 q 367 201 318 275 q 437 78 416 126 q 458 16 458 31 q 446 3 458 3 q 422 28 430 3 q 180 309 336 195 q 157 336 157 326 m 428 297 q 408 312 428 297 q 387 335 387 328 q 402 354 387 342 q 444 388 416 367 q 503 439 471 410 q 575 524 534 469 q 653 644 616 578 q 676 668 665 668 q 690 657 690 668 q 672 597 690 642 q 603 477 653 553 q 488 335 553 401 q 598 201 549 275 q 669 78 648 126 q 690 16 690 31 q 676 3 690 3 q 653 28 661 3 q 537 195 604 123 q 428 297 469 267 z "},"":{"ha":926,"x_min":78,"x_max":847,"o":"m 122 439 q 78 467 78 439 q 118 494 78 494 l 804 494 q 838 485 829 494 q 847 449 847 475 l 847 170 q 819 126 847 127 q 791 165 791 126 l 791 439 l 122 439 z "},"":{"ha":462,"x_min":14,"x_max":383,"o":"m 14 258 l 14 340 l 383 340 l 383 258 l 14 258 z "},"":{"ha":1543,"x_min":77,"x_max":1464,"o":"m 77 347 q 174 720 77 551 q 430 980 272 888 q 771 1072 589 1072 q 1036 1016 909 1072 q 1257 864 1162 960 q 1408 633 1352 768 q 1464 347 1464 497 q 1408 60 1464 196 q 1257 -171 1352 -75 q 1035 -322 1162 -267 q 769 -378 907 -378 q 505 -321 632 -378 q 283 -170 378 -265 q 133 62 189 -74 q 77 347 77 197 m 132 346 q 321 -129 132 65 q 768 -322 510 -322 q 1087 -234 941 -322 q 1321 8 1234 -146 q 1409 347 1409 163 q 1320 688 1409 533 q 1086 930 1232 843 q 772 1017 940 1017 q 455 930 602 1017 q 220 687 309 843 q 132 346 132 532 m 336 0 l 336 43 l 354 43 q 458 55 436 43 q 479 109 479 66 l 479 555 q 458 609 479 598 q 353 621 436 621 l 336 621 l 336 664 l 708 664 q 972 608 886 664 q 1059 485 1059 551 q 1010 396 1059 437 q 864 329 962 354 q 928 299 903 315 q 967 258 953 283 q 987 213 982 232 q 1001 154 993 195 q 1017 87 1010 113 q 1093 1 1039 1 q 1140 19 1121 1 q 1166 59 1160 37 q 1177 102 1173 81 q 1181 125 1181 123 q 1196 135 1186 134 q 1213 111 1213 135 q 1208 76 1213 96 q 1191 30 1203 56 q 1152 -13 1179 4 q 1088 -31 1125 -31 q 925 7 986 -31 q 865 135 864 45 l 865 192 q 825 286 865 254 q 717 317 785 317 l 599 317 l 599 109 q 622 54 599 66 q 729 43 644 43 l 742 43 l 742 0 q 539 4 639 4 q 336 0 439 4 m 599 347 l 703 347 q 759 349 736 347 q 814 358 782 350 q 867 379 847 366 q 901 420 886 393 q 916 485 916 447 q 866 592 916 563 q 717 621 817 621 l 661 621 q 609 608 620 621 q 599 558 599 596 l 599 347 z "},"":{"ha":694,"x_min":96,"x_max":596,"o":"m 96 901 l 96 946 l 596 946 l 596 901 l 96 901 z "},"":{"ha":462,"x_min":77,"x_max":385,"o":"m 77 794 q 122 903 77 858 q 231 949 167 949 q 340 903 296 949 q 385 796 385 857 q 339 687 385 732 q 231 642 293 642 q 121 687 165 642 q 77 794 77 733 m 161 865 q 147 850 161 865 q 132 794 132 836 q 161 725 132 753 q 231 697 191 697 q 299 725 271 697 q 328 794 328 753 q 298 865 328 836 q 231 893 269 893 q 161 865 191 893 z "},"":{"ha":1080,"x_min":78,"x_max":1000,"o":"m 78 28 q 117 56 78 54 l 511 56 l 511 435 l 119 435 q 78 463 78 435 q 119 490 78 490 l 511 490 l 511 882 q 539 923 511 923 q 567 882 567 924 l 567 490 l 958 490 q 1000 463 1000 490 q 958 435 1000 435 l 567 435 l 567 56 l 958 56 q 1000 28 1000 56 q 960 0 1000 0 l 119 0 q 78 28 78 0 z "},"":{"ha":694,"x_min":297,"x_max":554,"o":"m 297 708 q 389 798 334 744 q 473 878 455 864 q 505 892 490 892 q 540 875 526 892 q 554 840 554 859 q 551 826 554 832 q 545 814 549 819 q 535 805 542 810 q 526 798 529 800 q 515 792 522 796 q 505 786 507 787 q 318 681 323 683 l 297 708 z "},"":{"ha":770,"x_min":43,"x_max":742,"o":"m 43 -228 l 57 -228 q 137 -215 122 -228 q 151 -157 151 -203 l 151 475 q 134 540 151 528 q 62 555 117 553 l 43 555 l 43 597 l 249 612 l 249 164 q 251 109 249 128 q 264 64 253 89 q 301 28 275 39 q 370 17 326 17 q 485 70 432 17 q 538 241 538 123 q 537 259 538 247 q 536 277 536 271 l 536 486 q 515 542 535 529 q 436 555 494 555 l 429 555 l 429 597 l 633 612 l 633 115 q 653 56 633 69 q 734 43 673 43 l 742 43 l 742 0 l 541 -16 l 541 107 q 361 -16 485 -15 q 249 3 302 -16 l 249 -165 q 266 -217 249 -205 q 349 -228 282 -228 l 355 -228 l 355 -271 q 195 -267 275 -267 l 189 -267 q 43 -271 124 -267 l 43 -228 z "},"":{"ha":848,"x_min":77,"x_max":807,"o":"m 77 643 q 97 748 77 694 q 158 851 117 802 q 273 932 199 901 q 441 964 347 964 l 761 964 q 807 936 807 964 q 764 908 807 908 l 693 908 l 693 -215 l 758 -215 q 807 -243 807 -215 q 766 -271 807 -271 l 412 -271 q 372 -243 372 -271 q 412 -214 372 -214 q 419 -214 415 -214 q 424 -215 422 -215 l 486 -215 l 486 319 q 195 415 313 328 q 77 643 77 503 m 542 -215 l 637 -215 l 637 908 l 542 908 l 542 -215 z "},"":{"ha":386,"x_min":118,"x_max":264,"o":"m 139 285 q 129 296 139 285 q 118 336 118 307 q 139 387 118 366 q 192 408 160 408 q 243 388 222 408 q 264 336 264 368 q 242 283 264 304 q 192 262 220 262 q 139 285 160 262 z "},"":{"ha":616,"x_min":143,"x_max":471,"o":"m 143 -252 l 160 -252 q 320 -235 267 -252 q 374 -175 374 -218 q 347 -124 374 -147 q 260 -98 321 -102 l 260 0 l 357 0 l 357 -75 q 471 -175 471 -102 q 204 -283 471 -283 l 143 -283 l 143 -252 z "},"":{"ha":616,"x_min":37,"x_max":576,"o":"m 37 779 q 117 981 37 899 q 307 1064 197 1064 q 496 981 416 1064 q 576 779 576 899 q 499 585 576 665 q 307 505 421 505 q 115 586 193 505 q 37 779 37 667 m 64 449 q 89 465 64 466 l 519 465 q 551 450 551 465 q 519 433 551 433 l 92 433 q 64 449 64 433 m 154 783 q 155 712 154 737 q 169 648 157 686 q 204 586 180 610 q 307 542 245 541 q 415 590 372 542 q 461 778 461 643 l 461 808 q 451 916 461 873 q 410 990 441 958 q 307 1032 368 1031 q 197 982 241 1032 q 167 924 178 958 q 155 867 157 890 q 154 800 154 843 l 154 783 z "},"":{"ha":770,"x_min":79,"x_max":612,"o":"m 92 3 q 79 15 79 3 q 96 70 79 28 q 162 189 113 111 q 282 336 212 267 q 172 470 221 396 q 101 592 122 545 q 79 656 79 640 q 92 668 79 668 q 115 644 102 668 q 233 476 165 547 q 341 374 300 404 q 382 336 382 345 q 367 317 382 330 q 323 282 351 304 q 263 229 296 260 q 190 145 231 199 q 115 28 150 92 q 92 3 102 3 m 323 3 q 310 15 310 3 q 327 70 310 28 q 393 188 343 111 q 513 336 443 265 q 402 470 452 396 q 331 592 353 545 q 310 656 310 640 q 323 668 310 668 q 347 644 334 668 q 465 476 397 547 q 572 374 532 404 q 612 336 612 345 q 597 317 612 330 q 554 282 582 304 q 494 229 526 260 q 422 145 463 199 q 347 28 382 92 q 323 3 334 3 z "},"":{"ha":655,"x_min":77,"x_max":578,"o":"m 77 -96 q 88 -30 77 -60 q 112 15 100 0 q 149 52 123 29 q 182 83 175 75 q 290 382 290 199 l 290 403 q 309 435 289 435 q 326 397 327 435 l 326 389 q 309 206 326 290 q 236 39 292 122 q 212 4 219 16 q 199 -37 205 -8 q 193 -106 193 -65 q 194 -149 193 -134 q 201 -187 195 -164 q 219 -222 207 -210 q 254 -244 231 -235 q 311 -254 278 -254 q 525 -160 457 -254 l 518 -160 q 467 -140 484 -160 q 450 -96 450 -121 q 468 -51 450 -68 q 513 -33 486 -33 q 556 -49 535 -33 q 578 -102 578 -65 q 499 -234 578 -182 q 313 -285 421 -285 q 192 -266 242 -285 q 119 -217 142 -248 q 86 -157 96 -186 q 77 -96 77 -127 m 235 621 q 257 673 235 652 q 309 694 279 694 q 359 674 338 694 q 380 621 380 653 q 358 569 380 590 q 309 549 336 549 q 256 570 277 549 q 235 621 235 591 z "},"":{"ha":1042,"x_min":45,"x_max":996,"o":"m 45 0 l 45 43 q 200 136 168 45 l 488 966 q 499 989 493 983 q 521 994 505 994 q 534 993 529 994 q 543 987 539 991 q 547 979 546 982 q 553 966 549 977 l 852 98 q 886 53 863 64 q 971 43 908 43 l 996 43 l 996 0 q 814 4 908 4 q 614 0 664 4 l 614 43 q 729 85 729 43 q 725 104 729 87 l 652 317 l 309 317 l 244 135 q 241 114 241 130 q 269 64 241 85 q 346 43 296 43 l 346 0 q 186 4 212 4 q 45 0 140 4 m 323 359 l 636 359 l 479 811 l 323 359 m 325 1146 q 338 1181 325 1164 q 372 1197 351 1197 q 414 1181 386 1197 q 606 1063 441 1165 l 590 1029 q 383 1093 581 1032 q 355 1103 363 1099 q 335 1118 346 1107 q 325 1146 325 1129 z "},"":{"ha":1042,"x_min":45,"x_max":996,"o":"m 45 0 l 45 43 q 200 136 168 45 l 488 966 q 499 989 493 983 q 521 994 505 994 q 534 993 529 994 q 543 987 539 991 q 547 979 546 982 q 553 966 549 977 l 852 98 q 886 53 863 64 q 971 43 908 43 l 996 43 l 996 0 q 814 4 908 4 q 614 0 664 4 l 614 43 q 729 85 729 43 q 725 104 729 87 l 652 317 l 309 317 l 244 135 q 241 114 241 130 q 269 64 241 85 q 346 43 296 43 l 346 0 q 186 4 212 4 q 45 0 140 4 m 323 359 l 636 359 l 479 811 l 323 359 m 397 1063 q 619 1196 606 1192 q 631 1197 623 1197 q 664 1180 650 1197 q 677 1145 677 1164 q 619 1095 677 1105 q 411 1030 430 1036 l 397 1063 z "},"":{"ha":1042,"x_min":45,"x_max":996,"o":"m 45 0 l 45 43 q 200 136 168 45 l 488 966 q 499 989 493 983 q 521 994 505 994 q 534 993 529 994 q 543 987 539 991 q 547 979 546 982 q 553 966 549 977 l 852 98 q 886 53 863 64 q 971 43 908 43 l 996 43 l 996 0 q 814 4 908 4 q 614 0 664 4 l 614 43 q 729 85 729 43 q 725 104 729 87 l 652 317 l 309 317 l 244 135 q 241 114 241 130 q 269 64 241 85 q 346 43 296 43 l 346 0 q 186 4 212 4 q 45 0 140 4 m 323 359 l 636 359 l 479 811 l 323 359 m 335 1057 l 519 1253 l 521 1253 l 705 1057 l 682 1034 l 681 1034 l 521 1179 l 519 1179 l 359 1034 l 358 1034 l 335 1057 z "},"":{"ha":1042,"x_min":45,"x_max":996,"o":"m 45 0 l 45 43 q 200 136 168 45 l 488 966 q 499 989 493 983 q 521 994 505 994 q 534 993 529 994 q 543 987 539 991 q 547 979 546 982 q 553 966 549 977 l 852 98 q 886 53 863 64 q 971 43 908 43 l 996 43 l 996 0 q 814 4 908 4 q 614 0 664 4 l 614 43 q 729 85 729 43 q 725 104 729 87 l 652 317 l 309 317 l 244 135 q 241 114 241 130 q 269 64 241 85 q 346 43 296 43 l 346 0 q 186 4 212 4 q 45 0 140 4 m 250 1143 q 266 1160 253 1145 q 281 1178 278 1175 q 297 1194 285 1182 q 314 1209 309 1206 q 331 1220 319 1213 q 353 1230 343 1227 q 376 1235 363 1232 q 403 1238 389 1238 q 526 1212 440 1238 q 652 1186 612 1186 q 766 1239 711 1186 l 790 1217 q 773 1197 787 1214 q 754 1176 758 1179 q 737 1159 750 1172 q 716 1142 724 1145 q 695 1132 708 1139 q 668 1123 682 1125 q 637 1121 654 1121 q 513 1147 599 1121 q 389 1173 427 1173 q 273 1121 329 1173 l 250 1143 m 323 359 l 636 359 l 479 811 l 323 359 z "},"":{"ha":1042,"x_min":45,"x_max":996,"o":"m 45 0 l 45 43 q 200 136 168 45 l 488 966 q 499 989 493 983 q 521 994 505 994 q 534 993 529 994 q 543 987 539 991 q 547 979 546 982 q 553 966 549 977 l 852 98 q 886 53 863 64 q 971 43 908 43 l 996 43 l 996 0 q 814 4 908 4 q 614 0 664 4 l 614 43 q 729 85 729 43 q 725 104 729 87 l 652 317 l 309 317 l 244 135 q 241 114 241 130 q 269 64 241 85 q 346 43 296 43 l 346 0 q 186 4 212 4 q 45 0 140 4 m 313 1129 q 333 1181 313 1158 q 385 1203 354 1203 q 435 1181 412 1203 q 458 1129 458 1160 q 435 1078 458 1099 q 385 1057 412 1057 q 333 1079 354 1057 q 313 1129 313 1101 m 323 359 l 636 359 l 479 811 l 323 359 m 582 1129 q 604 1182 582 1161 q 654 1203 625 1203 q 707 1181 686 1203 q 728 1131 728 1158 q 707 1079 728 1101 q 656 1057 686 1057 q 605 1078 628 1057 q 582 1129 582 1099 z "},"":{"ha":1042,"x_min":45,"x_max":996,"o":"m 45 0 l 45 43 q 119 53 90 44 q 166 83 149 61 q 190 119 183 104 q 210 168 197 134 l 457 878 q 472 923 461 893 q 488 968 484 953 q 387 1117 388 1006 q 424 1222 387 1175 q 519 1268 460 1268 q 615 1222 578 1268 q 653 1117 653 1177 q 553 968 653 1007 l 844 125 q 885 55 865 66 q 990 43 905 43 l 996 43 l 996 0 q 818 4 907 4 q 614 0 716 4 l 614 43 l 616 43 q 726 87 726 43 q 652 317 726 98 l 307 317 q 281 239 299 289 q 252 156 262 189 q 241 113 241 123 q 266 66 241 87 q 345 43 290 45 l 345 0 q 182 4 264 4 q 45 0 114 4 m 322 359 l 636 359 l 479 811 l 322 359 m 422 1118 q 452 1022 422 1049 q 521 996 482 996 q 589 1022 559 996 q 618 1116 618 1048 q 588 1211 618 1185 q 519 1238 558 1238 q 452 1211 481 1238 q 422 1118 422 1185 z "},"":{"ha":1254,"x_min":45,"x_max":1214,"o":"m 45 0 l 45 43 q 119 53 90 44 q 166 83 149 62 q 193 120 184 104 q 212 168 201 135 l 478 904 l 358 905 l 358 949 l 1137 949 l 1177 636 l 1140 636 q 1127 724 1133 693 q 1110 791 1121 755 q 1082 844 1099 827 q 1038 878 1065 861 q 974 900 1011 895 q 882 905 936 905 l 785 905 q 774 906 782 905 q 761 907 766 907 q 705 894 716 907 q 693 851 693 882 l 693 478 l 798 478 q 850 480 831 478 q 894 490 869 482 q 932 517 918 497 q 950 567 946 536 q 954 639 954 591 l 989 639 l 989 272 l 954 272 l 954 288 q 920 408 954 382 q 798 435 886 435 l 693 435 l 693 94 q 710 52 694 61 q 765 43 725 43 l 890 43 q 979 51 941 43 q 1044 69 1017 58 q 1092 103 1071 79 q 1124 146 1112 127 q 1148 207 1136 165 q 1164 276 1160 249 q 1179 358 1169 302 l 1214 358 l 1156 0 l 471 0 l 471 43 l 482 43 q 558 53 541 43 q 578 98 576 62 l 578 435 l 354 435 q 319 340 350 424 q 266 189 289 256 q 243 113 243 122 q 267 67 243 87 q 345 43 290 46 l 345 0 q 183 4 264 4 q 45 0 128 4 m 370 478 l 578 478 l 578 832 q 577 859 578 850 q 572 877 576 867 q 555 893 567 888 q 522 901 543 899 l 370 478 z "},"":{"ha":1002,"x_min":77,"x_max":925,"o":"m 77 475 q 222 834 77 688 q 561 979 367 979 q 817 860 705 979 q 908 978 892 978 l 909 978 q 913 977 911 977 q 925 947 925 972 l 925 611 q 903 583 925 583 q 888 589 896 583 q 881 610 884 593 q 870 660 878 627 q 850 725 863 693 q 738 880 810 825 q 575 936 665 936 q 389 877 473 936 q 264 725 304 818 q 220 473 219 623 q 246 277 220 362 q 311 143 272 192 q 401 63 350 94 q 495 22 453 32 q 578 12 538 12 q 789 99 701 12 q 889 313 878 186 q 890 321 889 315 q 890 329 890 326 q 892 336 890 332 q 895 342 893 340 q 899 346 896 345 q 908 347 903 347 q 925 318 925 347 q 910 231 925 279 q 862 128 895 182 q 764 31 829 74 q 612 -28 699 -12 l 612 -75 q 652 -84 632 -78 q 700 -115 672 -90 q 728 -175 728 -139 q 653 -260 728 -236 q 418 -283 578 -283 l 399 -283 l 399 -252 l 415 -252 q 574 -236 518 -252 q 629 -176 629 -221 q 604 -124 629 -147 q 515 -98 578 -102 l 515 -28 q 199 139 321 -5 q 77 475 77 284 z "},"":{"ha":944,"x_min":46,"x_max":905,"o":"m 46 0 l 46 43 l 79 43 q 172 55 155 43 q 189 109 189 68 l 189 836 q 172 889 189 876 q 79 901 154 901 l 46 901 l 46 945 l 828 945 l 867 632 l 832 632 q 810 757 823 711 q 767 838 798 803 q 688 887 737 873 q 559 901 639 901 l 380 901 q 323 891 333 901 q 313 846 313 882 l 313 513 l 437 513 q 560 546 533 513 q 587 675 587 579 l 623 675 l 623 307 l 587 307 q 560 435 587 401 q 437 469 533 469 l 313 469 l 313 98 q 323 53 313 62 q 380 43 334 43 l 566 43 q 669 51 625 43 q 743 78 713 58 q 794 119 774 97 q 830 182 815 142 q 853 260 844 222 q 871 358 861 297 l 905 358 l 847 0 l 46 0 m 326 1145 q 338 1180 326 1164 q 372 1197 351 1197 q 409 1184 386 1197 q 606 1063 432 1171 l 591 1030 q 384 1095 581 1033 q 362 1101 367 1100 q 346 1109 357 1103 q 330 1124 334 1115 q 326 1145 326 1133 z "},"":{"ha":944,"x_min":46,"x_max":905,"o":"m 46 0 l 46 43 l 79 43 q 172 55 155 43 q 189 109 189 68 l 189 836 q 172 889 189 876 q 79 901 154 901 l 46 901 l 46 945 l 828 945 l 867 632 l 832 632 q 810 757 823 711 q 767 838 798 803 q 688 887 737 873 q 559 901 639 901 l 380 901 q 323 891 333 901 q 313 846 313 882 l 313 513 l 437 513 q 560 546 533 513 q 587 675 587 579 l 623 675 l 623 307 l 587 307 q 560 435 587 401 q 437 469 533 469 l 313 469 l 313 98 q 323 53 313 62 q 380 43 334 43 l 566 43 q 669 51 625 43 q 743 78 713 58 q 794 119 774 97 q 830 182 815 142 q 853 260 844 222 q 871 358 861 297 l 905 358 l 847 0 l 46 0 m 417 1063 q 639 1196 625 1192 q 650 1197 643 1197 q 684 1180 670 1197 q 697 1145 697 1164 q 639 1095 697 1105 q 431 1030 450 1036 l 417 1063 z "},"":{"ha":944,"x_min":46,"x_max":905,"o":"m 46 0 l 46 43 l 79 43 q 172 55 155 43 q 189 109 189 68 l 189 836 q 172 889 189 876 q 79 901 154 901 l 46 901 l 46 945 l 828 945 l 867 632 l 832 632 q 810 757 823 711 q 767 838 798 803 q 688 887 737 873 q 559 901 639 901 l 380 901 q 323 891 333 901 q 313 846 313 882 l 313 513 l 437 513 q 560 546 533 513 q 587 675 587 579 l 623 675 l 623 307 l 587 307 q 560 435 587 401 q 437 469 533 469 l 313 469 l 313 98 q 323 53 313 62 q 380 43 334 43 l 566 43 q 669 51 625 43 q 743 78 713 58 q 794 119 774 97 q 830 182 815 142 q 853 260 844 222 q 871 358 861 297 l 905 358 l 847 0 l 46 0 m 296 1057 l 482 1253 l 484 1253 l 668 1057 l 643 1034 l 484 1179 l 482 1179 l 322 1034 l 321 1034 l 296 1057 z "},"":{"ha":944,"x_min":46,"x_max":905,"o":"m 46 0 l 46 43 l 79 43 q 172 55 155 43 q 189 109 189 68 l 189 836 q 172 889 189 876 q 79 901 154 901 l 46 901 l 46 945 l 828 945 l 867 632 l 832 632 q 810 757 823 711 q 767 838 798 803 q 688 887 737 873 q 559 901 639 901 l 380 901 q 323 891 333 901 q 313 846 313 882 l 313 513 l 437 513 q 560 546 533 513 q 587 675 587 579 l 623 675 l 623 307 l 587 307 q 560 435 587 401 q 437 469 533 469 l 313 469 l 313 98 q 323 53 313 62 q 380 43 334 43 l 566 43 q 669 51 625 43 q 743 78 713 58 q 794 119 774 97 q 830 182 815 142 q 853 260 844 222 q 871 358 861 297 l 905 358 l 847 0 l 46 0 m 274 1129 q 295 1182 274 1161 q 346 1203 317 1203 q 397 1181 374 1203 q 420 1129 420 1160 q 397 1078 420 1099 q 346 1057 374 1057 q 294 1079 314 1057 q 274 1129 274 1100 m 543 1129 q 566 1182 543 1161 q 617 1203 588 1203 q 668 1182 646 1203 q 689 1129 689 1161 q 667 1078 689 1099 q 617 1057 645 1057 q 564 1079 585 1057 q 543 1129 543 1100 z "},"":{"ha":501,"x_min":39,"x_max":463,"o":"m 39 0 l 39 43 l 75 43 q 171 55 153 43 q 189 109 189 68 l 189 840 q 171 893 189 880 q 75 905 153 905 l 39 905 l 39 949 q 252 945 87 945 q 463 949 414 945 l 463 905 l 427 905 q 331 893 349 905 q 313 840 313 880 l 313 109 q 331 56 313 68 q 427 43 349 43 l 463 43 l 463 0 q 250 4 414 4 q 39 0 87 4 m 74 1146 q 87 1181 74 1164 q 121 1197 100 1197 l 123 1197 q 160 1182 134 1197 q 353 1063 186 1166 l 339 1029 q 134 1093 327 1032 q 104 1103 114 1099 q 84 1118 94 1107 q 74 1146 74 1129 z "},"":{"ha":501,"x_min":39,"x_max":463,"o":"m 39 0 l 39 43 l 75 43 q 171 55 153 43 q 189 109 189 68 l 189 840 q 171 893 189 880 q 75 905 153 905 l 39 905 l 39 949 q 252 945 87 945 q 463 949 414 945 l 463 905 l 427 905 q 331 893 349 905 q 313 840 313 880 l 313 109 q 331 56 313 68 q 427 43 349 43 l 463 43 l 463 0 q 250 4 414 4 q 39 0 87 4 m 113 1063 q 220 1129 157 1090 q 345 1197 328 1197 q 379 1180 366 1197 q 392 1146 392 1164 q 381 1117 392 1129 q 362 1102 371 1105 q 334 1093 353 1099 q 127 1029 140 1032 l 113 1063 z "},"":{"ha":501,"x_min":39,"x_max":463,"o":"m 39 0 l 39 43 l 75 43 q 171 55 153 43 q 189 109 189 68 l 189 840 q 171 893 189 880 q 75 905 153 905 l 39 905 l 39 949 q 252 945 87 945 q 463 949 414 945 l 463 905 l 427 905 q 331 893 349 905 q 313 840 313 880 l 313 109 q 331 56 313 68 q 427 43 349 43 l 463 43 l 463 0 q 250 4 414 4 q 39 0 87 4 m 64 1059 l 249 1253 l 250 1253 l 435 1057 l 410 1034 l 250 1179 l 249 1179 l 89 1034 l 64 1059 z "},"":{"ha":501,"x_min":39,"x_max":463,"o":"m 39 0 l 39 43 l 75 43 q 171 55 153 43 q 189 109 189 68 l 189 840 q 171 893 189 880 q 75 905 153 905 l 39 905 l 39 949 q 252 945 87 945 q 463 949 414 945 l 463 905 l 427 905 q 331 893 349 905 q 313 840 313 880 l 313 109 q 331 56 313 68 q 427 43 349 43 l 463 43 l 463 0 q 250 4 414 4 q 39 0 87 4 m 41 1129 q 64 1182 41 1161 q 115 1203 86 1203 q 166 1182 144 1203 q 187 1129 187 1161 q 165 1078 187 1099 q 115 1057 143 1057 q 62 1079 83 1057 q 41 1129 41 1100 m 311 1129 q 333 1182 311 1161 q 383 1203 354 1203 q 434 1181 411 1203 q 457 1129 457 1160 q 435 1078 457 1099 q 385 1057 412 1057 q 332 1079 353 1057 q 311 1129 311 1100 z "},"":{"ha":1061,"x_min":47,"x_max":982,"o":"m 47 0 l 47 43 l 62 43 q 168 54 144 43 q 191 106 191 65 l 191 444 q 154 444 178 444 q 117 443 129 443 q 63 446 74 443 q 49 460 53 449 l 49 467 q 82 486 49 486 q 100 487 89 486 q 118 488 111 488 q 154 487 130 488 q 191 486 178 486 l 191 843 q 168 894 191 883 q 62 905 144 905 l 47 905 l 47 949 l 529 949 q 761 890 668 949 q 923 711 864 827 q 982 467 982 596 q 874 155 982 288 q 604 3 766 22 q 536 0 582 0 l 47 0 m 311 93 q 328 50 313 57 q 408 43 343 43 l 510 43 q 775 174 688 43 q 843 469 843 272 q 771 778 843 675 q 510 905 682 905 l 486 905 q 448 906 473 905 q 408 907 422 907 l 395 907 q 329 899 345 907 q 311 856 313 890 l 311 486 l 542 486 q 572 465 572 484 q 541 444 572 447 l 311 444 l 311 93 z "},"":{"ha":1042,"x_min":46,"x_max":994,"o":"m 46 0 l 46 43 q 128 53 96 43 q 172 81 160 62 q 186 112 183 100 q 189 146 189 125 l 189 871 q 184 895 189 890 q 155 903 179 900 q 86 905 114 905 l 46 905 l 46 949 l 282 949 q 307 946 302 949 q 322 930 313 943 l 812 210 l 812 803 q 810 836 812 824 q 795 867 807 848 q 751 896 783 886 q 669 905 720 905 l 669 949 q 832 945 815 945 q 994 949 848 945 l 994 905 q 912 896 944 905 q 869 867 880 886 q 854 836 857 848 q 851 803 851 823 l 851 36 q 848 7 851 14 q 832 0 846 0 q 808 18 823 0 l 241 851 q 228 868 236 859 l 228 146 q 231 112 228 125 q 245 81 233 100 q 289 53 257 62 q 371 43 321 43 l 371 0 q 209 4 225 4 q 46 0 192 4 m 250 1143 q 266 1160 253 1145 q 281 1178 278 1175 q 297 1194 285 1182 q 314 1209 309 1206 q 331 1220 319 1213 q 353 1230 343 1227 q 376 1235 363 1232 q 403 1238 389 1238 q 526 1212 440 1238 q 652 1186 612 1186 q 766 1239 711 1186 l 790 1217 q 773 1197 787 1214 q 754 1176 758 1179 q 737 1159 750 1172 q 716 1142 724 1145 q 695 1132 708 1139 q 668 1123 682 1125 q 637 1121 654 1121 q 513 1147 599 1121 q 389 1173 427 1173 q 273 1121 329 1173 l 250 1143 z "},"":{"ha":1079,"x_min":78,"x_max":1002,"o":"m 78 471 q 214 831 78 683 q 539 979 350 979 q 866 831 730 979 q 1002 471 1002 682 q 865 115 1002 261 q 539 -31 729 -31 q 215 115 352 -31 q 78 471 78 260 m 221 490 q 252 263 221 361 q 331 111 282 164 q 433 31 380 57 q 541 5 486 5 q 645 31 593 5 q 747 109 697 56 q 827 260 796 161 q 859 490 859 359 q 837 674 859 592 q 781 805 815 755 q 704 887 747 854 q 619 932 660 920 q 539 945 578 945 q 439 923 490 945 q 337 853 389 901 q 254 712 286 806 q 221 490 221 618 m 382 1145 q 395 1180 382 1164 q 429 1197 408 1197 q 466 1184 443 1197 q 663 1063 489 1171 l 648 1030 q 441 1095 638 1033 q 419 1101 424 1100 q 402 1109 414 1103 q 387 1124 391 1115 q 382 1145 382 1133 z "},"":{"ha":1079,"x_min":78,"x_max":1002,"o":"m 78 471 q 214 831 78 683 q 539 979 350 979 q 866 831 730 979 q 1002 471 1002 682 q 865 115 1002 261 q 539 -31 729 -31 q 215 115 352 -31 q 78 471 78 260 m 221 490 q 252 263 221 361 q 331 111 282 164 q 433 31 380 57 q 541 5 486 5 q 645 31 593 5 q 747 109 697 56 q 827 260 796 161 q 859 490 859 359 q 837 674 859 592 q 781 805 815 755 q 704 887 747 854 q 619 932 660 920 q 539 945 578 945 q 439 923 490 945 q 337 853 389 901 q 254 712 286 806 q 221 490 221 618 m 417 1063 q 639 1196 625 1192 q 650 1197 643 1197 q 684 1180 670 1197 q 697 1145 697 1164 q 639 1095 697 1105 q 431 1030 450 1036 l 417 1063 z "},"":{"ha":1079,"x_min":78,"x_max":1002,"o":"m 78 471 q 214 831 78 683 q 539 979 350 979 q 866 831 730 979 q 1002 471 1002 682 q 865 115 1002 261 q 539 -31 729 -31 q 215 115 352 -31 q 78 471 78 260 m 221 490 q 252 263 221 361 q 331 111 282 164 q 433 31 380 57 q 541 5 486 5 q 645 31 593 5 q 747 109 697 56 q 827 260 796 161 q 859 490 859 359 q 837 674 859 592 q 781 805 815 755 q 704 887 747 854 q 619 932 660 920 q 539 945 578 945 q 439 923 490 945 q 337 853 389 901 q 254 712 286 806 q 221 490 221 618 m 354 1057 l 354 1059 l 539 1253 l 541 1253 l 725 1059 l 725 1057 l 701 1034 l 700 1034 l 541 1179 l 539 1179 l 379 1034 l 378 1034 l 354 1057 z "},"":{"ha":1079,"x_min":78,"x_max":1002,"o":"m 78 471 q 214 831 78 683 q 539 979 350 979 q 866 831 730 979 q 1002 471 1002 682 q 865 115 1002 261 q 539 -31 729 -31 q 215 115 352 -31 q 78 471 78 260 m 221 490 q 252 263 221 361 q 331 111 282 164 q 433 31 380 57 q 541 5 486 5 q 645 31 593 5 q 747 109 697 56 q 827 260 796 161 q 859 490 859 359 q 837 674 859 592 q 781 805 815 755 q 704 887 747 854 q 619 932 660 920 q 539 945 578 945 q 439 923 490 945 q 337 853 389 901 q 254 712 286 806 q 221 490 221 618 m 269 1141 q 287 1162 272 1144 q 306 1183 301 1179 q 323 1199 310 1186 q 344 1216 336 1213 q 365 1226 351 1219 q 392 1236 378 1234 q 422 1238 406 1238 q 546 1211 464 1238 q 671 1185 628 1185 q 731 1197 707 1185 q 785 1238 755 1208 l 808 1217 q 791 1197 806 1214 q 772 1176 777 1179 q 755 1159 768 1173 q 734 1142 742 1146 q 713 1132 726 1139 q 686 1123 700 1125 q 656 1121 672 1121 q 532 1147 614 1121 q 408 1174 450 1174 q 293 1121 349 1174 l 269 1141 z "},"":{"ha":1079,"x_min":78,"x_max":1002,"o":"m 78 471 q 214 831 78 683 q 539 979 350 979 q 866 831 730 979 q 1002 471 1002 682 q 865 115 1002 261 q 539 -31 729 -31 q 215 115 352 -31 q 78 471 78 260 m 221 490 q 252 263 221 361 q 331 111 282 164 q 433 31 380 57 q 541 5 486 5 q 645 31 593 5 q 747 109 697 56 q 827 260 796 161 q 859 490 859 359 q 837 674 859 592 q 781 805 815 755 q 704 887 747 854 q 619 932 660 920 q 539 945 578 945 q 439 923 490 945 q 337 853 389 901 q 254 712 286 806 q 221 490 221 618 m 332 1129 q 354 1182 332 1161 q 406 1203 376 1203 q 456 1182 435 1203 q 478 1129 478 1161 q 456 1078 478 1099 q 406 1057 433 1057 q 353 1079 374 1057 q 332 1129 332 1100 m 602 1129 q 623 1182 602 1161 q 673 1203 644 1203 q 724 1181 701 1203 q 747 1129 747 1160 q 725 1078 747 1099 q 675 1057 703 1057 q 622 1079 643 1057 q 602 1129 602 1100 z "},"":{"ha":1080,"x_min":77,"x_max":1002,"o":"m 77 471 q 214 832 77 684 q 539 979 351 979 q 802 890 682 979 l 893 1026 l 922 1007 l 829 869 l 829 868 q 957 691 911 794 q 1002 471 1002 587 q 864 113 1002 257 q 539 -31 726 -31 q 277 57 399 -31 l 184 -78 l 155 -58 l 250 81 q 208 123 228 100 q 153 195 187 146 q 97 316 118 244 q 77 471 77 389 m 201 469 q 216 304 201 376 q 246 201 231 232 q 285 134 261 170 l 768 843 q 539 949 665 949 q 372 897 444 949 q 262 775 301 846 q 201 469 201 664 m 310 104 q 539 1 413 1 q 708 53 636 1 q 821 180 781 104 q 878 472 878 289 q 862 641 878 566 q 831 745 846 715 q 791 814 817 775 l 310 106 l 310 104 z "},"":{"ha":1042,"x_min":46,"x_max":994,"o":"m 46 905 l 46 949 q 252 945 95 945 q 456 949 407 945 l 456 905 l 422 905 q 330 893 347 905 q 313 840 313 880 l 313 311 q 338 154 313 218 q 404 62 364 90 q 477 23 444 33 q 542 12 510 12 q 728 96 648 12 q 808 321 808 180 l 808 803 q 806 836 808 824 q 791 867 803 848 q 747 896 779 886 q 665 905 715 905 l 665 949 q 831 945 815 945 q 994 949 844 945 l 994 905 q 912 897 944 905 q 869 868 880 888 q 854 834 857 848 q 851 798 851 821 l 851 353 q 847 257 851 285 q 743 53 829 136 q 539 -31 657 -31 q 293 70 396 -31 q 189 317 189 171 l 189 840 q 172 893 189 880 q 79 905 154 905 l 46 905 m 363 1145 q 376 1180 363 1164 q 410 1197 389 1197 q 446 1184 423 1197 q 643 1063 469 1171 l 628 1030 q 421 1095 618 1033 q 399 1101 404 1100 q 383 1109 395 1103 q 367 1124 371 1115 q 363 1145 363 1133 z "},"":{"ha":1042,"x_min":46,"x_max":994,"o":"m 46 905 l 46 949 q 252 945 95 945 q 456 949 407 945 l 456 905 l 422 905 q 330 893 347 905 q 313 840 313 880 l 313 311 q 338 154 313 218 q 404 62 364 90 q 477 23 444 33 q 542 12 510 12 q 728 96 648 12 q 808 321 808 180 l 808 803 q 806 836 808 824 q 791 867 803 848 q 747 896 779 886 q 665 905 715 905 l 665 949 q 831 945 815 945 q 994 949 844 945 l 994 905 q 912 897 944 905 q 869 868 880 888 q 854 834 857 848 q 851 798 851 821 l 851 353 q 847 257 851 285 q 743 53 829 136 q 539 -31 657 -31 q 293 70 396 -31 q 189 317 189 171 l 189 840 q 172 893 189 880 q 79 905 154 905 l 46 905 m 456 1063 q 677 1196 664 1192 q 689 1197 682 1197 q 722 1180 709 1197 q 736 1145 736 1164 q 677 1095 736 1105 q 469 1030 488 1036 l 456 1063 z "},"":{"ha":1042,"x_min":46,"x_max":994,"o":"m 46 905 l 46 949 q 252 945 95 945 q 456 949 407 945 l 456 905 l 422 905 q 330 893 347 905 q 313 840 313 880 l 313 311 q 338 154 313 218 q 404 62 364 90 q 477 23 444 33 q 542 12 510 12 q 728 96 648 12 q 808 321 808 180 l 808 803 q 806 836 808 824 q 791 867 803 848 q 747 896 779 886 q 665 905 715 905 l 665 949 q 831 945 815 945 q 994 949 844 945 l 994 905 q 912 897 944 905 q 869 868 880 888 q 854 834 857 848 q 851 798 851 821 l 851 353 q 847 257 851 285 q 743 53 829 136 q 539 -31 657 -31 q 293 70 396 -31 q 189 317 189 171 l 189 840 q 172 893 189 880 q 79 905 154 905 l 46 905 m 355 1057 l 541 1253 l 542 1253 l 726 1057 l 703 1034 l 701 1034 l 542 1179 l 541 1179 l 380 1034 l 379 1034 l 355 1057 z "},"":{"ha":1042,"x_min":46,"x_max":994,"o":"m 46 905 l 46 949 q 252 945 95 945 q 456 949 407 945 l 456 905 l 422 905 q 330 893 347 905 q 313 840 313 880 l 313 311 q 338 154 313 218 q 404 62 364 90 q 477 23 444 33 q 542 12 510 12 q 728 96 648 12 q 808 321 808 180 l 808 803 q 806 836 808 824 q 791 867 803 848 q 747 896 779 886 q 665 905 715 905 l 665 949 q 831 945 815 945 q 994 949 844 945 l 994 905 q 912 897 944 905 q 869 868 880 888 q 854 834 857 848 q 851 798 851 821 l 851 353 q 847 257 851 285 q 743 53 829 136 q 539 -31 657 -31 q 293 70 396 -31 q 189 317 189 171 l 189 840 q 172 893 189 880 q 79 905 154 905 l 46 905 m 313 1129 q 333 1181 313 1158 q 385 1203 354 1203 q 435 1181 412 1203 q 458 1129 458 1160 q 435 1078 458 1099 q 385 1057 412 1057 q 333 1079 354 1057 q 313 1129 313 1101 m 582 1129 q 604 1182 582 1161 q 656 1203 627 1203 q 708 1181 688 1203 q 728 1131 728 1160 q 707 1079 728 1101 q 656 1057 686 1057 q 605 1078 628 1057 q 582 1129 582 1099 z "},"":{"ha":1042,"x_min":16,"x_max":1025,"o":"m 16 905 l 16 949 q 196 945 103 945 q 401 949 351 945 l 401 905 q 327 899 350 905 q 304 871 304 892 q 314 847 304 861 l 566 437 l 794 810 q 808 851 808 831 q 789 890 808 875 q 729 905 770 905 l 729 949 q 889 945 838 945 q 1025 949 961 945 l 1025 905 q 847 815 901 905 l 579 379 l 579 111 q 596 56 579 68 q 690 43 614 43 l 722 43 l 722 0 q 519 4 672 4 q 317 0 367 4 l 317 43 l 350 43 q 443 55 425 43 q 460 109 460 68 l 460 379 l 168 854 q 146 884 156 876 q 111 899 136 893 q 40 905 86 905 l 16 905 m 454 1063 q 676 1196 663 1192 q 688 1197 680 1197 q 721 1180 707 1197 q 734 1145 734 1164 q 676 1095 734 1105 q 468 1030 487 1036 l 454 1063 z "},"":{"ha":868,"x_min":49,"x_max":789,"o":"m 49 0 l 49 43 l 71 43 q 168 54 146 43 q 192 102 191 65 l 192 847 q 168 896 191 886 q 69 905 144 905 l 49 905 l 49 949 q 243 945 147 945 l 452 949 l 452 905 l 436 905 q 329 895 350 905 q 309 840 309 884 l 309 766 l 488 766 q 625 742 564 766 q 720 676 685 717 q 771 592 754 636 q 789 507 789 549 q 772 422 789 465 q 722 339 755 379 q 627 273 688 298 q 486 248 566 248 l 309 248 l 309 109 q 331 54 309 66 q 437 43 353 43 l 452 43 l 452 0 q 243 4 347 4 l 233 4 q 49 0 152 4 m 309 290 l 416 290 q 432 290 420 290 q 449 289 443 289 q 598 356 547 289 q 650 508 650 424 q 602 658 650 593 q 475 724 554 724 l 309 724 l 309 290 z "},"":{"ha":694,"x_min":37,"x_max":647,"o":"m 37 0 l 37 43 l 49 43 q 130 54 114 43 q 146 107 146 65 l 146 555 l 37 555 l 37 597 l 146 597 l 146 770 q 164 872 146 829 q 213 938 182 916 q 279 969 244 960 q 354 979 314 979 q 486 932 432 979 q 539 772 539 885 q 531 685 539 721 q 517 632 524 648 q 493 605 510 615 q 473 594 476 595 q 456 591 469 593 q 430 585 444 590 q 400 554 416 579 q 385 488 385 529 q 394 432 385 454 q 422 398 404 410 q 455 382 440 387 q 493 372 471 376 q 524 366 515 368 q 609 300 571 349 q 647 176 647 252 q 599 37 647 89 q 468 -16 551 -16 q 375 22 414 -16 q 332 -12 345 -12 q 315 17 315 -12 l 315 191 q 326 227 315 221 q 350 216 342 235 q 358 157 351 214 q 390 58 366 100 q 467 17 415 17 q 550 51 521 17 q 579 140 579 85 q 560 212 579 182 q 511 258 541 243 q 456 273 498 265 q 392 296 414 281 q 315 450 315 347 q 320 497 315 474 q 337 548 325 519 q 379 596 350 576 q 452 619 408 615 q 464 622 461 621 q 477 631 467 623 q 492 653 488 639 q 500 696 496 667 q 504 770 504 726 q 359 947 504 947 q 280 919 308 947 q 245 859 252 890 q 239 779 239 827 l 239 0 l 207 3 l 138 3 l 37 0 z "},"":{"ha":694,"x_min":58,"x_max":685,"o":"m 58 132 q 197 313 58 250 q 453 363 281 353 l 453 414 q 408 546 453 500 q 306 591 363 591 q 155 528 204 591 q 212 506 197 526 q 227 464 227 485 q 209 418 227 436 q 163 400 192 400 q 117 417 135 400 q 98 465 98 435 q 160 578 98 533 q 309 623 221 623 q 498 546 422 623 q 534 492 522 522 q 547 441 546 461 q 549 382 549 421 l 549 104 q 551 83 549 96 q 567 52 554 69 q 600 35 579 35 q 650 123 650 35 l 650 201 l 685 201 l 685 123 q 646 21 685 50 q 571 -8 607 -8 q 496 26 525 -8 q 463 106 467 60 q 394 19 441 53 q 281 -16 346 -16 q 183 -3 231 -16 q 97 44 136 9 q 58 132 58 79 m 165 134 q 202 49 165 82 q 290 16 239 16 q 401 61 349 16 q 453 195 453 106 l 453 334 q 232 267 299 328 q 165 134 165 205 m 216 840 q 230 875 216 859 q 264 892 243 892 q 298 877 279 892 q 393 786 317 861 q 473 708 441 739 l 452 681 q 266 785 424 694 l 257 789 q 247 795 250 793 q 236 803 243 798 q 226 813 229 808 q 219 825 222 818 q 216 840 216 832 z "},"":{"ha":694,"x_min":58,"x_max":685,"o":"m 58 132 q 197 313 58 250 q 453 363 281 353 l 453 414 q 408 546 453 500 q 306 591 363 591 q 155 528 204 591 q 212 506 197 526 q 227 464 227 485 q 209 418 227 436 q 163 400 192 400 q 117 417 135 400 q 98 465 98 435 q 160 578 98 533 q 309 623 221 623 q 498 546 422 623 q 534 492 522 522 q 547 441 546 461 q 549 382 549 421 l 549 104 q 551 83 549 96 q 567 52 554 69 q 600 35 579 35 q 650 123 650 35 l 650 201 l 685 201 l 685 123 q 646 21 685 50 q 571 -8 607 -8 q 496 26 525 -8 q 463 106 467 60 q 394 19 441 53 q 281 -16 346 -16 q 183 -3 231 -16 q 97 44 136 9 q 58 132 58 79 m 165 134 q 202 49 165 82 q 290 16 239 16 q 401 61 349 16 q 453 195 453 106 l 453 334 q 232 267 299 328 q 165 134 165 205 m 219 708 q 311 798 256 744 q 395 878 377 864 q 427 892 412 892 q 462 875 448 892 q 476 840 476 859 q 473 826 476 832 q 467 814 471 819 q 457 805 464 810 q 448 798 451 800 q 437 792 444 796 q 427 786 429 787 q 240 681 245 683 l 219 708 z "},"":{"ha":694,"x_min":58,"x_max":685,"o":"m 58 132 q 197 313 58 250 q 453 363 281 353 l 453 414 q 408 546 453 500 q 306 591 363 591 q 155 528 204 591 q 212 506 197 526 q 227 464 227 485 q 209 418 227 436 q 163 400 192 400 q 117 417 135 400 q 98 465 98 435 q 160 578 98 533 q 309 623 221 623 q 498 546 422 623 q 534 492 522 522 q 547 441 546 461 q 549 382 549 421 l 549 104 q 551 83 549 96 q 567 52 554 69 q 600 35 579 35 q 650 123 650 35 l 650 201 l 685 201 l 685 123 q 646 21 685 50 q 571 -8 607 -8 q 496 26 525 -8 q 463 106 467 60 q 394 19 441 53 q 281 -16 346 -16 q 183 -3 231 -16 q 97 44 136 9 q 58 132 58 79 m 121 694 l 307 901 l 309 901 l 493 694 l 469 669 l 309 828 l 307 828 l 146 669 l 121 694 m 165 134 q 202 49 165 82 q 290 16 239 16 q 401 61 349 16 q 453 195 453 106 l 453 334 q 232 267 299 328 q 165 134 165 205 z "},"":{"ha":694,"x_min":58,"x_max":685,"o":"m 58 132 q 197 313 58 250 q 453 363 281 353 l 453 414 q 408 546 453 500 q 306 591 363 591 q 155 528 204 591 q 212 506 197 526 q 227 464 227 485 q 209 418 227 436 q 163 400 192 400 q 117 417 135 400 q 98 465 98 435 q 160 578 98 533 q 309 623 221 623 q 498 546 422 623 q 534 492 522 522 q 547 441 546 461 q 549 382 549 421 l 549 104 q 551 83 549 96 q 567 52 554 69 q 600 35 579 35 q 650 123 650 35 l 650 201 l 685 201 l 685 123 q 646 21 685 50 q 571 -8 607 -8 q 496 26 525 -8 q 463 106 467 60 q 394 19 441 53 q 281 -16 346 -16 q 183 -3 231 -16 q 97 44 136 9 q 58 132 58 79 m 77 740 q 125 796 110 780 q 170 831 140 812 q 227 850 199 850 q 315 817 258 850 q 404 785 372 785 q 447 796 425 785 q 479 817 469 807 q 515 851 489 826 l 539 830 q 525 814 536 827 q 511 798 514 801 q 497 783 507 794 q 483 768 488 772 q 469 755 478 764 q 454 743 460 747 q 439 734 449 740 q 422 727 429 729 q 407 723 416 725 q 389 721 397 721 q 300 753 356 721 q 212 786 245 786 q 189 783 201 786 q 168 775 178 781 q 150 764 157 769 q 133 752 142 760 q 119 740 124 744 q 107 729 114 736 l 100 721 l 77 740 m 165 134 q 202 49 165 82 q 290 16 239 16 q 401 61 349 16 q 453 195 453 106 l 453 334 q 232 267 299 328 q 165 134 165 205 z "},"":{"ha":694,"x_min":58,"x_max":685,"o":"m 58 132 q 197 313 58 250 q 453 363 281 353 l 453 414 q 408 546 453 500 q 306 591 363 591 q 155 528 204 591 q 212 506 197 526 q 227 464 227 485 q 209 418 227 436 q 163 400 192 400 q 117 417 135 400 q 98 465 98 435 q 160 578 98 533 q 309 623 221 623 q 498 546 422 623 q 534 492 522 522 q 547 441 546 461 q 549 382 549 421 l 549 104 q 551 83 549 96 q 567 52 554 69 q 600 35 579 35 q 650 123 650 35 l 650 201 l 685 201 l 685 123 q 646 21 685 50 q 571 -8 607 -8 q 496 26 525 -8 q 463 106 467 60 q 394 19 441 53 q 281 -16 346 -16 q 183 -3 231 -16 q 97 44 136 9 q 58 132 58 79 m 139 842 q 160 895 139 873 q 211 916 182 916 q 262 894 239 916 q 285 842 285 872 q 262 790 285 811 q 211 770 239 770 q 159 791 179 770 q 139 842 139 812 m 165 134 q 202 49 165 82 q 290 16 239 16 q 401 61 349 16 q 453 195 453 106 l 453 334 q 232 267 299 328 q 165 134 165 205 m 408 842 q 431 895 408 873 q 482 916 453 916 q 533 895 511 916 q 554 842 554 873 q 532 790 554 811 q 482 770 510 770 q 429 791 450 770 q 408 842 408 812 z "},"":{"ha":694,"x_min":58,"x_max":685,"o":"m 58 132 q 197 313 58 250 q 453 363 281 353 l 453 414 q 408 546 453 500 q 306 591 363 591 q 155 528 204 591 q 212 506 197 526 q 227 464 227 485 q 209 418 227 436 q 163 400 192 400 q 117 417 135 400 q 98 465 98 435 q 160 578 98 533 q 309 623 221 623 q 498 546 422 623 q 534 492 522 522 q 547 441 546 461 q 549 382 549 421 l 549 104 q 551 83 549 96 q 567 52 554 69 q 600 35 579 35 q 650 123 650 35 l 650 201 l 685 201 l 685 123 q 646 21 685 50 q 571 -8 607 -8 q 496 26 525 -8 q 463 106 467 60 q 394 19 441 53 q 281 -16 346 -16 q 183 -3 231 -16 q 97 44 136 9 q 58 132 58 79 m 165 134 q 202 49 165 82 q 290 16 239 16 q 401 61 349 16 q 453 195 453 106 l 453 334 q 232 267 299 328 q 165 134 165 205 m 175 806 q 213 884 175 850 q 307 918 250 918 q 399 887 359 918 q 440 806 440 856 q 403 729 440 763 q 309 694 366 694 q 216 725 257 694 q 175 806 175 755 m 310 886 q 210 806 210 886 q 306 725 210 725 q 406 806 406 725 q 310 886 406 886 z "},"":{"ha":1002,"x_min":61,"x_max":964,"o":"m 61 127 q 169 285 61 226 q 453 347 277 345 l 453 401 q 437 499 453 458 q 395 557 421 539 q 347 582 368 575 q 304 589 325 589 q 155 528 217 589 l 157 528 q 210 508 194 528 q 225 464 225 488 q 206 418 225 436 q 163 400 187 400 q 115 419 132 400 q 98 469 98 439 q 160 576 98 532 q 309 621 221 621 q 522 514 449 621 l 524 514 q 732 621 608 621 q 902 544 840 621 q 964 351 964 468 q 957 325 964 330 q 933 319 950 319 l 550 319 l 550 310 q 570 170 550 229 q 622 81 590 111 q 688 36 654 50 q 754 21 721 21 q 859 59 815 21 q 921 147 903 97 q 939 178 932 175 q 957 174 949 182 q 961 153 964 167 q 891 39 947 94 q 747 -16 835 -16 q 515 107 614 -16 q 281 -16 448 -15 q 183 -4 229 -16 q 99 42 136 8 q 61 127 61 76 m 170 129 q 205 48 170 79 q 292 17 241 17 q 416 66 363 17 q 468 182 468 115 q 460 230 468 194 q 453 318 453 267 q 235 254 300 310 q 170 129 170 198 m 551 350 l 871 350 q 729 589 863 589 q 687 581 709 589 q 635 552 665 574 q 581 478 604 530 q 551 350 558 427 z "},"":{"ha":616,"x_min":46,"x_max":576,"o":"m 46 300 q 135 528 46 435 q 349 621 224 621 q 500 580 437 621 q 562 475 562 539 q 544 428 562 447 q 498 408 526 408 q 453 426 472 408 q 435 472 435 444 q 500 536 435 526 q 351 585 431 585 q 289 571 319 585 q 229 529 258 558 q 181 441 199 500 q 163 300 163 382 q 224 88 163 155 q 359 21 286 21 q 526 126 475 21 q 533 143 529 132 q 542 164 538 155 q 550 175 546 172 q 567 177 557 180 q 576 163 576 174 q 572 145 576 159 q 556 107 568 131 q 525 61 543 83 q 473 18 507 39 q 396 -11 439 -3 l 396 -75 q 436 -84 416 -78 q 484 -115 456 -90 q 511 -175 511 -139 q 437 -260 511 -236 q 200 -283 363 -283 l 182 -283 l 182 -252 l 227 -252 q 412 -175 412 -252 q 386 -124 412 -147 q 298 -98 359 -102 l 298 -11 q 117 96 187 7 q 46 300 46 184 z "},"":{"ha":616,"x_min":39,"x_max":576,"o":"m 39 306 q 123 530 39 437 q 328 623 207 623 q 513 543 450 623 q 576 350 576 464 q 571 325 576 329 q 542 321 566 321 l 154 321 q 196 113 154 179 q 353 20 254 20 q 382 22 366 20 q 432 37 399 25 q 494 81 465 49 q 541 163 524 113 q 558 182 545 182 q 576 165 576 182 q 563 126 576 153 q 525 66 550 98 q 451 9 500 33 q 345 -16 403 -16 q 131 77 222 -16 q 39 306 39 170 m 155 350 l 485 350 q 480 412 485 379 q 460 489 475 444 q 412 563 446 534 q 328 591 378 591 q 281 582 305 591 q 228 549 257 572 q 178 474 199 526 q 155 350 158 422 m 216 840 q 230 875 216 859 q 264 892 243 892 q 298 877 279 892 q 393 786 317 861 q 473 708 441 739 l 452 681 q 266 785 424 694 l 257 789 q 247 795 250 793 q 236 803 243 798 q 226 813 229 808 q 219 825 222 818 q 216 840 216 832 z "},"":{"ha":616,"x_min":39,"x_max":576,"o":"m 39 306 q 123 530 39 437 q 328 623 207 623 q 513 543 450 623 q 576 350 576 464 q 571 325 576 329 q 542 321 566 321 l 154 321 q 196 113 154 179 q 353 20 254 20 q 382 22 366 20 q 432 37 399 25 q 494 81 465 49 q 541 163 524 113 q 558 182 545 182 q 576 165 576 182 q 563 126 576 153 q 525 66 550 98 q 451 9 500 33 q 345 -16 403 -16 q 131 77 222 -16 q 39 306 39 170 m 155 350 l 485 350 q 480 412 485 379 q 460 489 475 444 q 412 563 446 534 q 328 591 378 591 q 281 582 305 591 q 228 549 257 572 q 178 474 199 526 q 155 350 158 422 m 180 708 q 272 798 218 744 q 356 878 338 864 q 389 892 374 892 q 424 875 410 892 q 437 840 437 859 q 435 826 437 832 q 429 814 432 819 q 419 805 425 810 q 409 798 412 800 q 398 792 406 796 q 389 786 391 787 q 201 681 207 683 l 180 708 z "},"":{"ha":616,"x_min":39,"x_max":576,"o":"m 39 306 q 123 530 39 437 q 328 623 207 623 q 513 543 450 623 q 576 350 576 464 q 571 325 576 329 q 542 321 566 321 l 154 321 q 196 113 154 179 q 353 20 254 20 q 382 22 366 20 q 432 37 399 25 q 494 81 465 49 q 541 163 524 113 q 558 182 545 182 q 576 165 576 182 q 563 126 576 153 q 525 66 550 98 q 451 9 500 33 q 345 -16 403 -16 q 131 77 222 -16 q 39 306 39 170 m 121 694 l 307 901 l 309 901 l 493 694 l 469 669 l 309 828 l 307 828 l 146 669 l 121 694 m 155 350 l 485 350 q 480 412 485 379 q 460 489 475 444 q 412 563 446 534 q 328 591 378 591 q 281 582 305 591 q 228 549 257 572 q 178 474 199 526 q 155 350 158 422 z "},"":{"ha":616,"x_min":39,"x_max":576,"o":"m 39 306 q 123 530 39 437 q 328 623 207 623 q 513 543 450 623 q 576 350 576 464 q 571 325 576 329 q 542 321 566 321 l 154 321 q 196 113 154 179 q 353 20 254 20 q 382 22 366 20 q 432 37 399 25 q 494 81 465 49 q 541 163 524 113 q 558 182 545 182 q 576 165 576 182 q 563 126 576 153 q 525 66 550 98 q 451 9 500 33 q 345 -16 403 -16 q 131 77 222 -16 q 39 306 39 170 m 100 842 q 122 895 100 873 q 172 916 143 916 q 223 894 200 916 q 246 842 246 872 q 223 790 246 811 q 172 770 200 770 q 120 791 140 770 q 100 842 100 812 m 155 350 l 485 350 q 480 412 485 379 q 460 489 475 444 q 412 563 446 534 q 328 591 378 591 q 281 582 305 591 q 228 549 257 572 q 178 474 199 526 q 155 350 158 422 m 370 842 q 392 895 370 873 q 444 916 414 916 q 494 895 473 916 q 515 842 515 873 q 493 790 515 811 q 444 770 471 770 q 391 791 412 770 q 370 842 370 812 z "},"":{"ha":385,"x_min":-5,"x_max":346,"o":"m -5 840 q 8 875 -5 859 q 43 892 22 892 q 77 877 58 892 q 172 786 96 861 q 252 708 220 739 l 231 681 q 45 785 203 694 l 36 789 q 26 795 29 793 q 15 803 22 798 q 5 813 8 808 q -2 825 1 818 q -5 840 -5 832 m 49 0 l 49 43 q 140 52 123 43 q 157 106 157 61 l 157 479 q 139 543 157 531 q 54 555 122 555 l 54 599 l 248 614 l 248 104 q 263 53 248 63 q 346 43 278 43 l 346 0 q 201 4 204 4 q 49 0 182 4 z "},"":{"ha":385,"x_min":46,"x_max":368,"o":"m 46 0 l 46 43 q 137 52 120 43 q 154 106 154 61 l 154 479 q 137 543 154 531 q 52 555 119 555 l 52 599 l 245 614 l 245 104 q 260 53 245 63 q 343 43 275 43 l 343 0 q 199 4 201 4 q 46 0 180 4 m 111 708 q 204 799 149 745 q 288 879 272 865 q 319 892 304 892 q 354 875 340 892 q 368 840 368 859 q 364 820 368 829 q 349 804 359 811 q 335 794 339 796 q 319 786 330 791 q 132 681 138 683 l 111 708 z "},"":{"ha":385,"x_min":14,"x_max":386,"o":"m 14 694 l 200 901 l 201 901 l 386 694 l 361 669 l 201 828 l 200 828 l 39 669 l 14 694 m 47 0 l 47 43 q 138 52 121 43 q 155 106 155 61 l 155 479 q 138 543 155 531 q 53 555 121 555 l 53 599 l 247 614 l 247 104 q 262 53 247 63 q 345 43 277 43 l 345 0 q 200 4 203 4 q 47 0 181 4 z "},"":{"ha":462,"x_min":29,"x_max":445,"o":"m 29 842 q 51 895 29 874 q 102 916 73 916 q 153 895 132 916 q 175 842 175 874 q 153 791 175 812 q 102 770 130 770 q 50 791 71 770 q 29 842 29 813 m 85 0 l 85 43 q 176 52 159 43 q 193 106 193 61 l 193 479 q 175 543 193 531 q 90 555 158 555 l 90 599 l 284 614 l 284 104 q 299 53 284 63 q 382 43 314 43 l 382 0 q 237 4 240 4 q 85 0 218 4 m 299 842 q 321 895 299 874 q 372 916 343 916 q 423 895 401 916 q 445 842 445 874 q 422 791 445 812 q 372 770 400 770 q 320 791 340 770 q 299 842 299 813 z "},"":{"ha":694,"x_min":37,"x_max":654,"o":"m 37 296 q 131 527 37 433 q 343 621 224 621 q 515 514 445 621 q 444 669 488 604 q 329 804 400 734 l 180 718 l 161 711 q 143 722 148 711 l 144 729 l 146 734 q 231 787 174 755 q 301 828 288 819 q 198 893 241 871 q 128 923 154 916 q 97 933 102 930 q 86 947 86 937 q 110 962 86 963 q 208 943 140 962 q 347 880 275 924 q 368 871 364 871 q 455 916 382 871 q 541 961 529 961 q 555 947 556 961 q 536 925 555 937 l 399 846 q 538 705 482 781 q 617 558 595 629 q 647 440 639 486 q 654 351 654 395 l 654 310 q 560 70 654 156 q 346 -16 465 -16 q 129 74 221 -16 q 37 296 37 163 m 154 309 q 180 139 154 200 q 244 56 201 92 q 346 21 288 21 q 408 34 378 21 q 469 77 439 47 q 519 163 500 106 q 538 297 538 220 q 482 505 538 420 q 345 589 427 589 q 195 498 252 589 q 154 309 154 433 z "},"":{"ha":770,"x_min":45,"x_max":743,"o":"m 45 0 l 45 43 q 136 52 119 43 q 153 106 153 61 l 153 478 q 135 543 153 530 q 45 555 117 555 l 45 599 l 240 614 l 240 468 q 446 614 305 614 q 591 562 550 614 q 628 489 622 528 q 635 350 635 450 l 635 85 q 659 49 636 56 q 743 43 681 43 l 743 0 q 587 4 602 4 q 431 0 576 4 l 431 43 q 522 52 505 43 q 539 106 539 61 l 539 429 q 517 542 539 500 q 436 583 496 583 q 307 523 364 583 q 249 361 249 463 l 249 106 q 266 52 249 61 q 357 43 283 43 l 357 0 q 201 4 215 4 q 45 0 191 4 m 163 740 q 211 796 196 780 q 256 831 227 812 q 313 850 285 850 q 401 817 345 850 q 490 785 458 785 q 533 796 511 785 q 565 817 555 807 q 602 851 575 826 l 625 830 q 611 814 623 827 q 597 798 600 801 q 584 783 593 794 q 569 768 574 772 q 555 755 564 764 q 541 743 546 747 q 525 734 535 740 q 509 727 515 729 q 493 723 502 725 q 475 721 484 721 q 387 753 442 721 q 298 786 331 786 q 275 783 287 786 q 254 775 264 781 q 236 764 243 769 q 219 752 228 760 q 205 740 210 744 q 193 729 200 736 l 186 721 l 163 740 z "},"":{"ha":694,"x_min":39,"x_max":654,"o":"m 131 75 q 85 120 131 75 q 39 297 39 165 q 129 526 39 429 q 347 623 218 623 q 564 527 473 623 q 654 297 654 431 q 563 75 654 166 q 346 -16 472 -16 q 131 75 222 -16 m 154 309 q 189 113 154 174 q 347 20 243 20 q 442 47 399 20 q 509 122 485 75 q 539 309 539 183 q 503 501 539 442 q 346 591 448 591 q 257 568 301 591 q 187 498 214 545 q 154 309 154 437 m 216 840 q 230 875 216 859 q 264 892 243 892 q 298 877 279 892 q 393 786 317 861 q 473 708 441 739 l 452 681 q 266 785 424 694 l 257 789 q 247 795 250 793 q 236 803 243 798 q 226 813 229 808 q 219 825 222 818 q 216 840 216 832 z "},"":{"ha":694,"x_min":39,"x_max":654,"o":"m 131 75 q 85 120 131 75 q 39 297 39 165 q 129 526 39 429 q 347 623 218 623 q 564 527 473 623 q 654 297 654 431 q 563 75 654 166 q 346 -16 472 -16 q 131 75 222 -16 m 154 309 q 189 113 154 174 q 347 20 243 20 q 442 47 399 20 q 509 122 485 75 q 539 309 539 183 q 503 501 539 442 q 346 591 448 591 q 257 568 301 591 q 187 498 214 545 q 154 309 154 437 m 219 708 q 311 798 256 744 q 395 878 377 864 q 427 892 412 892 q 462 875 448 892 q 476 840 476 859 q 473 826 476 832 q 467 814 471 819 q 457 805 464 810 q 448 798 451 800 q 437 792 444 796 q 427 786 429 787 q 240 681 245 683 l 219 708 z "},"":{"ha":694,"x_min":39,"x_max":654,"o":"m 131 75 q 85 120 131 75 q 39 297 39 165 q 129 526 39 429 q 347 623 218 623 q 564 527 473 623 q 654 297 654 431 q 563 75 654 166 q 346 -16 472 -16 q 131 75 222 -16 m 154 309 q 189 113 154 174 q 347 20 243 20 q 442 47 399 20 q 509 122 485 75 q 539 309 539 183 q 503 501 539 442 q 346 591 448 591 q 257 568 301 591 q 187 498 214 545 q 154 309 154 437 m 160 694 l 346 901 l 347 901 l 532 694 l 507 669 l 347 828 l 346 828 l 184 669 l 160 694 z "},"":{"ha":694,"x_min":39,"x_max":654,"o":"m 131 75 q 85 120 131 75 q 39 297 39 165 q 129 526 39 429 q 347 623 218 623 q 564 527 473 623 q 654 297 654 431 q 563 75 654 166 q 346 -16 472 -16 q 131 75 222 -16 m 115 740 q 164 796 149 780 q 208 831 179 812 q 265 850 237 850 q 354 817 297 850 q 443 785 411 785 q 486 796 464 785 q 517 817 507 807 q 554 851 528 826 l 578 830 q 564 814 575 827 q 549 798 553 801 q 536 783 546 794 q 522 768 526 772 q 508 755 517 764 q 493 743 498 747 q 478 734 488 740 q 461 727 468 729 q 445 723 454 725 q 428 721 436 721 q 339 753 395 721 q 250 786 283 786 q 228 783 239 786 q 206 775 216 781 q 188 764 196 769 q 172 752 180 760 q 158 740 163 744 q 146 729 153 736 l 139 721 l 115 740 m 154 309 q 189 113 154 174 q 347 20 243 20 q 442 47 399 20 q 509 122 485 75 q 539 309 539 183 q 503 501 539 442 q 346 591 448 591 q 257 568 301 591 q 187 498 214 545 q 154 309 154 437 z "},"":{"ha":694,"x_min":39,"x_max":654,"o":"m 131 75 q 85 120 131 75 q 39 297 39 165 q 129 526 39 429 q 347 623 218 623 q 564 527 473 623 q 654 297 654 431 q 563 75 654 166 q 346 -16 472 -16 q 131 75 222 -16 m 138 842 q 159 895 138 873 q 210 916 180 916 q 260 894 237 916 q 283 842 283 872 q 260 790 283 811 q 210 770 237 770 q 158 791 178 770 q 138 842 138 812 m 154 309 q 189 113 154 174 q 347 20 243 20 q 442 47 399 20 q 509 122 485 75 q 539 309 539 183 q 503 501 539 442 q 346 591 448 591 q 257 568 301 591 q 187 498 214 545 q 154 309 154 437 m 407 842 q 429 895 407 873 q 481 916 452 916 q 531 895 510 916 q 553 842 553 873 q 531 790 553 811 q 481 770 509 770 q 428 791 449 770 q 407 842 407 812 z "},"":{"ha":1080,"x_min":78,"x_max":1000,"o":"m 118 319 q 78 347 78 319 q 122 375 78 375 l 957 375 q 1000 347 1000 375 q 961 319 1000 319 l 118 319 m 452 49 q 478 111 452 86 q 539 135 504 135 q 601 111 575 135 q 627 48 627 86 q 600 -14 627 11 q 539 -39 574 -39 q 477 -12 502 -39 q 452 49 452 14 m 452 646 q 478 708 452 683 q 539 733 504 733 q 600 708 574 733 q 627 646 627 684 q 601 584 627 608 q 539 559 575 559 q 476 585 500 559 q 452 646 452 611 z "},"":{"ha":694,"x_min":47,"x_max":644,"o":"m 47 296 q 134 524 47 427 q 346 621 220 621 q 490 581 416 621 l 582 741 l 610 725 l 517 562 q 550 533 534 550 q 591 482 567 515 q 630 400 615 449 q 644 296 644 351 q 555 74 644 163 q 346 -16 467 -16 q 204 22 275 -16 l 110 -143 l 82 -127 l 178 39 q 81 150 115 81 q 47 296 47 218 m 144 296 q 155 185 144 232 q 175 122 165 139 q 203 82 184 104 l 468 543 q 347 589 410 589 q 248 560 293 589 q 178 484 203 532 q 144 296 144 418 m 227 58 q 346 17 285 17 q 447 45 400 17 q 521 129 494 74 q 549 296 549 187 q 492 518 549 441 l 490 518 l 227 58 z "},"":{"ha":770,"x_min":45,"x_max":743,"o":"m 45 555 l 45 599 l 249 614 l 249 153 q 252 100 249 119 q 266 58 254 81 q 303 26 277 36 q 371 16 329 16 q 493 77 446 16 q 539 231 539 139 l 539 478 q 521 543 539 530 q 431 555 503 555 l 431 599 l 635 614 l 635 121 q 653 56 635 69 q 743 43 671 43 l 743 0 l 543 -16 l 543 110 q 364 -16 485 -15 q 261 0 303 -16 q 199 35 220 16 q 166 92 178 54 q 154 152 155 129 q 153 220 153 175 l 153 428 q 139 539 153 522 q 45 555 125 555 m 242 840 q 256 875 242 859 q 290 892 270 892 q 325 877 306 892 q 420 786 343 861 q 499 708 467 739 l 478 681 q 292 785 450 694 l 283 789 q 273 795 277 793 q 263 803 270 798 q 252 813 256 808 q 245 825 249 818 q 242 840 242 832 z "},"":{"ha":770,"x_min":45,"x_max":743,"o":"m 45 555 l 45 599 l 249 614 l 249 153 q 252 100 249 119 q 266 58 254 81 q 303 26 277 36 q 371 16 329 16 q 493 77 446 16 q 539 231 539 139 l 539 478 q 521 543 539 530 q 431 555 503 555 l 431 599 l 635 614 l 635 121 q 653 56 635 69 q 743 43 671 43 l 743 0 l 543 -16 l 543 110 q 364 -16 485 -15 q 261 0 303 -16 q 199 35 220 16 q 166 92 178 54 q 154 152 155 129 q 153 220 153 175 l 153 428 q 139 539 153 522 q 45 555 125 555 m 265 708 q 357 798 302 744 q 441 878 423 864 q 473 892 458 892 q 508 875 494 892 q 522 840 522 859 q 519 826 522 832 q 513 814 517 819 q 504 805 510 810 q 494 798 497 800 q 483 792 490 796 q 473 786 475 787 q 286 681 292 683 l 265 708 z "},"":{"ha":770,"x_min":45,"x_max":743,"o":"m 45 555 l 45 599 l 249 614 l 249 153 q 252 100 249 119 q 266 58 254 81 q 303 26 277 36 q 371 16 329 16 q 493 77 446 16 q 539 231 539 139 l 539 478 q 521 543 539 530 q 431 555 503 555 l 431 599 l 635 614 l 635 121 q 653 56 635 69 q 743 43 671 43 l 743 0 l 543 -16 l 543 110 q 364 -16 485 -15 q 261 0 303 -16 q 199 35 220 16 q 166 92 178 54 q 154 152 155 129 q 153 220 153 175 l 153 428 q 139 539 153 522 q 45 555 125 555 m 206 694 l 392 901 l 393 901 l 578 694 l 553 669 l 393 828 l 392 828 l 231 669 l 206 694 z "},"":{"ha":770,"x_min":45,"x_max":743,"o":"m 45 555 l 45 599 l 249 614 l 249 153 q 252 100 249 119 q 266 58 254 81 q 303 26 277 36 q 371 16 329 16 q 493 77 446 16 q 539 231 539 139 l 539 478 q 521 543 539 530 q 431 555 503 555 l 431 599 l 635 614 l 635 121 q 653 56 635 69 q 743 43 671 43 l 743 0 l 543 -16 l 543 110 q 364 -16 485 -15 q 261 0 303 -16 q 199 35 220 16 q 166 92 178 54 q 154 152 155 129 q 153 220 153 175 l 153 428 q 139 539 153 522 q 45 555 125 555 m 184 842 q 206 895 184 873 q 257 916 228 916 q 308 894 285 916 q 330 842 330 872 q 308 790 330 811 q 257 770 285 770 q 205 791 225 770 q 184 842 184 812 m 454 842 q 476 895 454 873 q 528 916 498 916 q 578 895 557 916 q 600 842 600 873 q 578 790 600 811 q 528 770 555 770 q 477 790 500 770 q 454 842 454 811 z "},"":{"ha":732,"x_min":26,"x_max":705,"o":"m 26 -172 q 44 -128 26 -143 q 85 -113 61 -113 q 126 -129 110 -113 q 143 -171 143 -144 q 89 -229 143 -222 q 154 -254 115 -254 q 229 -224 195 -254 q 277 -164 262 -193 q 313 -82 292 -135 q 347 0 332 -41 l 139 507 q 104 548 125 541 q 26 555 83 555 l 26 599 q 161 595 89 595 q 313 599 204 595 l 313 555 q 235 519 235 555 q 243 494 235 515 l 397 121 l 538 463 q 546 496 546 482 q 481 555 546 553 l 481 599 q 602 595 572 595 q 705 599 659 595 l 705 555 q 576 467 612 555 l 332 -126 q 154 -285 265 -284 q 64 -252 101 -285 q 26 -172 26 -220 m 317 708 q 408 798 354 744 q 492 878 475 864 q 525 892 510 892 q 560 875 546 892 q 574 840 574 859 q 571 826 574 832 q 565 814 568 819 q 555 805 562 810 q 545 798 549 800 q 534 792 542 796 q 525 786 527 787 q 338 681 343 683 l 317 708 z "},"":{"ha":770,"x_min":37,"x_max":724,"o":"m 37 -228 l 45 -228 q 128 -217 110 -228 q 146 -165 146 -205 l 146 847 q 124 909 146 897 q 37 921 102 921 l 37 964 l 239 979 l 239 522 q 432 612 314 612 q 637 522 550 612 q 724 300 724 432 q 629 74 724 163 q 415 -16 534 -16 q 243 69 317 -16 l 243 -164 q 260 -217 243 -205 q 342 -228 278 -228 l 350 -228 l 350 -271 q 189 -267 269 -267 l 183 -267 q 37 -271 118 -267 l 37 -228 m 243 160 q 294 62 243 107 q 406 17 346 17 q 550 99 492 17 q 608 298 608 182 q 554 496 608 414 q 419 578 500 578 q 304 538 354 578 q 244 465 254 498 q 243 437 243 461 l 243 160 z "},"":{"ha":732,"x_min":26,"x_max":705,"o":"m 26 -172 q 44 -128 26 -143 q 85 -113 61 -113 q 126 -129 110 -113 q 143 -171 143 -144 q 89 -229 143 -222 q 154 -254 115 -254 q 229 -224 195 -254 q 277 -164 262 -193 q 313 -82 292 -135 q 347 0 332 -41 l 139 507 q 104 548 125 541 q 26 555 83 555 l 26 599 q 161 595 89 595 q 313 599 204 595 l 313 555 q 235 519 235 555 q 243 494 235 515 l 397 121 l 538 463 q 546 496 546 482 q 481 555 546 553 l 481 599 q 602 595 572 595 q 705 599 659 595 l 705 555 q 576 467 612 555 l 332 -126 q 154 -285 265 -284 q 64 -252 101 -285 q 26 -172 26 -220 m 157 842 q 179 895 157 873 q 231 916 201 916 q 281 895 260 916 q 302 842 302 873 q 280 790 302 811 q 231 770 258 770 q 178 791 199 770 q 157 842 157 812 m 428 842 q 449 895 428 873 q 500 916 471 916 q 551 894 528 916 q 574 842 574 872 q 551 790 574 811 q 501 770 529 770 q 449 791 469 770 q 428 842 428 812 z "},"":{"ha":1042,"x_min":45,"x_max":996,"o":"m 45 0 l 45 43 q 200 136 168 45 l 488 966 q 499 989 493 983 q 521 994 505 994 q 534 993 529 994 q 543 987 539 991 q 547 979 546 982 q 553 966 549 977 l 852 98 q 886 53 863 64 q 971 43 908 43 l 996 43 l 996 0 q 814 4 908 4 q 614 0 664 4 l 614 43 q 729 85 729 43 q 725 104 729 87 l 652 317 l 309 317 l 244 135 q 241 114 241 130 q 269 64 241 85 q 346 43 296 43 l 346 0 q 186 4 212 4 q 45 0 140 4 m 252 1105 l 252 1152 l 791 1152 l 791 1105 l 252 1105 m 323 359 l 636 359 l 479 811 l 323 359 z "},"":{"ha":694,"x_min":58,"x_max":685,"o":"m 58 132 q 197 313 58 250 q 453 363 281 353 l 453 414 q 408 546 453 500 q 306 591 363 591 q 155 528 204 591 q 212 506 197 526 q 227 464 227 485 q 209 418 227 436 q 163 400 192 400 q 117 417 135 400 q 98 465 98 435 q 160 578 98 533 q 309 623 221 623 q 498 546 422 623 q 534 492 522 522 q 547 441 546 461 q 549 382 549 421 l 549 104 q 551 83 549 96 q 567 52 554 69 q 600 35 579 35 q 650 123 650 35 l 650 201 l 685 201 l 685 123 q 646 21 685 50 q 571 -8 607 -8 q 496 26 525 -8 q 463 106 467 60 q 394 19 441 53 q 281 -16 346 -16 q 183 -3 231 -16 q 97 44 136 9 q 58 132 58 79 m 58 764 l 58 808 l 559 808 l 559 764 l 58 764 m 165 134 q 202 49 165 82 q 290 16 239 16 q 401 61 349 16 q 453 195 453 106 l 453 334 q 232 267 299 328 q 165 134 165 205 z "},"":{"ha":1042,"x_min":45,"x_max":996,"o":"m 45 0 l 45 43 q 200 136 168 45 l 488 966 q 499 989 493 983 q 521 994 505 994 q 534 993 529 994 q 543 987 539 991 q 547 979 546 982 q 553 966 549 977 l 852 98 q 886 53 863 64 q 971 43 908 43 l 996 43 l 996 0 q 814 4 908 4 q 614 0 664 4 l 614 43 q 729 85 729 43 q 725 104 729 87 l 652 317 l 309 317 l 244 135 q 241 114 241 130 q 269 64 241 85 q 346 43 296 43 l 346 0 q 186 4 212 4 q 45 0 140 4 m 313 1238 l 343 1238 q 366 1169 346 1198 q 414 1125 386 1140 q 469 1105 443 1111 q 521 1099 496 1099 q 639 1133 585 1099 q 697 1238 693 1168 l 729 1238 q 665 1099 728 1152 q 521 1046 603 1046 q 376 1099 439 1046 q 313 1238 314 1152 m 323 359 l 636 359 l 479 811 l 323 359 z "},"":{"ha":694,"x_min":58,"x_max":685,"o":"m 58 132 q 197 313 58 250 q 453 363 281 353 l 453 414 q 408 546 453 500 q 306 591 363 591 q 155 528 204 591 q 212 506 197 526 q 227 464 227 485 q 209 418 227 436 q 163 400 192 400 q 117 417 135 400 q 98 465 98 435 q 160 578 98 533 q 309 623 221 623 q 498 546 422 623 q 534 492 522 522 q 547 441 546 461 q 549 382 549 421 l 549 104 q 551 83 549 96 q 567 52 554 69 q 600 35 579 35 q 650 123 650 35 l 650 201 l 685 201 l 685 123 q 646 21 685 50 q 571 -8 607 -8 q 496 26 525 -8 q 463 106 467 60 q 394 19 441 53 q 281 -16 346 -16 q 183 -3 231 -16 q 97 44 136 9 q 58 132 58 79 m 138 888 l 170 888 q 228 785 174 819 q 346 751 282 751 q 394 757 368 751 q 449 776 419 762 q 500 819 479 790 q 524 888 521 847 l 555 888 q 488 749 551 800 q 346 699 425 699 q 204 749 267 699 q 138 888 142 799 m 165 134 q 202 49 165 82 q 290 16 239 16 q 401 61 349 16 q 453 195 453 106 l 453 334 q 232 267 299 328 q 165 134 165 205 z "},"":{"ha":1042,"x_min":45,"x_max":996,"o":"m 45 0 l 45 43 q 136 63 102 44 q 183 102 171 82 q 208 161 195 122 l 485 958 q 519 994 497 994 q 533 992 528 994 q 543 984 539 990 q 549 974 547 978 q 555 957 551 970 q 562 937 559 943 l 852 103 q 892 53 868 63 q 987 43 917 43 l 996 43 l 996 0 q 895 3 929 3 l 892 3 q 882 3 889 3 q 872 4 875 4 l 871 4 q 797 -42 836 4 q 757 -131 757 -87 q 794 -207 757 -177 q 872 -237 831 -237 q 913 -228 895 -237 q 940 -207 932 -218 q 957 -183 949 -196 q 966 -168 965 -170 q 986 -165 976 -159 q 990 -176 990 -170 q 948 -256 990 -211 q 844 -301 907 -301 q 740 -263 786 -301 q 694 -164 694 -225 q 798 4 694 -85 l 614 0 l 614 43 l 616 43 q 726 87 726 43 q 652 317 726 98 l 307 317 q 281 239 299 289 q 252 156 262 189 q 241 113 241 123 q 266 66 241 87 q 345 43 290 45 l 345 0 q 182 4 264 4 q 45 0 114 4 m 322 359 l 636 359 l 479 811 l 322 359 z "},"":{"ha":694,"x_min":57,"x_max":694,"o":"m 57 134 q 75 207 57 171 q 135 278 93 243 q 258 337 176 314 q 453 363 340 359 l 453 404 q 407 545 453 501 q 304 589 361 589 q 155 528 212 589 q 209 507 193 528 q 225 464 225 486 q 207 418 225 436 q 163 400 189 400 q 117 418 138 400 q 97 467 97 436 q 159 576 97 532 q 309 621 221 621 q 383 610 345 621 q 460 578 421 600 q 525 510 500 555 q 550 404 550 465 l 550 131 q 600 39 550 39 q 642 71 627 39 q 650 132 650 90 l 650 201 l 686 201 l 686 136 q 686 120 686 135 q 685 97 686 106 q 680 73 684 87 q 667 44 676 58 q 643 20 657 31 q 605 -1 625 4 q 568 -7 586 -7 q 546 -8 550 -7 q 493 -53 526 -15 q 460 -132 460 -92 q 496 -207 460 -175 q 576 -239 532 -239 q 628 -223 608 -239 q 660 -188 648 -207 q 675 -167 671 -170 q 688 -168 682 -164 q 694 -180 694 -172 q 655 -255 694 -210 q 549 -301 615 -301 q 444 -264 490 -301 q 397 -167 397 -227 q 514 9 397 -79 q 464 104 471 44 q 282 -16 403 -15 q 127 21 197 -16 q 57 134 57 57 m 165 135 q 202 50 165 83 q 290 17 239 17 q 403 63 353 17 q 453 200 453 110 l 453 334 q 233 268 300 327 q 165 135 165 209 z "},"":{"ha":1002,"x_min":78,"x_max":924,"o":"m 78 475 q 221 832 78 684 q 561 979 364 979 q 676 957 622 979 q 755 915 730 935 q 817 860 781 896 l 886 962 q 908 979 897 979 q 922 973 920 979 q 924 946 924 966 l 924 616 q 921 589 924 594 q 901 583 918 583 q 885 587 888 583 q 879 607 882 591 q 775 846 858 757 q 576 936 692 936 q 506 928 543 936 q 416 892 469 921 q 322 817 363 864 q 251 681 281 770 q 221 473 221 591 q 251 267 221 357 q 322 131 281 178 q 416 56 363 85 q 507 20 469 28 q 578 12 545 12 q 789 97 697 12 q 889 325 880 182 q 890 335 890 332 q 892 341 890 338 q 897 346 893 345 q 905 347 900 347 q 924 323 924 347 q 822 80 924 191 q 561 -31 721 -31 q 221 116 363 -31 q 78 475 78 262 m 435 1063 q 656 1196 643 1192 q 668 1197 661 1197 q 701 1180 688 1197 q 715 1145 715 1164 q 656 1095 715 1105 q 448 1030 467 1036 l 435 1063 z "},"":{"ha":616,"x_min":47,"x_max":576,"o":"m 136 76 q 92 122 136 76 q 47 300 47 168 q 134 527 47 432 q 349 623 221 623 q 497 582 433 623 q 561 473 561 542 q 543 426 561 443 q 497 408 525 408 q 451 426 468 408 q 433 472 433 444 q 437 496 433 484 q 457 522 441 509 q 498 536 472 534 q 350 587 448 588 q 221 521 279 587 q 163 302 163 454 q 182 165 163 223 q 233 77 201 107 q 296 34 265 47 q 358 20 328 20 q 541 165 494 20 q 558 179 545 179 q 576 165 576 179 q 571 141 576 159 q 549 96 566 123 q 508 44 532 68 q 441 2 484 20 q 346 -16 399 -16 q 136 76 224 -16 m 240 708 q 332 798 277 744 q 416 878 398 864 q 448 892 433 892 q 483 875 469 892 q 497 840 497 859 q 494 826 497 832 q 488 814 492 819 q 478 805 485 810 q 469 798 472 800 q 458 792 465 796 q 448 786 450 787 q 261 681 267 683 l 240 708 z "},"":{"ha":1002,"x_min":78,"x_max":924,"o":"m 78 475 q 221 832 78 684 q 561 979 364 979 q 676 957 622 979 q 755 915 730 935 q 817 860 781 896 l 886 962 q 908 979 897 979 q 922 973 920 979 q 924 946 924 966 l 924 616 q 921 589 924 594 q 901 583 918 583 q 885 587 888 583 q 879 607 882 591 q 775 846 858 757 q 576 936 692 936 q 506 928 543 936 q 416 892 469 921 q 322 817 363 864 q 251 681 281 770 q 221 473 221 591 q 251 267 221 357 q 322 131 281 178 q 416 56 363 85 q 507 20 469 28 q 578 12 545 12 q 789 97 697 12 q 889 325 880 182 q 890 335 890 332 q 892 341 890 338 q 897 346 893 345 q 905 347 900 347 q 924 323 924 347 q 822 80 924 191 q 561 -31 721 -31 q 221 116 363 -31 q 78 475 78 262 m 375 1057 l 561 1253 l 747 1057 l 722 1034 l 561 1179 l 399 1034 l 375 1057 z "},"":{"ha":616,"x_min":47,"x_max":576,"o":"m 136 76 q 92 122 136 76 q 47 300 47 168 q 134 527 47 432 q 349 623 221 623 q 497 582 433 623 q 561 473 561 542 q 543 426 561 443 q 497 408 525 408 q 451 426 468 408 q 433 472 433 444 q 437 496 433 484 q 457 522 441 509 q 498 536 472 534 q 350 587 448 588 q 221 521 279 587 q 163 302 163 454 q 182 165 163 223 q 233 77 201 107 q 296 34 265 47 q 358 20 328 20 q 541 165 494 20 q 558 179 545 179 q 576 165 576 179 q 571 141 576 159 q 549 96 566 123 q 508 44 532 68 q 441 2 484 20 q 346 -16 399 -16 q 136 76 224 -16 m 163 694 l 349 901 l 350 901 l 534 694 l 510 669 l 350 828 l 349 828 l 187 669 l 163 694 z "},"":{"ha":1002,"x_min":78,"x_max":924,"o":"m 78 475 q 221 832 78 684 q 561 979 364 979 q 676 957 622 979 q 755 915 730 935 q 817 860 781 896 l 886 962 q 908 979 897 979 q 922 973 920 979 q 924 946 924 966 l 924 616 q 921 589 924 594 q 901 583 918 583 q 885 587 888 583 q 879 607 882 591 q 775 846 858 757 q 576 936 692 936 q 506 928 543 936 q 416 892 469 921 q 322 817 363 864 q 251 681 281 770 q 221 473 221 591 q 251 267 221 357 q 322 131 281 178 q 416 56 363 85 q 507 20 469 28 q 578 12 545 12 q 789 97 697 12 q 889 325 880 182 q 890 335 890 332 q 892 341 890 338 q 897 346 893 345 q 905 347 900 347 q 924 323 924 347 q 822 80 924 191 q 561 -31 721 -31 q 221 116 363 -31 q 78 475 78 262 m 509 1085 q 498 1096 509 1085 q 487 1137 487 1107 q 509 1190 487 1168 q 561 1211 530 1211 q 613 1190 591 1211 q 635 1137 635 1168 q 613 1085 635 1107 q 561 1064 591 1064 q 509 1085 530 1064 z "},"":{"ha":616,"x_min":47,"x_max":576,"o":"m 136 76 q 92 122 136 76 q 47 300 47 168 q 134 527 47 432 q 349 623 221 623 q 497 582 433 623 q 561 473 561 542 q 543 426 561 443 q 497 408 525 408 q 451 426 468 408 q 433 472 433 444 q 437 496 433 484 q 457 522 441 509 q 498 536 472 534 q 350 587 448 588 q 221 521 279 587 q 163 302 163 454 q 182 165 163 223 q 233 77 201 107 q 296 34 265 47 q 358 20 328 20 q 541 165 494 20 q 558 179 545 179 q 576 165 576 179 q 571 141 576 159 q 549 96 566 123 q 508 44 532 68 q 441 2 484 20 q 346 -16 399 -16 q 136 76 224 -16 m 275 854 q 297 907 275 886 q 349 928 319 928 q 399 907 378 928 q 421 854 421 886 q 399 803 421 824 q 349 782 376 782 q 296 804 317 782 q 275 854 275 825 z "},"":{"ha":1002,"x_min":78,"x_max":924,"o":"m 78 475 q 221 832 78 684 q 561 979 364 979 q 676 957 622 979 q 755 915 730 935 q 817 860 781 896 l 886 962 q 908 979 897 979 q 922 973 920 979 q 924 946 924 966 l 924 616 q 921 589 924 594 q 901 583 918 583 q 885 587 888 583 q 879 607 882 591 q 775 846 858 757 q 576 936 692 936 q 506 928 543 936 q 416 892 469 921 q 322 817 363 864 q 251 681 281 770 q 221 473 221 591 q 251 267 221 357 q 322 131 281 178 q 416 56 363 85 q 507 20 469 28 q 578 12 545 12 q 789 97 697 12 q 889 325 880 182 q 890 335 890 332 q 892 341 890 338 q 897 346 893 345 q 905 347 900 347 q 924 323 924 347 q 822 80 924 191 q 561 -31 721 -31 q 221 116 363 -31 q 78 475 78 262 m 366 1276 l 382 1299 q 438 1265 410 1282 q 483 1239 467 1249 q 516 1219 498 1229 q 542 1205 533 1210 q 558 1196 550 1200 q 572 1190 567 1192 q 581 1189 576 1189 q 620 1209 586 1189 q 702 1257 654 1229 q 774 1299 750 1286 l 790 1276 q 610 1123 636 1144 q 578 1103 585 1103 q 446 1207 568 1103 q 366 1276 397 1250 z "},"":{"ha":616,"x_min":47,"x_max":576,"o":"m 136 76 q 92 122 136 76 q 47 300 47 168 q 134 527 47 432 q 349 623 221 623 q 497 582 433 623 q 561 473 561 542 q 543 426 561 443 q 497 408 525 408 q 451 426 468 408 q 433 472 433 444 q 437 496 433 484 q 457 522 441 509 q 498 536 472 534 q 350 587 448 588 q 221 521 279 587 q 163 302 163 454 q 182 165 163 223 q 233 77 201 107 q 296 34 265 47 q 358 20 328 20 q 541 165 494 20 q 558 179 545 179 q 576 165 576 179 q 571 141 576 159 q 549 96 566 123 q 508 44 532 68 q 441 2 484 20 q 346 -16 399 -16 q 136 76 224 -16 m 125 876 l 143 897 q 337 772 329 772 q 446 840 346 772 q 532 897 497 873 l 550 876 l 338 672 l 125 876 z "},"":{"ha":1059,"x_min":49,"x_max":982,"o":"m 49 0 l 49 43 l 82 43 q 175 55 157 43 q 192 109 192 68 l 192 840 q 174 893 192 880 q 82 905 157 905 l 49 905 l 49 949 l 557 949 q 858 807 734 949 q 982 467 982 665 q 858 136 982 272 q 557 0 733 0 l 49 0 m 253 1276 l 268 1299 l 269 1299 q 326 1265 297 1282 q 370 1239 354 1249 q 402 1219 386 1229 q 428 1205 419 1210 q 445 1196 437 1200 q 458 1190 453 1192 q 467 1189 463 1189 q 507 1209 472 1189 q 590 1257 542 1229 q 661 1299 637 1286 l 676 1276 q 496 1123 522 1144 q 464 1103 471 1103 q 364 1182 456 1103 q 253 1276 300 1236 m 311 98 q 321 53 311 62 q 379 43 332 43 l 519 43 q 673 80 611 43 q 766 161 734 118 q 843 467 843 266 q 771 777 843 677 q 518 905 678 905 l 379 905 q 321 896 332 905 q 311 850 311 886 l 311 98 z "},"":{"ha":937,"x_min":47,"x_max":852,"o":"m 47 298 q 140 522 47 431 q 357 614 232 614 q 532 528 463 614 l 532 828 q 514 892 532 880 q 424 905 496 905 l 424 949 l 624 964 l 624 121 q 642 56 624 69 q 732 43 660 43 l 732 0 l 528 -16 l 528 77 q 342 -16 456 -15 q 135 76 222 -16 q 47 298 47 168 m 163 297 q 203 104 163 168 q 349 16 258 16 q 513 113 452 16 q 528 164 528 136 l 528 449 q 513 500 528 477 q 363 583 456 583 q 205 494 266 583 q 163 297 163 428 m 688 949 q 707 1000 688 978 q 761 1022 726 1022 q 824 991 796 1022 q 852 904 852 960 q 825 797 852 847 q 768 722 798 746 q 725 699 739 699 q 710 711 709 699 q 727 732 710 717 q 765 766 745 747 q 803 823 786 785 q 821 905 821 861 q 760 876 795 876 q 708 897 729 876 q 688 949 688 917 z "},"":{"ha":1061,"x_min":47,"x_max":982,"o":"m 47 0 l 47 43 l 62 43 q 168 54 144 43 q 191 106 191 65 l 191 444 q 154 444 178 444 q 117 443 129 443 q 63 446 74 443 q 49 460 53 449 l 49 467 q 82 486 49 486 q 100 487 89 486 q 118 488 111 488 q 154 487 130 488 q 191 486 178 486 l 191 843 q 168 894 191 883 q 62 905 144 905 l 47 905 l 47 949 l 529 949 q 761 890 668 949 q 923 711 864 827 q 982 467 982 596 q 874 155 982 288 q 604 3 766 22 q 536 0 582 0 l 47 0 m 311 93 q 328 50 313 57 q 408 43 343 43 l 510 43 q 775 174 688 43 q 843 469 843 272 q 771 778 843 675 q 510 905 682 905 l 486 905 q 448 906 473 905 q 408 907 422 907 l 395 907 q 329 899 345 907 q 311 856 313 890 l 311 486 l 542 486 q 572 465 572 484 q 541 444 572 447 l 311 444 l 311 93 z "},"":{"ha":770,"x_min":46,"x_max":733,"o":"m 46 298 q 140 523 46 433 q 355 612 233 612 q 532 528 455 612 l 532 737 l 233 737 l 233 781 l 532 781 l 532 819 q 532 844 532 839 q 530 863 532 848 q 523 883 528 878 q 508 894 518 888 q 484 903 498 900 q 424 905 464 905 l 424 949 l 625 964 l 625 781 l 717 781 l 717 737 l 625 737 l 625 121 q 643 57 625 72 q 725 43 661 43 l 733 43 l 733 0 l 528 -16 l 526 77 q 340 -16 454 -15 q 135 75 224 -16 q 46 298 46 165 m 163 302 q 210 93 163 159 q 349 17 262 16 q 473 65 418 17 q 528 161 528 114 l 528 446 q 476 538 528 496 q 363 581 425 581 q 207 493 267 581 q 163 302 163 427 z "},"":{"ha":944,"x_min":46,"x_max":905,"o":"m 46 0 l 46 43 l 79 43 q 172 55 155 43 q 189 109 189 68 l 189 836 q 172 889 189 876 q 79 901 154 901 l 46 901 l 46 945 l 828 945 l 867 632 l 832 632 q 810 757 823 711 q 767 838 798 803 q 688 887 737 873 q 559 901 639 901 l 380 901 q 323 891 333 901 q 313 846 313 882 l 313 513 l 437 513 q 560 546 533 513 q 587 675 587 579 l 623 675 l 623 307 l 587 307 q 560 435 587 401 q 437 469 533 469 l 313 469 l 313 98 q 323 53 313 62 q 380 43 334 43 l 566 43 q 669 51 625 43 q 743 78 713 58 q 794 119 774 97 q 830 182 815 142 q 853 260 844 222 q 871 358 861 297 l 905 358 l 847 0 l 46 0 m 205 1105 l 205 1152 l 745 1152 l 745 1105 l 205 1105 z "},"":{"ha":616,"x_min":39,"x_max":578,"o":"m 39 306 q 123 530 39 437 q 328 623 207 623 q 513 543 450 623 q 576 350 576 464 q 571 325 576 329 q 542 321 566 321 l 154 321 q 196 113 154 179 q 353 20 254 20 q 382 22 366 20 q 432 37 399 25 q 494 81 465 49 q 541 163 524 113 q 558 182 545 182 q 576 165 576 182 q 563 126 576 153 q 525 66 550 98 q 451 9 500 33 q 345 -16 403 -16 q 131 77 222 -16 q 39 306 39 170 m 77 764 l 77 808 l 578 808 l 578 764 l 77 764 m 155 350 l 485 350 q 480 412 485 379 q 460 489 475 444 q 412 563 446 534 q 328 591 378 591 q 281 582 305 591 q 228 549 257 572 q 178 474 199 526 q 155 350 158 422 z "},"":{"ha":944,"x_min":46,"x_max":905,"o":"m 46 0 l 46 43 l 79 43 q 172 55 155 43 q 189 109 189 68 l 189 836 q 172 889 189 876 q 79 901 154 901 l 46 901 l 46 945 l 828 945 l 867 632 l 832 632 q 810 757 823 711 q 767 838 798 803 q 688 887 737 873 q 559 901 639 901 l 380 901 q 323 891 333 901 q 313 846 313 882 l 313 513 l 437 513 q 560 546 533 513 q 587 675 587 579 l 623 675 l 623 307 l 587 307 q 560 435 587 401 q 437 469 533 469 l 313 469 l 313 98 q 323 53 313 62 q 380 43 334 43 l 566 43 q 669 51 625 43 q 743 78 713 58 q 794 119 774 97 q 830 182 815 142 q 853 260 844 222 q 871 358 861 297 l 905 358 l 847 0 l 46 0 m 422 1085 q 412 1096 422 1085 q 401 1137 401 1107 q 422 1190 401 1168 q 475 1211 444 1211 q 527 1190 505 1211 q 549 1137 549 1168 q 527 1085 549 1107 q 475 1064 505 1064 q 422 1085 444 1064 z "},"":{"ha":616,"x_min":39,"x_max":576,"o":"m 39 306 q 123 530 39 437 q 328 623 207 623 q 513 543 450 623 q 576 350 576 464 q 571 325 576 329 q 542 321 566 321 l 154 321 q 196 113 154 179 q 353 20 254 20 q 382 22 366 20 q 432 37 399 25 q 494 81 465 49 q 541 163 524 113 q 558 182 545 182 q 576 165 576 182 q 563 126 576 153 q 525 66 550 98 q 451 9 500 33 q 345 -16 403 -16 q 131 77 222 -16 q 39 306 39 170 m 155 350 l 485 350 q 480 412 485 379 q 460 489 475 444 q 412 563 446 534 q 328 591 378 591 q 281 582 305 591 q 228 549 257 572 q 178 474 199 526 q 155 350 158 422 m 254 854 q 276 907 254 886 q 328 928 298 928 q 378 907 357 928 q 400 854 400 886 q 378 803 400 824 q 328 782 355 782 q 275 804 296 782 q 254 854 254 825 z "},"":{"ha":944,"x_min":46,"x_max":905,"o":"m 46 0 l 46 43 l 66 43 q 164 53 140 43 q 189 103 187 64 l 189 844 q 165 891 188 880 q 66 903 142 903 l 46 903 l 46 945 l 829 945 l 867 632 l 832 632 q 809 752 823 706 q 777 829 796 798 q 722 876 757 861 q 647 897 688 890 q 538 903 606 903 l 410 903 q 330 895 346 903 q 313 851 314 886 l 313 513 l 424 513 q 477 514 458 513 q 522 523 496 515 q 563 550 549 530 q 583 602 578 570 q 587 673 587 625 l 623 673 l 623 307 l 587 307 l 587 318 q 555 439 587 410 q 431 469 524 469 l 313 469 l 313 96 q 327 52 313 61 q 392 43 342 43 l 543 43 q 641 47 603 43 q 720 67 679 52 q 789 114 761 82 q 835 197 817 146 q 871 358 856 254 l 905 358 l 847 0 l 739 0 q 706 -7 718 0 q 675 -33 694 -14 q 627 -131 626 -82 q 663 -207 627 -177 q 741 -237 699 -237 q 786 -225 766 -237 q 814 -199 806 -214 q 832 -173 823 -184 q 847 -161 840 -161 q 857 -165 852 -161 q 860 -176 860 -167 q 819 -256 860 -211 q 714 -301 778 -301 q 610 -263 656 -301 q 564 -164 564 -225 q 663 0 564 -83 l 46 0 z "},"":{"ha":616,"x_min":37,"x_max":593,"o":"m 37 304 q 121 526 37 431 q 329 621 204 621 q 508 546 440 621 q 576 349 576 472 q 570 325 576 330 q 541 319 564 319 l 154 319 q 196 111 154 178 q 353 21 252 21 q 466 59 418 21 q 534 147 514 97 q 561 182 550 182 q 575 164 574 182 q 543 89 575 135 q 472 20 521 57 q 390 -52 422 -17 q 358 -131 358 -86 q 394 -206 358 -175 q 472 -237 431 -237 q 513 -228 494 -237 q 541 -207 532 -218 q 558 -183 550 -196 q 568 -168 567 -170 q 585 -163 576 -159 q 593 -178 593 -168 q 553 -255 593 -208 q 446 -301 514 -301 q 342 -263 389 -301 q 296 -164 296 -225 q 378 -14 296 -96 q 345 -16 367 -15 q 130 76 222 -16 q 37 304 37 168 m 155 350 l 484 350 q 467 469 482 419 q 427 544 452 519 q 376 578 401 568 q 325 589 351 589 q 214 532 267 587 q 155 350 161 476 z "},"":{"ha":944,"x_min":46,"x_max":905,"o":"m 46 0 l 46 43 l 79 43 q 172 55 155 43 q 189 109 189 68 l 189 836 q 172 889 189 876 q 79 901 154 901 l 46 901 l 46 945 l 828 945 l 867 632 l 832 632 q 810 757 823 711 q 767 838 798 803 q 688 887 737 873 q 559 901 639 901 l 380 901 q 323 891 333 901 q 313 846 313 882 l 313 513 l 437 513 q 560 546 533 513 q 587 675 587 579 l 623 675 l 623 307 l 587 307 q 560 435 587 401 q 437 469 533 469 l 313 469 l 313 98 q 323 53 313 62 q 380 43 334 43 l 566 43 q 669 51 625 43 q 743 78 713 58 q 794 119 774 97 q 830 182 815 142 q 853 260 844 222 q 871 358 861 297 l 905 358 l 847 0 l 46 0 m 229 1276 l 245 1299 l 248 1299 q 303 1265 275 1282 q 348 1239 332 1249 q 381 1219 364 1229 q 406 1205 397 1210 q 423 1196 415 1200 q 435 1190 431 1192 q 444 1189 440 1189 q 484 1209 450 1189 q 566 1257 518 1229 q 637 1299 614 1286 l 654 1276 q 475 1123 500 1144 q 441 1103 449 1103 q 310 1207 432 1103 q 229 1276 261 1250 z "},"":{"ha":616,"x_min":39,"x_max":576,"o":"m 39 306 q 123 530 39 437 q 328 623 207 623 q 513 543 450 623 q 576 350 576 464 q 571 325 576 329 q 542 321 566 321 l 154 321 q 196 113 154 179 q 353 20 254 20 q 382 22 366 20 q 432 37 399 25 q 494 81 465 49 q 541 163 524 113 q 558 182 545 182 q 576 165 576 182 q 563 126 576 153 q 525 66 550 98 q 451 9 500 33 q 345 -16 403 -16 q 131 77 222 -16 q 39 306 39 170 m 114 876 l 132 897 q 326 772 317 772 q 357 787 334 772 q 522 897 379 802 l 538 876 l 328 672 l 326 672 l 114 876 m 155 350 l 485 350 q 480 412 485 379 q 460 489 475 444 q 412 563 446 534 q 328 591 378 591 q 281 582 305 591 q 228 549 257 572 q 178 474 199 526 q 155 350 158 422 z "},"":{"ha":1088,"x_min":78,"x_max":1021,"o":"m 221 117 q 149 190 221 117 q 78 475 78 264 q 222 833 78 686 q 561 979 366 979 q 651 968 610 979 q 726 935 693 957 q 777 898 760 913 q 818 860 794 884 l 888 962 q 910 979 899 979 q 923 973 921 979 q 925 946 925 966 l 925 616 q 922 589 925 594 q 903 583 920 583 q 886 587 889 583 q 880 607 884 591 q 775 846 859 757 q 578 936 692 936 q 508 928 545 936 q 417 892 471 921 q 322 818 363 864 q 251 682 281 771 q 221 475 221 593 q 251 269 221 358 q 322 133 281 179 q 419 57 364 86 q 512 20 473 28 q 586 12 551 12 q 637 17 610 12 q 707 38 665 22 q 775 90 749 53 q 802 180 802 126 l 802 269 q 781 323 802 311 q 672 336 761 336 l 628 336 l 628 379 q 851 375 678 375 q 1021 379 867 375 l 1021 336 q 940 327 954 336 q 925 275 925 317 l 925 33 q 913 1 925 1 q 870 33 902 1 q 823 87 838 64 q 718 -1 790 29 q 564 -31 646 -31 q 221 117 363 -31 m 374 1057 l 559 1253 l 745 1057 l 721 1034 l 559 1179 l 398 1034 l 374 1057 z "},"":{"ha":694,"x_min":39,"x_max":673,"o":"m 39 -110 q 73 -26 39 -65 q 167 29 107 12 q 106 153 106 68 q 149 268 106 218 q 83 411 83 322 q 149 553 83 493 q 309 614 214 614 q 456 564 392 614 q 603 629 522 629 q 656 607 639 629 q 673 561 673 585 q 660 530 673 540 q 633 519 647 519 q 605 531 616 519 q 593 559 593 542 q 615 597 593 589 q 602 599 611 599 q 476 545 534 599 q 533 410 533 492 q 468 267 533 328 q 309 207 403 207 q 171 250 231 207 q 147 184 147 222 q 168 123 147 150 q 221 92 189 96 q 325 90 231 90 q 411 89 380 90 q 485 78 441 87 q 564 52 529 69 q 654 -107 654 1 q 563 -236 654 -186 q 346 -286 472 -286 q 129 -236 218 -286 q 39 -110 39 -185 m 111 -110 q 178 -211 111 -167 q 347 -254 245 -254 q 514 -211 447 -254 q 582 -110 582 -168 q 558 -42 582 -68 q 486 -5 534 -16 q 404 7 437 5 q 307 9 370 9 l 225 9 q 144 -28 178 7 q 111 -110 111 -62 m 123 694 l 309 901 l 310 901 l 494 694 l 470 669 l 310 828 l 309 828 l 147 669 l 123 694 m 187 410 q 309 239 187 239 q 407 294 370 239 q 429 411 429 332 q 309 582 429 582 q 210 526 248 582 q 187 410 187 489 z "},"":{"ha":1090,"x_min":77,"x_max":1021,"o":"m 77 475 q 219 831 77 683 q 566 979 361 979 q 821 913 714 979 q 901 977 899 977 q 908 978 904 978 q 925 950 925 978 l 925 775 q 901 743 925 743 q 883 756 890 743 q 871 789 876 770 q 845 836 867 808 q 787 886 823 863 q 591 936 707 937 q 496 924 543 936 q 397 880 449 913 q 308 797 346 847 q 244 664 269 747 q 220 473 220 581 q 245 280 220 365 q 310 146 271 196 q 400 66 349 97 q 496 23 452 35 q 583 12 541 12 q 727 50 669 12 q 798 140 785 87 q 800 186 800 156 l 800 267 q 774 324 800 313 q 644 335 749 335 l 627 335 l 627 378 q 851 374 739 374 l 861 374 q 1021 378 935 374 l 1021 335 q 963 333 979 335 q 936 318 947 330 q 925 277 925 306 l 925 33 q 911 4 926 4 q 870 28 896 4 q 823 87 844 53 l 822 87 q 562 -31 748 -31 q 221 116 365 -31 q 77 475 77 262 m 355 1238 l 387 1238 q 425 1153 391 1186 q 494 1109 458 1120 q 564 1099 529 1099 q 682 1133 627 1099 q 741 1238 736 1168 l 772 1238 q 708 1099 771 1152 q 564 1046 646 1046 q 419 1099 482 1046 q 355 1238 357 1152 z "},"":{"ha":694,"x_min":39,"x_max":673,"o":"m 39 -110 q 73 -26 39 -65 q 167 29 107 12 q 106 153 106 68 q 149 268 106 218 q 83 411 83 322 q 149 553 83 493 q 309 614 214 614 q 456 564 392 614 q 603 629 522 629 q 656 607 639 629 q 673 561 673 585 q 660 530 673 540 q 633 519 647 519 q 605 531 616 519 q 593 559 593 542 q 615 597 593 589 q 602 599 611 599 q 476 545 534 599 q 533 410 533 492 q 468 267 533 328 q 309 207 403 207 q 171 250 231 207 q 147 184 147 222 q 168 123 147 150 q 221 92 189 96 q 325 90 231 90 q 411 89 380 90 q 485 78 441 87 q 564 52 529 69 q 654 -107 654 1 q 563 -236 654 -186 q 346 -286 472 -286 q 129 -236 218 -286 q 39 -110 39 -185 m 111 -110 q 178 -211 111 -167 q 347 -254 245 -254 q 514 -211 447 -254 q 582 -110 582 -168 q 558 -42 582 -68 q 486 -5 534 -16 q 404 7 437 5 q 307 9 370 9 l 225 9 q 144 -28 178 7 q 111 -110 111 -62 m 138 888 l 170 888 q 192 820 172 849 q 241 776 212 790 q 296 757 271 762 q 346 751 322 751 q 465 786 410 751 q 524 888 519 821 l 554 888 q 488 749 550 799 q 346 699 425 699 q 204 749 267 699 q 138 888 142 799 m 187 410 q 309 239 187 239 q 407 294 370 239 q 429 411 429 332 q 309 582 429 582 q 210 526 248 582 q 187 410 187 489 z "},"":{"ha":1088,"x_min":78,"x_max":1021,"o":"m 221 117 q 149 190 221 117 q 78 475 78 264 q 222 833 78 686 q 561 979 366 979 q 651 968 610 979 q 726 935 693 957 q 777 898 760 913 q 818 860 794 884 l 888 962 q 910 979 899 979 q 923 973 921 979 q 925 946 925 966 l 925 616 q 922 589 925 594 q 903 583 920 583 q 886 587 889 583 q 880 607 884 591 q 775 846 859 757 q 578 936 692 936 q 508 928 545 936 q 417 892 471 921 q 322 818 363 864 q 251 682 281 771 q 221 475 221 593 q 251 269 221 358 q 322 133 281 179 q 419 57 364 86 q 512 20 473 28 q 586 12 551 12 q 637 17 610 12 q 707 38 665 22 q 775 90 749 53 q 802 180 802 126 l 802 269 q 781 323 802 311 q 672 336 761 336 l 628 336 l 628 379 q 851 375 678 375 q 1021 379 867 375 l 1021 336 q 940 327 954 336 q 925 275 925 317 l 925 33 q 913 1 925 1 q 870 33 902 1 q 823 87 838 64 q 718 -1 790 29 q 564 -31 646 -31 q 221 117 363 -31 m 507 1085 q 496 1096 507 1085 q 486 1137 486 1107 q 507 1190 486 1168 q 559 1211 529 1211 q 612 1190 590 1211 q 633 1137 633 1168 q 612 1085 633 1107 q 559 1064 590 1064 q 507 1085 529 1064 z "},"":{"ha":694,"x_min":39,"x_max":673,"o":"m 39 -110 q 73 -26 39 -65 q 167 29 107 12 q 106 153 106 68 q 149 268 106 218 q 83 411 83 322 q 149 553 83 493 q 309 614 214 614 q 456 564 392 614 q 603 629 522 629 q 656 607 639 629 q 673 561 673 585 q 660 530 673 540 q 633 519 647 519 q 605 531 616 519 q 593 559 593 542 q 615 597 593 589 q 602 599 611 599 q 476 545 534 599 q 533 410 533 492 q 468 267 533 328 q 309 207 403 207 q 171 250 231 207 q 147 184 147 222 q 168 123 147 150 q 221 92 189 96 q 325 90 231 90 q 411 89 380 90 q 485 78 441 87 q 564 52 529 69 q 654 -107 654 1 q 563 -236 654 -186 q 346 -286 472 -286 q 129 -236 218 -286 q 39 -110 39 -185 m 111 -110 q 178 -211 111 -167 q 347 -254 245 -254 q 514 -211 447 -254 q 582 -110 582 -168 q 558 -42 582 -68 q 486 -5 534 -16 q 404 7 437 5 q 307 9 370 9 l 225 9 q 144 -28 178 7 q 111 -110 111 -62 m 187 410 q 309 239 187 239 q 407 294 370 239 q 429 411 429 332 q 309 582 429 582 q 210 526 248 582 q 187 410 187 489 m 235 854 q 257 907 235 886 q 309 928 279 928 q 359 907 338 928 q 381 854 381 886 q 359 803 381 824 q 309 782 336 782 q 256 804 277 782 q 235 854 235 825 z "},"":{"ha":1088,"x_min":78,"x_max":1021,"o":"m 221 117 q 149 190 221 117 q 78 475 78 264 q 222 833 78 686 q 561 979 366 979 q 651 968 610 979 q 726 935 693 957 q 777 898 760 913 q 818 860 794 884 q 856 916 833 882 q 895 971 888 963 q 909 979 901 979 q 923 973 920 979 q 925 946 925 966 l 925 616 q 922 589 925 594 q 903 583 920 583 q 886 587 889 583 q 880 607 884 591 q 775 847 858 758 q 578 936 692 936 q 508 928 545 936 q 417 892 471 921 q 322 818 363 864 q 251 682 281 771 q 221 475 221 593 q 251 269 221 358 q 322 133 281 179 q 419 57 364 86 q 512 20 473 28 q 586 12 551 12 q 637 17 610 12 q 707 38 665 22 q 775 90 749 53 q 802 180 802 126 l 802 269 q 781 323 802 311 q 672 336 761 336 l 628 336 l 628 379 q 851 375 678 375 q 1021 379 867 375 l 1021 336 q 940 327 954 336 q 925 275 925 317 l 925 33 q 913 1 925 1 q 870 33 902 1 q 823 87 838 64 q 718 -1 790 29 q 564 -31 646 -31 q 221 117 363 -31 m 531 -189 q 523 -181 531 -189 q 515 -153 515 -174 q 529 -117 515 -132 q 566 -102 543 -102 q 610 -126 592 -102 q 628 -201 628 -151 q 595 -328 628 -265 q 539 -390 562 -390 q 530 -380 531 -390 q 549 -356 530 -378 q 587 -294 568 -335 q 606 -203 606 -253 l 606 -186 q 567 -204 587 -204 q 531 -189 546 -204 z "},"":{"ha":694,"x_min":39,"x_max":673,"o":"m 39 -110 q 73 -26 39 -65 q 167 29 107 12 q 106 153 106 68 q 149 268 106 218 q 83 411 83 322 q 149 553 83 493 q 309 614 214 614 q 456 564 392 614 q 603 629 522 629 q 656 607 639 629 q 673 561 673 585 q 660 530 673 540 q 633 519 647 519 q 605 531 616 519 q 593 559 593 542 q 615 597 593 589 q 602 599 611 599 q 476 545 534 599 q 533 410 533 492 q 468 267 533 328 q 309 207 403 207 q 171 250 231 207 q 147 184 147 222 q 168 123 147 150 q 221 92 189 96 q 325 90 231 90 q 411 89 380 90 q 485 78 441 87 q 564 52 529 69 q 654 -107 654 1 q 563 -236 654 -186 q 346 -286 472 -286 q 129 -236 218 -286 q 39 -110 39 -185 m 111 -110 q 178 -211 111 -167 q 347 -254 245 -254 q 514 -211 447 -254 q 582 -110 582 -168 q 558 -42 582 -68 q 486 -5 534 -16 q 404 7 437 5 q 307 9 370 9 l 225 9 q 144 -28 178 7 q 111 -110 111 -62 m 187 410 q 309 239 187 239 q 407 294 370 239 q 429 411 429 332 q 309 582 429 582 q 210 526 248 582 q 187 410 187 489 m 232 808 q 249 892 232 851 q 288 958 265 933 q 330 999 310 983 q 359 1014 350 1014 q 375 1000 375 1014 q 368 988 375 994 q 346 971 361 983 q 315 942 330 958 q 264 807 264 882 q 325 836 293 836 q 376 816 355 836 q 397 764 397 796 q 378 712 397 734 q 323 690 358 690 q 258 724 285 690 q 232 808 232 757 z "},"":{"ha":1042,"x_min":46,"x_max":994,"o":"m 46 0 l 46 43 l 79 43 q 172 55 155 43 q 189 109 189 68 l 189 840 q 172 893 189 880 q 79 905 154 905 l 46 905 l 46 949 q 252 945 95 945 q 456 949 407 945 l 456 905 l 422 905 q 330 893 347 905 q 313 840 313 880 l 313 515 l 728 515 l 728 840 q 710 893 728 880 q 618 905 693 905 l 585 905 l 585 949 q 790 945 633 945 q 994 949 945 945 l 994 905 l 961 905 q 868 893 886 905 q 851 840 851 880 l 851 109 q 869 56 851 68 q 961 43 886 43 l 994 43 l 994 0 q 789 4 945 4 q 585 0 633 4 l 585 43 l 618 43 q 710 55 693 43 q 728 109 728 68 l 728 472 l 313 472 l 313 109 q 330 56 313 68 q 422 43 347 43 l 456 43 l 456 0 q 250 4 407 4 q 46 0 95 4 m 334 1057 l 519 1253 l 705 1057 l 681 1034 l 519 1179 l 358 1034 l 334 1057 z "},"":{"ha":770,"x_min":45,"x_max":743,"o":"m 45 0 l 45 43 q 136 52 119 43 q 153 106 153 61 l 153 828 q 135 892 153 880 q 45 905 117 905 l 45 949 l 244 964 l 244 481 l 245 481 q 318 572 268 531 q 446 614 368 614 q 591 562 550 614 q 628 489 622 528 q 635 350 635 450 l 635 85 q 659 49 636 56 q 743 43 681 43 l 743 0 q 587 4 602 4 q 431 0 576 4 l 431 43 q 522 52 505 43 q 539 106 539 61 l 539 429 q 517 542 539 500 q 436 583 496 583 q 307 523 364 583 q 249 361 249 463 l 249 106 q 266 52 249 61 q 357 43 283 43 l 357 0 q 201 4 215 4 q 45 0 191 4 m 209 1036 l 395 1243 l 396 1243 l 581 1036 l 556 1011 l 396 1170 l 395 1170 l 233 1011 l 209 1036 z "},"":{"ha":1042,"x_min":46,"x_max":994,"o":"m 46 0 l 46 43 l 79 43 q 172 55 155 43 q 189 109 189 68 l 189 717 l 81 717 q 46 739 46 717 q 90 761 46 761 l 189 761 l 189 840 q 172 893 189 880 q 79 905 154 905 l 46 905 l 46 949 q 252 945 95 945 q 456 949 407 945 l 456 905 l 422 905 q 330 893 347 905 q 313 840 313 880 l 313 761 l 728 761 l 728 840 q 710 893 728 880 q 618 905 693 905 l 585 905 l 585 949 q 790 945 633 945 q 994 949 945 945 l 994 905 l 961 905 q 868 893 886 905 q 851 840 851 880 l 851 761 l 954 761 q 994 739 994 761 q 958 717 994 717 l 851 717 l 851 109 q 869 56 851 68 q 961 43 886 43 l 994 43 l 994 0 q 789 4 945 4 q 585 0 633 4 l 585 43 l 618 43 q 710 55 693 43 q 728 109 728 68 l 728 472 l 313 472 l 313 109 q 330 56 313 68 q 422 43 347 43 l 456 43 l 456 0 q 250 4 407 4 q 46 0 95 4 m 313 515 l 728 515 l 728 717 l 313 717 l 313 515 z "},"":{"ha":809,"x_min":36,"x_max":779,"o":"m 36 760 q 79 782 36 782 l 189 782 l 189 819 q 189 844 189 839 q 187 863 189 848 q 180 883 184 878 q 165 894 175 888 q 140 903 155 900 q 81 907 111 907 l 81 950 l 282 965 l 282 782 l 441 782 q 478 760 477 782 q 441 739 478 739 l 282 739 l 282 576 l 283 481 q 355 571 306 530 q 484 612 404 612 q 574 596 536 612 q 631 561 612 581 q 660 508 650 541 q 671 455 669 475 q 672 407 672 436 l 672 103 q 676 69 672 81 q 694 52 681 57 q 719 44 708 46 q 760 43 729 43 l 779 43 l 779 0 q 618 4 697 4 l 612 4 q 467 0 547 4 l 467 43 l 479 43 q 559 55 543 43 q 575 107 575 66 l 575 419 q 553 537 575 494 q 475 581 532 579 l 473 581 q 345 524 404 581 q 286 349 286 467 l 286 102 q 305 54 286 64 q 385 43 323 43 l 395 43 l 395 0 q 233 4 314 4 l 227 4 q 81 0 161 4 l 81 43 l 93 43 q 145 45 129 43 q 174 58 161 47 q 189 93 187 69 l 189 739 l 71 739 q 36 760 36 739 z "},"":{"ha":501,"x_min":-1,"x_max":499,"o":"m -1 1048 l -1 1093 l 499 1093 l 499 1048 l -1 1048 m 39 0 l 39 43 l 75 43 q 171 55 153 43 q 189 109 189 68 l 189 840 q 171 893 189 880 q 75 905 153 905 l 39 905 l 39 949 q 252 945 87 945 q 463 949 414 945 l 463 905 l 427 905 q 331 893 349 905 q 313 840 313 880 l 313 109 q 331 56 313 68 q 427 43 349 43 l 463 43 l 463 0 q 250 4 414 4 q 39 0 87 4 z "},"":{"ha":385,"x_min":-50,"x_max":450,"o":"m -50 764 l -50 808 l 450 808 l 450 764 l -50 764 m 46 0 l 46 43 q 137 52 120 43 q 154 106 154 61 l 154 479 q 137 543 154 531 q 52 555 119 555 l 52 599 l 245 614 l 245 104 q 260 53 245 63 q 343 43 275 43 l 343 0 q 199 4 201 4 q 46 0 180 4 z "},"":{"ha":501,"x_min":39,"x_max":463,"o":"m 39 0 l 39 43 l 75 43 q 171 55 153 43 q 189 109 189 68 l 189 840 q 171 893 189 880 q 75 905 153 905 l 39 905 l 39 949 q 252 945 87 945 q 463 949 414 945 l 463 905 l 427 905 q 331 893 349 905 q 313 840 313 880 l 313 109 q 331 56 313 68 q 427 43 349 43 l 463 43 l 463 0 q 296 4 404 4 q 238 -43 276 -1 q 200 -131 200 -85 q 236 -207 200 -176 q 314 -237 272 -237 q 370 -219 347 -237 q 403 -181 392 -200 q 421 -161 414 -161 q 433 -176 433 -161 q 392 -256 433 -211 q 288 -301 351 -301 q 183 -263 229 -301 q 138 -164 138 -225 q 236 4 138 -78 q 39 0 85 4 z "},"":{"ha":385,"x_min":46,"x_max":378,"o":"m 46 0 l 46 43 q 137 52 120 43 q 154 106 154 61 l 154 479 q 137 543 154 531 q 52 555 119 555 l 52 599 l 245 614 l 245 104 q 260 53 245 63 q 343 43 275 43 l 343 0 q 304 1 331 0 q 262 3 277 3 q 193 -33 211 -14 q 144 -131 144 -79 q 180 -207 144 -177 q 258 -237 216 -237 q 314 -219 292 -237 q 347 -181 336 -200 q 366 -161 358 -161 q 378 -176 378 -161 q 337 -256 378 -211 q 232 -301 296 -301 q 128 -263 174 -301 q 82 -164 82 -225 q 179 4 82 -78 l 46 0 m 104 856 q 126 906 104 884 q 178 929 147 929 q 230 908 208 929 q 252 856 252 888 q 230 803 252 823 q 178 782 208 782 q 125 804 146 782 q 104 856 104 827 z "},"":{"ha":501,"x_min":39,"x_max":463,"o":"m 39 0 l 39 43 l 75 43 q 171 55 153 43 q 189 109 189 68 l 189 840 q 171 893 189 880 q 75 905 153 905 l 39 905 l 39 949 q 252 945 87 945 q 463 949 414 945 l 463 905 l 427 905 q 331 893 349 905 q 313 840 313 880 l 313 109 q 331 56 313 68 q 427 43 349 43 l 463 43 l 463 0 q 250 4 414 4 q 39 0 87 4 m 176 1138 q 198 1191 176 1170 q 250 1211 220 1211 q 300 1191 279 1211 q 322 1138 322 1170 q 300 1086 322 1107 q 250 1065 277 1065 q 197 1087 218 1065 q 176 1138 176 1109 z "},"":{"ha":385,"x_min":46,"x_max":343,"o":"m 46 0 l 46 43 q 137 52 120 43 q 154 106 154 61 l 154 479 q 137 543 154 531 q 52 555 119 555 l 52 599 l 245 614 l 245 104 q 260 53 245 63 q 343 43 275 43 l 343 0 q 199 4 201 4 q 46 0 180 4 z "},"":{"ha":712,"x_min":57,"x_max":665,"o":"m 57 155 q 81 216 57 197 q 135 236 106 236 q 189 215 165 236 q 212 158 212 195 q 123 81 212 80 q 277 0 174 0 q 377 57 335 0 q 419 205 419 114 l 419 839 q 414 879 419 868 q 379 898 408 890 q 283 905 350 905 l 233 905 l 233 949 q 467 945 286 945 q 646 949 554 945 l 646 905 q 557 897 575 905 q 539 848 539 889 l 539 232 q 538 171 539 182 q 454 29 526 89 q 279 -31 382 -31 q 122 23 186 -31 q 57 155 57 77 m 294 1057 l 479 1253 l 665 1057 l 641 1034 l 479 1179 l 318 1034 l 294 1057 z "},"":{"ha":423,"x_min":-56,"x_max":432,"o":"m -56 -174 q -38 -128 -56 -146 q 8 -110 -21 -110 q 55 -128 37 -110 q 72 -174 72 -146 q 57 -215 72 -199 q 24 -236 43 -231 q 98 -254 60 -254 q 152 -235 130 -254 q 183 -185 174 -216 q 197 -128 193 -154 q 200 -72 200 -102 l 200 478 q 180 543 200 530 q 81 555 160 555 l 81 599 l 292 614 l 292 -69 q 236 -223 292 -162 q 102 -285 180 -285 q -9 -255 38 -285 q -56 -174 -56 -225 m 60 694 l 246 901 l 248 901 l 432 694 l 408 669 l 248 828 l 246 828 l 85 669 l 60 694 z "},"":{"ha":1079,"x_min":46,"x_max":1022,"o":"m 46 0 l 46 43 l 79 43 q 172 55 155 43 q 189 109 189 68 l 189 840 q 172 893 189 880 q 79 905 154 905 l 46 905 l 46 949 q 252 945 95 945 q 456 949 407 945 l 456 905 l 422 905 q 330 893 347 905 q 313 840 313 880 l 313 399 l 747 814 q 772 860 772 836 q 769 877 772 868 q 749 896 765 886 q 708 905 733 905 l 708 949 q 885 945 755 945 q 1003 949 967 945 l 1003 905 q 806 822 888 904 l 555 582 l 876 110 q 934 55 905 67 q 1022 43 962 43 l 1022 0 q 863 4 935 4 q 664 0 713 4 l 664 43 q 746 85 746 43 q 725 132 746 100 l 473 504 l 313 351 l 313 109 q 330 56 313 68 q 422 43 347 43 l 456 43 l 456 0 q 250 4 407 4 q 46 0 95 4 m 519 -189 q 512 -181 519 -189 q 504 -153 504 -174 q 518 -117 504 -132 q 554 -102 532 -102 q 598 -126 581 -102 q 616 -201 616 -151 q 584 -328 616 -265 q 528 -390 551 -390 q 519 -380 519 -390 q 538 -356 519 -378 q 576 -294 557 -335 q 595 -203 595 -253 l 595 -186 q 555 -204 576 -204 q 519 -189 534 -204 z "},"":{"ha":732,"x_min":39,"x_max":710,"o":"m 39 0 l 39 43 q 130 52 113 43 q 147 106 147 61 l 147 828 q 129 892 147 880 q 39 905 111 905 l 39 949 l 239 964 l 239 297 q 450 484 439 469 q 465 521 466 500 q 425 555 465 553 l 425 599 q 581 595 484 595 q 677 599 637 595 l 677 555 q 503 481 590 551 q 436 425 483 465 q 390 380 390 385 q 575 117 390 378 q 637 55 611 66 q 710 43 664 43 l 710 0 q 589 4 650 4 q 439 0 555 4 l 439 43 q 489 75 489 43 q 376 253 489 98 q 350 288 368 264 q 323 325 333 313 l 235 249 l 235 106 q 252 52 235 61 q 343 43 269 43 l 343 0 q 191 4 260 4 q 39 0 176 4 m 354 -189 q 347 -181 354 -189 q 339 -153 339 -174 q 353 -117 339 -132 q 389 -102 367 -102 q 433 -126 415 -102 q 452 -201 452 -151 q 419 -328 452 -265 q 363 -390 386 -390 q 354 -380 355 -390 q 373 -356 354 -378 q 411 -294 392 -335 q 429 -203 429 -253 l 429 -186 q 390 -204 411 -204 q 354 -189 370 -204 z "},"":{"ha":868,"x_min":46,"x_max":808,"o":"m 46 0 l 46 43 l 79 43 q 172 55 155 43 q 189 109 189 68 l 189 840 q 172 893 189 880 q 79 905 154 905 l 46 905 l 46 949 q 257 945 95 945 q 490 949 440 945 l 490 905 l 444 905 q 351 897 380 905 q 317 878 322 889 q 313 839 313 867 l 313 98 q 323 53 313 62 q 380 43 334 43 l 494 43 q 616 64 565 43 q 694 111 667 85 q 739 188 721 138 q 763 269 757 237 q 774 358 768 301 l 808 358 l 770 0 l 46 0 m 123 1063 q 345 1196 331 1192 q 356 1197 349 1197 q 389 1180 376 1197 q 403 1145 403 1164 q 345 1095 403 1105 q 136 1030 155 1036 l 123 1063 z "},"":{"ha":385,"x_min":46,"x_max":414,"o":"m 46 0 l 46 43 q 137 52 120 43 q 154 106 154 61 l 154 828 q 136 892 154 880 q 46 905 118 905 l 46 949 l 245 964 l 245 106 q 263 52 245 61 q 354 43 281 43 l 354 0 q 302 1 337 0 q 241 3 267 3 q 200 4 215 4 q 46 0 184 4 m 134 1063 q 355 1196 342 1192 q 367 1197 359 1197 q 401 1180 388 1197 q 414 1146 414 1164 q 403 1117 414 1129 q 384 1103 392 1105 q 354 1093 375 1100 l 149 1029 l 134 1063 z "},"":{"ha":868,"x_min":46,"x_max":808,"o":"m 46 0 l 46 43 l 79 43 q 172 55 155 43 q 189 109 189 68 l 189 840 q 172 893 189 880 q 79 905 154 905 l 46 905 l 46 949 q 257 945 95 945 q 490 949 440 945 l 490 905 l 444 905 q 351 897 380 905 q 317 878 322 889 q 313 839 313 867 l 313 98 q 323 53 313 62 q 380 43 334 43 l 494 43 q 616 64 565 43 q 694 111 667 85 q 739 188 721 138 q 763 269 757 237 q 774 358 768 301 l 808 358 l 770 0 l 46 0 m 442 -189 q 434 -181 442 -189 q 427 -153 427 -174 q 440 -117 427 -132 q 476 -102 454 -102 q 521 -126 503 -102 q 539 -201 539 -151 q 506 -328 539 -265 q 450 -390 473 -390 q 441 -380 442 -390 q 460 -356 441 -378 q 498 -294 479 -335 q 517 -203 517 -253 l 517 -186 q 478 -204 498 -204 q 442 -189 457 -204 z "},"":{"ha":385,"x_min":46,"x_max":354,"o":"m 46 0 l 46 43 q 137 52 120 43 q 154 106 154 61 l 154 828 q 136 892 154 880 q 46 905 118 905 l 46 949 l 245 964 l 245 106 q 263 52 245 61 q 354 43 281 43 l 354 0 q 302 1 337 0 q 241 3 267 3 q 200 4 215 4 q 46 0 184 4 m 169 -189 q 162 -181 169 -189 q 154 -153 154 -174 q 168 -117 154 -132 q 204 -102 182 -102 q 249 -126 231 -102 q 267 -201 267 -151 q 234 -328 267 -265 q 178 -390 201 -390 q 170 -380 170 -390 q 188 -356 170 -378 q 225 -294 207 -335 q 244 -203 244 -253 l 244 -186 q 205 -204 226 -204 q 169 -189 184 -204 z "},"":{"ha":868,"x_min":46,"x_max":808,"o":"m 46 0 l 46 43 l 79 43 q 172 55 155 43 q 189 109 189 68 l 189 840 q 172 893 189 880 q 79 905 154 905 l 46 905 l 46 949 q 257 945 95 945 q 490 949 440 945 l 490 905 l 444 905 q 351 897 380 905 q 317 878 322 889 q 313 839 313 867 l 313 98 q 323 53 313 62 q 380 43 334 43 l 494 43 q 616 64 565 43 q 694 111 667 85 q 739 188 721 138 q 763 269 757 237 q 774 358 768 301 l 808 358 l 770 0 l 46 0 m 571 1007 q 590 1058 571 1036 q 644 1080 610 1080 q 711 1046 684 1080 q 737 962 737 1011 q 710 855 737 905 q 653 781 682 804 q 610 757 624 757 q 595 770 594 757 q 612 790 595 775 q 650 824 629 806 q 688 881 671 843 q 705 964 705 920 q 644 933 679 933 q 592 955 612 933 q 571 1007 571 977 z "},"":{"ha":559,"x_min":46,"x_max":473,"o":"m 46 0 l 46 43 q 137 52 120 43 q 154 106 154 61 l 154 828 q 136 892 154 880 q 46 905 118 905 l 46 949 l 245 964 l 245 106 q 263 52 245 61 q 354 43 281 43 l 354 0 q 302 1 337 0 q 241 3 267 3 q 200 4 215 4 q 46 0 184 4 m 309 949 q 328 1000 309 978 q 382 1022 347 1022 q 445 991 416 1022 q 473 904 473 960 q 446 797 473 847 q 389 722 418 746 q 346 699 359 699 q 330 711 330 699 q 348 732 330 717 q 386 766 366 747 q 424 823 407 785 q 441 905 441 861 q 380 876 416 876 q 329 897 349 876 q 309 949 309 918 z "},"":{"ha":868,"x_min":46,"x_max":808,"o":"m 46 0 l 46 43 l 79 43 q 172 55 155 43 q 189 109 189 68 l 189 840 q 172 893 189 880 q 79 905 154 905 l 46 905 l 46 949 q 257 945 95 945 q 490 949 440 945 l 490 905 l 444 905 q 351 897 380 905 q 317 878 322 889 q 313 839 313 867 l 313 98 q 323 53 313 62 q 380 43 334 43 l 494 43 q 616 64 565 43 q 694 111 667 85 q 739 188 721 138 q 763 269 757 237 q 774 358 768 301 l 808 358 l 770 0 l 46 0 m 534 456 q 523 467 534 456 q 513 507 513 478 q 534 558 513 536 q 587 579 555 579 q 638 559 617 579 q 659 507 659 539 q 636 454 659 475 q 587 433 614 433 q 534 456 555 433 z "},"":{"ha":537,"x_min":46,"x_max":500,"o":"m 46 0 l 46 43 q 137 52 120 43 q 154 106 154 61 l 154 828 q 136 892 154 880 q 46 905 118 905 l 46 949 l 245 964 l 245 106 q 263 52 245 61 q 354 43 281 43 l 354 0 q 302 1 337 0 q 241 3 267 3 q 200 4 215 4 q 46 0 184 4 m 375 285 q 365 296 375 285 q 354 336 354 307 q 375 387 354 366 q 428 408 396 408 q 479 388 458 408 q 500 336 500 368 q 478 283 500 304 q 428 262 456 262 q 375 285 396 262 z "},"":{"ha":868,"x_min":46,"x_max":810,"o":"m 46 0 l 46 43 l 60 43 q 166 53 143 43 q 189 106 189 64 l 189 414 l 87 330 l 60 364 q 93 391 77 378 q 120 413 110 404 q 141 430 131 421 q 158 444 151 439 q 170 454 164 449 q 178 463 175 460 q 183 470 180 467 q 186 477 186 473 q 188 484 187 481 q 189 490 189 486 l 189 843 q 166 894 189 883 q 61 905 143 905 l 46 905 l 46 949 q 252 945 138 945 q 490 949 372 945 l 490 905 l 475 905 q 339 895 365 905 q 313 838 313 884 l 313 574 l 517 742 l 545 708 l 339 539 q 316 516 319 524 q 313 485 313 509 l 313 93 q 321 58 313 69 q 343 45 330 47 q 385 43 357 43 l 479 43 q 576 53 534 43 q 647 76 618 62 q 698 118 676 90 q 731 166 720 146 q 753 227 743 187 q 765 290 762 267 q 774 358 768 314 l 810 358 l 771 0 l 46 0 z "},"":{"ha":467,"x_min":82,"x_max":411,"o":"m 82 392 q 126 428 100 406 q 183 476 174 465 q 192 505 192 486 l 192 819 q 172 892 192 879 q 83 905 153 905 l 83 949 l 285 964 l 285 561 l 383 642 l 411 608 q 292 507 298 517 q 285 484 285 498 l 285 102 q 303 54 286 64 q 382 43 321 43 l 393 43 l 393 0 q 235 4 314 4 q 83 0 158 4 l 83 43 l 93 43 q 172 52 153 43 q 192 97 191 61 l 192 427 l 110 358 l 82 392 z "},"":{"ha":1042,"x_min":46,"x_max":994,"o":"m 46 0 l 46 43 q 128 53 96 43 q 172 81 160 62 q 186 112 183 100 q 189 146 189 125 l 189 871 q 184 895 189 890 q 155 903 179 900 q 86 905 114 905 l 46 905 l 46 949 l 282 949 q 307 946 302 949 q 322 930 313 943 l 812 210 l 812 803 q 810 836 812 824 q 795 867 807 848 q 751 896 783 886 q 669 905 720 905 l 669 949 q 832 945 815 945 q 994 949 848 945 l 994 905 q 912 896 944 905 q 869 867 880 886 q 854 836 857 848 q 851 803 851 823 l 851 36 q 848 7 851 14 q 832 0 846 0 q 808 18 823 0 l 241 851 q 228 868 236 859 l 228 146 q 231 112 228 125 q 245 81 233 100 q 289 53 257 62 q 371 43 321 43 l 371 0 q 209 4 225 4 q 46 0 192 4 m 397 1063 q 619 1196 606 1192 q 631 1197 623 1197 q 664 1180 650 1197 q 677 1145 677 1164 q 619 1095 677 1105 q 411 1030 430 1036 l 397 1063 z "},"":{"ha":770,"x_min":45,"x_max":743,"o":"m 45 0 l 45 43 q 136 52 119 43 q 153 106 153 61 l 153 478 q 135 543 153 530 q 45 555 117 555 l 45 599 l 240 614 l 240 468 q 446 614 305 614 q 591 562 550 614 q 628 489 622 528 q 635 350 635 450 l 635 85 q 659 49 636 56 q 743 43 681 43 l 743 0 q 587 4 602 4 q 431 0 576 4 l 431 43 q 522 52 505 43 q 539 106 539 61 l 539 429 q 517 542 539 500 q 436 583 496 583 q 307 523 364 583 q 249 361 249 463 l 249 106 q 266 52 249 61 q 357 43 283 43 l 357 0 q 201 4 215 4 q 45 0 191 4 m 304 708 q 395 798 341 744 q 479 878 462 864 q 512 892 497 892 q 547 875 533 892 q 561 840 561 859 q 558 826 561 832 q 552 814 555 819 q 542 805 549 810 q 532 798 536 800 q 522 792 529 796 q 512 786 514 787 q 325 681 330 683 l 304 708 z "},"":{"ha":1042,"x_min":46,"x_max":994,"o":"m 46 0 l 46 43 q 128 53 96 43 q 172 81 160 62 q 186 112 183 100 q 189 146 189 125 l 189 871 q 175 900 189 895 q 86 905 160 905 l 46 905 l 46 949 l 282 949 q 307 946 302 949 q 322 930 313 943 l 812 210 l 812 803 q 810 836 812 824 q 795 867 807 848 q 751 896 783 886 q 669 905 720 905 l 669 949 q 832 945 815 945 q 994 949 848 945 l 994 905 q 912 896 944 905 q 869 867 880 886 q 854 836 857 848 q 851 803 851 823 l 851 36 q 848 7 851 14 q 832 0 846 0 q 808 18 823 0 l 241 851 q 228 868 236 859 l 228 146 q 231 112 228 125 q 245 81 233 100 q 289 53 257 62 q 371 43 321 43 l 371 0 q 209 4 225 4 q 46 0 192 4 m 506 -189 q 498 -181 506 -189 q 490 -153 490 -174 q 504 -117 490 -132 q 541 -102 518 -102 q 585 -126 567 -102 q 603 -201 603 -151 q 570 -328 603 -265 q 514 -390 538 -390 q 505 -380 506 -390 q 524 -356 505 -378 q 562 -294 543 -335 q 581 -203 581 -253 l 581 -186 q 542 -204 562 -204 q 506 -189 521 -204 z "},"":{"ha":770,"x_min":45,"x_max":743,"o":"m 45 0 l 45 43 q 136 52 119 43 q 153 106 153 61 l 153 478 q 135 543 153 530 q 45 555 117 555 l 45 599 l 240 614 l 240 468 q 446 614 305 614 q 535 600 498 614 q 590 567 571 586 q 620 513 610 547 q 633 452 631 479 q 635 383 635 425 l 635 85 q 659 49 636 56 q 743 43 681 43 l 743 0 q 587 4 602 4 q 431 0 576 4 l 431 43 q 522 52 505 43 q 539 106 539 61 l 539 429 q 517 542 539 500 q 436 583 496 583 q 307 523 364 583 q 249 361 249 463 l 249 106 q 266 52 249 61 q 357 43 283 43 l 357 0 q 201 4 215 4 q 45 0 191 4 m 367 -189 q 359 -181 367 -189 q 351 -153 351 -174 q 365 -117 351 -132 q 401 -102 379 -102 q 446 -126 428 -102 q 464 -201 464 -151 q 431 -328 464 -265 q 375 -390 399 -390 q 367 -380 367 -390 q 386 -356 367 -378 q 423 -294 404 -335 q 441 -203 441 -253 l 441 -186 q 402 -204 423 -204 q 367 -189 382 -204 z "},"":{"ha":1042,"x_min":46,"x_max":994,"o":"m 46 0 l 46 43 q 128 53 96 43 q 172 81 160 62 q 186 112 183 100 q 189 146 189 125 l 189 871 q 184 895 189 890 q 155 903 179 900 q 86 905 114 905 l 46 905 l 46 949 l 282 949 q 307 946 302 949 q 322 930 313 943 l 812 210 l 812 803 q 810 836 812 824 q 795 867 807 848 q 751 896 783 886 q 669 905 720 905 l 669 949 q 832 945 815 945 q 994 949 848 945 l 994 905 q 912 896 944 905 q 869 867 880 886 q 854 836 857 848 q 851 803 851 823 l 851 36 q 848 7 851 14 q 832 0 846 0 q 808 18 823 0 l 241 851 q 228 868 236 859 l 228 146 q 231 112 228 125 q 245 81 233 100 q 289 53 257 62 q 371 43 321 43 l 371 0 q 209 4 225 4 q 46 0 192 4 m 309 1276 l 323 1299 l 325 1299 q 381 1265 353 1282 q 426 1239 410 1249 q 459 1219 441 1229 q 485 1205 476 1210 q 502 1196 493 1200 q 515 1190 510 1192 q 524 1189 519 1189 q 563 1209 529 1189 q 645 1257 597 1229 q 717 1299 692 1286 l 733 1276 q 553 1123 579 1144 q 521 1103 528 1103 q 389 1207 511 1103 q 309 1276 340 1250 z "},"":{"ha":770,"x_min":45,"x_max":743,"o":"m 45 0 l 45 43 q 136 52 119 43 q 153 106 153 61 l 153 478 q 135 543 153 530 q 45 555 117 555 l 45 599 l 240 614 l 240 468 q 446 614 305 614 q 591 562 550 614 q 628 489 622 528 q 635 350 635 450 l 635 85 q 659 49 636 56 q 743 43 681 43 l 743 0 q 587 4 602 4 q 431 0 576 4 l 431 43 q 522 52 505 43 q 539 106 539 61 l 539 429 q 517 542 539 500 q 436 583 496 583 q 307 523 364 583 q 249 361 249 463 l 249 106 q 266 52 249 61 q 357 43 283 43 l 357 0 q 201 4 215 4 q 45 0 191 4 m 125 876 l 143 897 q 337 772 329 772 q 368 787 346 772 q 534 897 391 802 l 550 876 l 339 672 l 338 672 l 125 876 z "},"":{"ha":1079,"x_min":78,"x_max":1002,"o":"m 78 471 q 214 831 78 683 q 539 979 350 979 q 866 831 730 979 q 1002 471 1002 682 q 865 115 1002 261 q 539 -31 729 -31 q 215 115 352 -31 q 78 471 78 260 m 221 490 q 252 263 221 361 q 331 111 282 164 q 433 31 380 57 q 541 5 486 5 q 645 31 593 5 q 747 109 697 56 q 827 260 796 161 q 859 490 859 359 q 837 674 859 592 q 781 805 815 755 q 704 887 747 854 q 619 932 660 920 q 539 945 578 945 q 439 923 490 945 q 337 853 389 901 q 254 712 286 806 q 221 490 221 618 m 359 1063 q 581 1196 567 1192 q 592 1197 585 1197 q 625 1180 612 1197 q 639 1145 639 1164 q 581 1095 639 1105 q 372 1030 391 1036 l 359 1063 m 591 1063 q 812 1196 799 1192 q 824 1197 817 1197 q 857 1180 844 1197 q 871 1145 871 1164 q 812 1095 871 1105 q 604 1030 623 1036 l 591 1063 z "},"":{"ha":694,"x_min":39,"x_max":669,"o":"m 131 75 q 85 120 131 75 q 39 297 39 165 q 129 526 39 429 q 347 623 218 623 q 564 527 473 623 q 654 297 654 431 q 563 75 654 166 q 346 -16 472 -16 q 131 75 222 -16 m 154 309 q 189 113 154 174 q 347 20 243 20 q 442 47 399 20 q 509 122 485 75 q 539 309 539 183 q 503 501 539 442 q 346 591 448 591 q 257 568 301 591 q 187 498 214 545 q 154 309 154 437 m 180 708 q 272 798 218 744 q 356 878 338 864 q 389 892 374 892 q 424 875 410 892 q 437 840 437 859 q 435 826 437 832 q 429 814 432 819 q 419 805 425 810 q 409 798 412 800 q 398 792 406 796 q 389 786 391 787 q 201 681 207 683 l 180 708 m 412 708 q 504 798 450 744 q 588 878 570 864 q 621 892 606 892 q 655 875 642 892 q 669 840 669 859 q 667 826 669 832 q 661 814 664 819 q 651 805 657 810 q 641 798 644 800 q 630 792 637 796 q 621 786 623 787 q 433 681 439 683 l 412 708 z "},"":{"ha":1408,"x_min":96,"x_max":1368,"o":"m 233 113 q 164 185 233 113 q 96 471 96 257 q 233 832 96 685 q 555 979 370 979 q 662 964 594 979 q 785 949 730 949 l 1291 949 l 1329 636 l 1295 636 q 1280 733 1286 699 q 1255 807 1274 768 q 1207 868 1236 846 q 1022 905 1154 905 l 895 905 q 836 897 852 905 q 819 854 821 889 l 819 514 l 953 514 q 1073 531 1035 514 q 1122 604 1111 547 q 1126 676 1126 628 l 1162 676 l 1162 310 l 1126 310 l 1126 325 q 1090 444 1126 416 q 961 472 1054 472 l 819 472 l 819 97 q 834 52 819 61 q 893 43 848 43 l 1028 43 q 1132 50 1089 43 q 1206 76 1175 57 q 1256 115 1238 94 q 1290 178 1275 136 q 1313 256 1305 220 q 1332 358 1321 293 l 1368 358 l 1310 0 l 785 0 q 663 -15 730 0 q 555 -31 596 -31 q 233 113 371 -31 m 236 490 q 329 146 236 290 q 559 1 422 1 q 616 8 591 1 q 656 26 640 16 q 683 60 672 36 q 700 101 694 83 q 708 160 705 119 q 712 228 711 200 q 713 311 713 256 l 713 632 q 710 753 713 711 q 701 840 708 794 q 677 904 693 885 q 633 936 661 922 q 559 949 604 949 q 332 818 427 949 q 236 490 236 688 z "},"":{"ha":1080,"x_min":37,"x_max":1040,"o":"m 126 78 q 82 124 126 78 q 37 304 37 171 q 126 529 37 437 q 335 621 215 621 q 470 585 407 621 q 575 482 533 549 l 576 482 q 807 621 663 621 q 978 544 916 621 q 1040 351 1040 468 q 1033 325 1040 330 q 1008 319 1025 319 l 627 319 q 679 104 627 176 q 831 21 740 21 q 935 58 890 21 q 997 146 979 96 q 999 154 997 147 q 1003 163 1002 160 q 1008 172 1004 167 q 1015 178 1011 176 q 1023 180 1018 180 q 1038 161 1037 180 q 1024 120 1038 148 q 987 62 1011 93 q 920 7 964 31 q 823 -16 876 -16 q 603 93 691 -16 l 578 127 q 472 22 536 60 q 335 -16 408 -16 q 126 78 214 -16 m 146 309 q 174 138 146 203 q 236 54 193 90 q 335 17 278 17 q 398 31 367 17 q 460 75 429 45 q 510 167 492 106 q 529 311 529 228 q 501 469 529 408 q 436 553 480 517 q 335 589 392 589 q 205 525 261 589 q 146 309 146 456 m 628 350 l 947 350 q 843 582 943 545 q 804 589 822 589 q 763 581 785 589 q 711 552 742 574 q 658 478 681 530 q 628 350 635 427 z "},"":{"ha":1022,"x_min":49,"x_max":1017,"o":"m 49 0 l 49 43 l 82 43 q 175 55 157 43 q 192 109 192 68 l 192 840 q 174 893 192 880 q 82 905 157 905 l 49 905 l 49 949 l 485 949 q 742 874 636 949 q 847 699 847 800 q 779 559 847 621 q 604 472 710 498 q 774 311 742 425 l 791 200 q 801 140 797 160 q 810 92 804 119 q 823 51 817 64 q 839 23 829 37 q 861 5 848 9 q 890 0 873 0 q 949 28 922 0 q 982 123 977 57 q 999 146 985 146 q 1017 122 1017 146 q 1011 81 1017 104 q 992 32 1006 58 q 951 -13 979 5 q 885 -31 922 -31 q 710 28 777 -31 q 670 85 682 53 q 655 144 657 118 q 653 227 653 170 q 645 342 653 307 q 600 412 636 378 q 471 460 551 460 l 311 460 l 311 109 q 329 56 311 68 q 421 43 346 43 l 454 43 l 454 0 q 252 4 404 4 q 49 0 99 4 m 311 490 l 465 490 q 589 508 539 490 q 663 559 639 526 q 695 624 686 591 q 704 699 704 657 q 693 784 704 747 q 659 842 682 821 q 611 878 635 864 q 551 897 587 892 q 489 904 514 903 q 424 905 464 905 q 342 903 356 905 q 320 894 326 901 q 313 878 314 886 q 311 850 311 869 l 311 490 m 396 1063 q 618 1196 604 1192 q 629 1197 622 1197 q 663 1180 649 1197 q 676 1145 676 1164 q 618 1095 676 1105 q 410 1030 429 1036 l 396 1063 z "},"":{"ha":543,"x_min":39,"x_max":505,"o":"m 39 0 l 39 43 q 130 52 113 43 q 147 106 147 61 l 147 478 q 129 543 147 530 q 39 555 111 555 l 39 599 l 232 614 l 232 461 q 293 567 252 521 q 403 614 335 614 q 476 589 448 614 q 505 529 505 564 q 487 483 505 498 q 446 468 468 468 q 403 484 420 468 q 386 528 386 500 q 394 558 386 545 q 408 576 401 571 q 418 582 414 581 q 403 583 415 583 q 282 507 326 583 q 239 322 239 431 l 239 109 q 255 56 239 68 q 345 43 272 43 l 374 43 l 374 0 q 197 4 318 4 q 154 3 180 4 q 93 1 127 3 q 39 0 58 0 m 203 708 q 296 799 240 745 q 380 879 363 865 q 411 892 396 892 q 446 875 432 892 q 460 840 460 859 q 456 820 460 829 q 441 804 452 811 q 427 794 431 796 q 411 786 422 791 q 224 681 229 683 l 203 708 z "},"":{"ha":1022,"x_min":49,"x_max":1017,"o":"m 49 0 l 49 43 l 82 43 q 175 55 157 43 q 192 109 192 68 l 192 840 q 174 893 192 880 q 82 905 157 905 l 49 905 l 49 949 l 485 949 q 742 874 636 949 q 847 699 847 800 q 779 559 847 621 q 604 472 710 498 q 774 311 742 425 l 791 200 q 801 140 797 160 q 810 92 804 119 q 823 51 817 64 q 839 23 829 37 q 861 5 848 9 q 890 0 873 0 q 949 28 922 0 q 982 123 977 57 q 999 146 985 146 q 1017 122 1017 146 q 1011 81 1017 104 q 992 32 1006 58 q 951 -13 979 5 q 885 -31 922 -31 q 710 28 777 -31 q 670 85 682 53 q 655 144 657 118 q 653 227 653 170 q 645 342 653 307 q 600 412 636 378 q 471 460 551 460 l 311 460 l 311 109 q 329 56 311 68 q 421 43 346 43 l 454 43 l 454 0 q 252 4 404 4 q 49 0 99 4 m 229 1276 l 245 1299 l 248 1299 q 303 1265 275 1282 q 348 1239 332 1249 q 381 1219 364 1229 q 406 1205 397 1210 q 423 1196 415 1200 q 435 1190 431 1192 q 444 1189 440 1189 q 484 1209 450 1189 q 565 1257 518 1229 q 637 1299 612 1286 l 654 1276 q 475 1123 500 1144 q 441 1103 449 1103 q 310 1207 432 1103 q 229 1276 261 1250 m 311 490 l 465 490 q 589 508 539 490 q 663 559 639 526 q 695 624 686 591 q 704 699 704 657 q 693 784 704 747 q 659 842 682 821 q 611 878 635 864 q 551 897 587 892 q 489 904 514 903 q 424 905 464 905 q 342 903 356 905 q 320 894 326 901 q 313 878 314 886 q 311 850 311 869 l 311 490 z "},"":{"ha":543,"x_min":39,"x_max":508,"o":"m 39 0 l 39 43 q 130 52 113 43 q 147 106 147 61 l 147 478 q 129 543 147 530 q 39 555 111 555 l 39 599 l 232 614 l 232 461 q 293 567 252 521 q 403 614 335 614 q 476 589 448 614 q 505 529 505 564 q 487 483 505 498 q 446 468 468 468 q 403 484 420 468 q 386 528 386 500 q 394 558 386 545 q 408 576 401 571 q 418 582 414 581 q 403 583 415 583 q 282 507 326 583 q 239 322 239 431 l 239 109 q 255 56 239 68 q 345 43 272 43 l 374 43 l 374 0 q 197 4 318 4 q 154 3 180 4 q 93 1 127 3 q 39 0 58 0 m 83 876 l 101 897 q 295 772 287 772 q 326 787 304 772 q 492 897 349 802 l 508 876 l 297 672 l 296 672 l 83 876 z "},"":{"ha":770,"x_min":78,"x_max":693,"o":"m 78 3 l 78 281 q 79 302 78 296 q 83 311 79 307 q 96 315 87 315 q 113 301 111 315 q 199 87 117 163 q 418 12 279 12 q 553 72 501 12 q 604 211 604 132 q 561 339 604 286 q 520 378 543 363 q 483 398 497 393 q 443 410 469 403 q 260 456 271 451 q 128 554 178 484 q 78 710 78 624 q 156 900 78 821 q 349 979 235 979 q 453 961 406 979 q 521 927 501 943 q 571 882 541 911 l 619 961 q 640 979 630 979 q 653 973 651 979 q 656 946 656 966 l 656 667 q 655 646 656 651 q 650 637 654 640 q 637 633 646 633 q 621 650 624 633 q 350 940 582 940 q 219 887 271 940 q 167 758 167 833 q 205 647 167 697 q 307 582 243 597 l 485 539 q 633 439 574 518 q 693 258 693 361 q 616 55 693 140 q 419 -31 539 -31 q 267 -2 333 -31 q 164 66 200 26 q 118 -5 136 20 l 114 -12 q 93 -31 103 -31 q 80 -24 82 -31 q 78 3 78 -17 m 243 1063 q 465 1196 452 1192 q 477 1197 469 1197 q 510 1180 496 1197 q 524 1145 524 1164 q 465 1095 524 1105 q 257 1030 276 1036 l 243 1063 z "},"":{"ha":547,"x_min":46,"x_max":501,"o":"m 46 16 l 46 189 q 56 231 46 225 q 75 229 65 236 q 85 201 79 225 q 103 146 92 176 q 133 87 114 117 q 189 37 151 57 q 278 17 227 17 q 432 139 432 17 q 346 253 432 218 q 265 273 323 262 q 187 289 207 283 q 89 347 132 306 q 46 450 46 387 q 93 569 46 518 q 267 621 140 621 q 400 582 342 621 q 450 618 436 618 q 467 589 467 618 l 467 450 q 450 415 467 416 q 436 421 442 415 q 429 454 433 424 q 414 513 424 484 q 366 567 404 542 q 267 593 328 593 q 115 490 115 593 q 131 439 115 461 q 174 406 146 418 q 227 388 201 395 q 290 374 253 380 q 342 364 326 368 q 453 299 406 347 q 501 176 501 250 q 449 39 501 93 q 279 -16 397 -16 q 123 46 191 -16 q 110 30 119 42 q 95 12 100 17 q 83 0 90 7 q 71 -9 77 -7 q 61 -12 65 -12 q 46 16 46 -12 m 184 708 q 277 798 222 744 q 360 878 343 864 q 393 892 378 892 q 428 875 414 892 q 441 840 441 859 q 439 826 441 832 q 433 814 436 819 q 423 805 429 810 q 413 798 416 800 q 402 792 410 796 q 393 786 395 787 q 205 681 212 683 l 184 708 z "},"":{"ha":770,"x_min":78,"x_max":693,"o":"m 78 3 l 78 281 q 79 302 78 296 q 83 311 79 307 q 96 315 87 315 q 113 301 111 315 q 199 87 117 163 q 418 12 279 12 q 553 72 501 12 q 604 211 604 132 q 561 339 604 286 q 520 378 543 363 q 483 398 497 393 q 443 410 469 403 q 260 456 271 451 q 128 554 178 484 q 78 710 78 624 q 156 900 78 821 q 349 979 235 979 q 453 961 406 979 q 521 927 501 943 q 571 882 541 911 l 619 961 q 640 979 630 979 q 653 973 651 979 q 656 946 656 966 l 656 667 q 655 646 656 651 q 650 637 654 640 q 637 633 646 633 q 621 650 624 633 q 350 940 582 940 q 219 887 271 940 q 167 758 167 833 q 205 647 167 697 q 307 582 243 597 l 485 539 q 633 439 574 518 q 693 258 693 361 q 616 55 693 140 q 419 -31 539 -31 q 267 -2 333 -31 q 164 66 200 26 q 118 -5 136 20 l 114 -12 q 93 -31 103 -31 q 80 -24 82 -31 q 78 3 78 -17 m 163 1057 l 349 1253 l 534 1057 l 510 1034 l 349 1179 l 187 1034 l 163 1057 z "},"":{"ha":547,"x_min":46,"x_max":500,"o":"m 46 18 l 46 201 q 47 222 46 217 q 52 232 47 228 q 64 236 56 236 q 77 232 73 236 q 83 212 81 228 q 150 66 104 117 q 277 16 195 16 q 394 50 355 16 q 433 142 433 85 q 289 269 433 243 q 171 297 205 286 q 106 334 136 309 q 46 452 46 382 q 99 572 46 521 q 268 623 151 623 q 399 583 346 623 q 422 606 414 595 q 450 623 441 623 q 463 615 461 623 q 465 589 465 608 l 465 449 q 465 428 465 433 q 460 419 464 422 q 447 415 456 415 q 431 428 431 415 q 268 596 420 596 q 149 565 186 596 q 113 490 113 533 q 124 449 113 467 q 150 420 135 431 q 191 400 164 410 q 235 387 218 390 q 283 376 252 383 q 441 310 395 355 q 500 178 500 252 q 444 40 500 96 q 277 -16 389 -16 q 123 45 186 -16 q 109 30 115 37 q 101 20 103 22 q 98 15 98 17 q 96 12 97 14 q 61 -16 68 -16 q 48 -8 50 -16 q 46 18 46 -1 m 82 694 l 268 901 l 269 901 l 454 694 l 429 669 l 269 828 l 268 828 l 106 669 l 82 694 z "},"":{"ha":770,"x_min":77,"x_max":693,"o":"m 77 7 l 77 288 q 93 314 78 314 q 111 294 109 314 q 113 274 111 293 q 117 244 115 254 q 123 212 118 233 q 136 174 129 191 q 157 136 143 157 q 189 97 171 115 q 416 12 274 12 q 551 72 498 12 q 603 210 603 131 q 570 324 603 273 q 486 396 538 375 q 374 427 469 403 q 257 457 278 450 q 129 550 182 484 q 77 710 77 616 q 156 901 77 823 q 349 979 236 979 q 570 882 477 979 q 586 909 575 891 q 621 965 611 952 q 639 978 631 978 q 654 943 654 978 l 654 684 q 655 679 654 682 q 656 672 656 675 q 639 635 656 635 q 618 660 621 635 q 534 864 601 787 q 350 940 467 940 q 219 886 271 940 q 167 760 167 832 q 199 655 167 700 q 282 590 232 610 q 392 561 299 583 q 507 532 485 539 q 641 428 588 504 q 693 257 693 353 q 631 74 693 153 q 472 -26 570 -5 l 472 -75 q 587 -175 587 -102 q 512 -260 587 -236 q 277 -283 437 -283 l 258 -283 l 258 -252 l 275 -252 q 436 -235 382 -252 q 489 -175 489 -218 q 463 -124 489 -147 q 375 -98 436 -102 l 375 -28 q 163 66 249 -14 q 93 -29 110 -29 q 90 -28 92 -29 q 87 -28 89 -28 q 77 7 77 -24 z "},"":{"ha":547,"x_min":46,"x_max":501,"o":"m 46 16 l 46 189 q 56 231 46 225 q 75 229 65 236 q 85 201 79 225 q 103 146 92 176 q 133 87 114 117 q 189 37 151 57 q 278 17 227 17 q 432 139 432 17 q 346 253 432 218 q 265 273 323 262 q 187 289 207 283 q 89 347 132 306 q 46 450 46 387 q 93 569 46 518 q 267 621 140 621 q 400 582 342 621 q 450 618 436 618 q 467 589 467 618 l 467 450 q 450 415 467 416 q 436 421 442 415 q 429 454 433 424 q 414 513 424 484 q 366 567 404 542 q 267 593 328 593 q 146 562 179 593 q 114 490 114 530 q 131 438 114 460 q 176 405 147 416 q 234 386 205 393 q 299 373 262 379 q 351 361 335 367 q 457 293 412 341 q 501 175 501 245 q 492 106 501 138 q 466 56 482 75 q 431 23 450 37 q 394 3 412 9 q 359 -7 375 -4 q 334 -12 343 -11 l 322 -14 l 322 -75 q 362 -84 342 -78 q 410 -115 382 -90 q 437 -175 437 -139 q 363 -260 437 -236 q 127 -283 289 -283 l 109 -283 l 109 -252 l 125 -252 q 198 -250 168 -252 q 265 -240 229 -248 q 320 -217 301 -233 q 339 -175 339 -200 q 313 -124 339 -147 q 225 -98 286 -102 l 225 -9 q 123 46 171 3 q 110 30 119 42 q 95 12 100 17 q 83 0 90 7 q 71 -9 77 -7 q 61 -12 65 -12 q 46 16 46 -12 z "},"":{"ha":770,"x_min":78,"x_max":693,"o":"m 78 3 l 78 281 q 79 302 78 296 q 83 311 79 307 q 96 315 87 315 q 113 301 111 315 q 199 87 117 163 q 418 12 279 12 q 553 72 501 12 q 604 211 604 132 q 561 339 604 286 q 520 378 543 363 q 483 398 497 393 q 443 410 469 403 q 260 456 271 451 q 128 554 178 484 q 78 710 78 624 q 156 900 78 821 q 349 979 235 979 q 453 961 406 979 q 521 927 501 943 q 571 882 541 911 l 619 961 q 640 979 630 979 q 653 973 651 979 q 656 946 656 966 l 656 667 q 655 646 656 651 q 650 637 654 640 q 637 633 646 633 q 621 650 624 633 q 350 940 582 940 q 219 887 271 940 q 167 758 167 833 q 205 647 167 697 q 307 582 243 597 l 485 539 q 633 439 574 518 q 693 258 693 361 q 616 55 693 140 q 419 -31 539 -31 q 267 -2 333 -31 q 164 66 200 26 q 118 -5 136 20 l 114 -12 q 93 -31 103 -31 q 80 -24 82 -31 q 78 3 78 -17 m 174 1276 l 189 1299 l 191 1299 q 247 1265 218 1282 q 291 1239 275 1249 q 324 1219 307 1229 q 349 1205 340 1210 q 366 1196 358 1200 q 378 1190 374 1192 q 387 1189 383 1189 q 427 1209 393 1189 q 510 1257 461 1229 q 582 1299 558 1286 l 597 1276 q 418 1123 444 1144 q 385 1103 392 1103 q 285 1182 376 1103 q 174 1276 221 1236 z "},"":{"ha":547,"x_min":43,"x_max":500,"o":"m 43 876 l 61 897 q 255 772 247 772 q 286 787 264 772 q 452 897 309 802 l 468 876 l 257 672 l 256 672 l 43 876 m 46 16 l 46 189 q 56 231 46 225 q 75 229 65 236 q 91 189 79 225 q 116 116 102 153 q 173 48 131 79 q 278 17 215 17 q 432 139 432 17 q 345 254 432 220 q 261 272 326 261 q 144 306 196 282 q 65 376 93 329 q 46 450 45 408 q 93 569 46 518 q 267 621 140 621 q 400 582 342 621 q 450 618 436 618 q 467 589 467 618 l 467 450 q 449 415 467 416 q 436 421 442 415 q 429 454 433 424 q 414 513 424 484 q 366 567 404 542 q 267 593 328 593 q 114 490 114 593 q 129 440 114 461 q 173 407 144 419 q 227 388 201 395 q 289 375 252 382 q 342 364 326 368 q 451 300 403 347 q 500 175 500 253 q 492 115 500 143 q 464 56 485 87 q 396 4 443 24 q 279 -16 349 -16 q 123 46 191 -16 q 110 30 119 42 q 95 12 100 17 q 83 0 90 7 q 71 -9 77 -7 q 61 -12 65 -12 q 46 16 46 -12 z "},"":{"ha":1002,"x_min":49,"x_max":951,"o":"m 49 628 l 77 942 l 924 942 l 951 628 l 917 628 q 910 702 913 678 q 900 761 907 726 q 883 813 893 796 q 858 849 873 829 q 819 878 842 869 q 764 892 796 886 q 689 899 732 899 l 643 899 q 606 898 616 899 q 582 892 595 897 q 566 877 570 888 q 562 846 562 865 l 562 109 q 594 54 562 66 q 733 43 625 43 l 764 43 l 764 0 l 549 4 l 549 -75 q 575 -81 561 -77 q 612 -95 589 -85 q 649 -126 635 -106 q 664 -175 664 -147 q 589 -260 664 -236 q 354 -283 514 -283 l 336 -283 l 336 -252 l 353 -252 q 514 -236 461 -252 q 567 -176 567 -220 q 541 -124 567 -147 q 452 -98 514 -102 l 452 4 l 236 0 l 236 43 l 268 43 q 408 54 376 43 q 439 109 439 65 q 438 117 439 111 q 437 125 437 122 l 437 846 q 428 883 437 872 q 406 897 419 895 q 358 899 393 899 l 313 899 q 214 887 253 899 q 151 860 175 876 q 114 805 127 843 q 94 731 100 766 q 83 628 89 696 l 49 628 z "},"":{"ha":540,"x_min":25,"x_max":497,"o":"m 25 555 l 25 586 q 113 616 77 589 q 169 685 150 643 q 196 768 187 726 q 205 854 205 810 l 240 854 l 240 597 l 437 597 l 437 555 l 240 555 l 240 170 q 279 39 240 73 q 332 21 302 20 q 397 58 372 21 q 425 153 422 96 q 427 192 427 166 l 427 252 l 461 252 l 461 182 q 382 -1 461 50 l 382 -75 q 497 -175 497 -99 q 224 -283 497 -283 l 170 -283 l 170 -252 l 186 -252 q 346 -235 293 -252 q 399 -175 399 -218 q 372 -124 399 -147 q 285 -98 346 -102 l 285 -12 l 283 -12 q 215 11 243 -7 q 174 46 187 28 q 152 96 160 65 q 144 143 144 126 q 143 189 143 160 l 143 555 l 25 555 z "},"":{"ha":1002,"x_min":50,"x_max":951,"o":"m 50 628 l 77 940 l 925 940 l 951 628 l 917 628 q 906 726 911 690 q 889 797 901 762 q 863 847 878 831 q 821 877 848 864 q 757 894 793 890 q 667 897 721 897 q 587 895 603 897 q 566 879 570 890 q 562 842 562 867 l 562 110 q 568 71 562 82 q 606 51 574 60 q 708 43 637 43 l 764 43 l 764 0 q 500 4 707 4 q 237 0 294 4 l 237 43 l 293 43 q 396 51 363 43 q 433 71 428 60 q 439 110 439 82 l 439 842 q 437 869 439 861 q 430 885 436 878 q 410 895 424 892 q 335 897 396 897 q 244 894 281 897 q 180 877 208 890 q 138 847 153 864 q 112 797 123 831 q 95 726 100 762 q 85 628 90 690 l 50 628 m 289 1276 l 304 1299 l 306 1299 q 362 1265 334 1282 q 406 1239 390 1249 q 439 1219 422 1229 q 465 1205 456 1210 q 481 1196 473 1200 q 494 1190 489 1192 q 503 1189 498 1189 q 543 1209 508 1189 q 626 1257 578 1229 q 697 1299 673 1286 l 713 1276 q 533 1123 559 1144 q 500 1103 507 1103 q 400 1182 492 1103 q 289 1276 336 1236 z "},"":{"ha":540,"x_min":25,"x_max":530,"o":"m 25 555 l 25 586 q 113 616 77 589 q 169 685 150 643 q 196 768 187 726 q 205 854 205 810 l 240 854 l 240 597 l 437 597 l 437 555 l 240 555 l 240 170 q 279 39 240 73 q 332 21 302 20 q 397 58 372 21 q 425 153 422 96 q 427 192 427 166 l 427 252 l 461 252 l 461 182 q 419 31 461 77 q 322 -16 378 -16 q 143 176 143 -16 l 143 555 l 25 555 m 366 928 q 385 979 366 957 q 439 1000 404 1000 q 505 966 479 1000 q 530 884 530 932 q 514 798 530 839 q 475 732 497 757 q 433 691 453 707 q 403 676 412 676 q 387 690 387 676 q 405 711 387 696 q 443 745 422 726 q 481 801 464 764 q 498 885 498 839 q 437 854 472 854 q 386 876 406 854 q 366 928 366 897 z "},"":{"ha":1042,"x_min":46,"x_max":994,"o":"m 46 905 l 46 949 q 252 945 95 945 q 456 949 407 945 l 456 905 l 422 905 q 330 893 347 905 q 313 840 313 880 l 313 311 q 338 154 313 218 q 404 62 364 90 q 477 23 444 33 q 542 12 510 12 q 728 96 648 12 q 808 321 808 180 l 808 803 q 806 836 808 824 q 791 867 803 848 q 747 896 779 886 q 665 905 715 905 l 665 949 q 831 945 815 945 q 994 949 844 945 l 994 905 q 912 897 944 905 q 869 868 880 888 q 854 834 857 848 q 851 798 851 821 l 851 353 q 847 257 851 285 q 743 53 829 136 q 539 -31 657 -31 q 293 70 396 -31 q 189 317 189 171 l 189 840 q 172 893 189 880 q 79 905 154 905 l 46 905 m 250 1105 l 250 1152 l 789 1152 l 789 1105 l 250 1105 z "},"":{"ha":770,"x_min":45,"x_max":743,"o":"m 45 555 l 45 599 l 249 614 l 249 153 q 252 100 249 119 q 266 58 254 81 q 303 26 277 36 q 371 16 329 16 q 493 77 446 16 q 539 231 539 139 l 539 478 q 521 543 539 530 q 431 555 503 555 l 431 599 l 635 614 l 635 121 q 653 56 635 69 q 743 43 671 43 l 743 0 l 543 -16 l 543 110 q 364 -16 485 -15 q 261 0 303 -16 q 199 35 220 16 q 166 92 178 54 q 154 152 155 129 q 153 220 153 175 l 153 428 q 139 539 153 522 q 45 555 125 555 m 144 764 l 144 808 l 645 808 l 645 764 l 144 764 z "},"":{"ha":1042,"x_min":46,"x_max":994,"o":"m 46 905 l 46 949 q 252 945 95 945 q 456 949 407 945 l 456 905 l 422 905 q 330 893 347 905 q 313 840 313 880 l 313 311 q 338 154 313 218 q 404 62 364 90 q 477 23 444 33 q 542 12 510 12 q 728 96 648 12 q 808 321 808 180 l 808 803 q 806 836 808 824 q 791 867 803 848 q 747 896 779 886 q 665 905 715 905 l 665 949 q 831 945 815 945 q 994 949 844 945 l 994 905 q 912 897 944 905 q 869 868 880 888 q 854 834 857 848 q 851 798 851 821 l 851 353 q 847 257 851 285 q 743 53 829 136 q 539 -31 657 -31 q 293 70 396 -31 q 189 317 189 171 l 189 840 q 172 893 189 880 q 79 905 154 905 l 46 905 m 311 1238 l 343 1238 q 405 1131 349 1164 q 519 1099 461 1099 q 634 1131 578 1099 q 696 1238 690 1164 l 728 1238 q 664 1099 726 1152 q 519 1046 602 1046 q 375 1099 437 1046 q 311 1238 313 1152 z "},"":{"ha":770,"x_min":45,"x_max":743,"o":"m 45 555 l 45 599 l 249 614 l 249 153 q 252 100 249 119 q 266 58 254 81 q 303 26 277 36 q 371 16 329 16 q 493 77 446 16 q 539 231 539 139 l 539 478 q 521 543 539 530 q 431 555 503 555 l 431 599 l 635 614 l 635 121 q 653 56 635 69 q 743 43 671 43 l 743 0 l 543 -16 l 543 110 q 364 -16 485 -15 q 261 0 303 -16 q 199 35 220 16 q 166 92 178 54 q 154 152 155 129 q 153 220 153 175 l 153 428 q 139 539 153 522 q 45 555 125 555 m 186 888 l 218 888 q 258 802 222 835 q 328 761 293 770 q 396 751 363 751 q 514 786 460 751 q 572 888 568 821 l 603 888 q 537 749 599 800 q 395 699 475 699 q 253 749 315 699 q 186 888 191 799 z "},"":{"ha":1042,"x_min":46,"x_max":994,"o":"m 46 905 l 46 949 q 252 945 95 945 q 456 949 407 945 l 456 905 l 422 905 q 330 893 347 905 q 313 840 313 880 l 313 311 q 338 154 313 218 q 404 62 364 90 q 477 23 444 33 q 542 12 510 12 q 728 96 648 12 q 808 321 808 180 l 808 803 q 806 836 808 824 q 791 867 803 848 q 747 896 779 886 q 665 905 715 905 l 665 949 q 831 945 815 945 q 994 949 844 945 l 994 905 q 912 897 944 905 q 869 868 880 888 q 854 834 857 848 q 851 798 851 821 l 851 353 q 847 257 851 285 q 743 53 829 136 q 539 -31 657 -31 q 293 70 396 -31 q 189 317 189 171 l 189 840 q 172 893 189 880 q 79 905 154 905 l 46 905 m 427 1141 q 466 1231 427 1193 q 561 1268 505 1268 q 654 1232 614 1268 q 694 1140 694 1196 q 654 1050 694 1086 q 561 1014 614 1014 q 468 1050 508 1014 q 427 1141 427 1087 m 561 1238 q 512 1238 561 1238 q 464 1142 464 1238 q 559 1046 464 1046 q 658 1142 658 1046 q 561 1238 658 1238 z "},"":{"ha":770,"x_min":45,"x_max":743,"o":"m 45 555 l 45 599 l 249 614 l 249 153 q 252 100 249 119 q 266 58 254 81 q 303 26 277 36 q 371 16 329 16 q 493 77 446 16 q 539 231 539 139 l 539 478 q 521 543 539 530 q 431 555 503 555 l 431 599 l 635 614 l 635 121 q 653 56 635 69 q 743 43 671 43 l 743 0 l 543 -16 l 543 110 q 364 -16 485 -15 q 261 0 303 -16 q 199 35 220 16 q 166 92 178 54 q 154 152 155 129 q 153 220 153 175 l 153 428 q 139 539 153 522 q 45 555 125 555 m 260 806 q 297 884 260 850 q 392 918 335 918 q 488 883 450 918 q 525 805 525 848 q 488 728 525 762 q 393 694 450 694 q 301 725 342 694 q 260 806 260 755 m 395 886 q 294 806 294 886 q 390 725 294 725 q 490 806 490 725 q 395 886 490 886 z "},"":{"ha":1042,"x_min":46,"x_max":994,"o":"m 46 905 l 46 949 q 252 945 95 945 q 456 949 407 945 l 456 905 l 422 905 q 330 893 347 905 q 313 840 313 880 l 313 311 q 338 154 313 218 q 404 62 364 90 q 477 23 444 33 q 542 12 510 12 q 728 96 648 12 q 808 321 808 180 l 808 803 q 806 836 808 824 q 791 867 803 848 q 747 896 779 886 q 665 905 715 905 l 665 949 q 831 945 815 945 q 994 949 844 945 l 994 905 q 912 897 944 905 q 869 868 880 888 q 854 834 857 848 q 851 798 851 821 l 851 353 q 847 257 851 285 q 743 53 829 136 q 539 -31 657 -31 q 293 70 396 -31 q 189 317 189 171 l 189 840 q 172 893 189 880 q 79 905 154 905 l 46 905 m 339 1063 q 561 1196 547 1192 q 572 1197 565 1197 q 606 1180 592 1197 q 619 1145 619 1164 q 561 1095 619 1105 q 353 1030 372 1036 l 339 1063 m 571 1063 q 793 1196 779 1192 q 804 1197 797 1197 q 838 1180 824 1197 q 851 1145 851 1164 q 793 1095 851 1105 q 585 1030 604 1036 l 571 1063 z "},"":{"ha":770,"x_min":45,"x_max":743,"o":"m 45 555 l 45 599 l 249 614 l 249 153 q 252 100 249 119 q 266 58 254 81 q 303 26 277 36 q 371 16 329 16 q 493 77 446 16 q 539 231 539 139 l 539 478 q 521 543 539 530 q 431 555 503 555 l 431 599 l 635 614 l 635 121 q 653 56 635 69 q 743 43 671 43 l 743 0 l 543 -16 l 543 110 q 364 -16 485 -15 q 261 0 303 -16 q 199 35 220 16 q 166 92 178 54 q 154 152 155 129 q 153 220 153 175 l 153 428 q 139 539 153 522 q 45 555 125 555 m 228 708 q 319 798 265 744 q 404 878 386 864 q 436 892 421 892 q 471 875 457 892 q 485 840 485 859 q 482 826 485 832 q 476 814 479 819 q 466 805 473 810 q 456 798 460 800 q 446 792 453 796 q 436 786 438 787 q 249 681 254 683 l 228 708 m 460 708 q 551 798 497 744 q 635 878 618 864 q 668 892 653 892 q 703 875 689 892 q 717 840 717 859 q 714 826 717 832 q 708 814 711 819 q 698 805 705 810 q 688 798 692 800 q 677 792 685 796 q 668 786 670 787 q 481 681 486 683 l 460 708 z "},"":{"ha":1042,"x_min":46,"x_max":994,"o":"m 46 905 l 46 949 q 252 945 95 945 q 456 949 407 945 l 456 905 l 422 905 q 330 893 347 905 q 313 840 313 880 l 313 311 q 338 154 313 218 q 404 62 364 90 q 477 23 444 33 q 542 12 510 12 q 728 96 648 12 q 808 321 808 180 l 808 803 q 806 836 808 824 q 791 867 803 848 q 747 896 779 886 q 665 905 715 905 l 665 949 q 831 945 815 945 q 994 949 844 945 l 994 905 q 912 897 944 905 q 869 868 880 888 q 854 834 857 848 q 851 798 851 821 l 851 353 q 847 257 851 285 q 743 53 829 136 q 539 -31 657 -31 q 523 -30 534 -31 q 509 -29 513 -29 q 456 -131 456 -82 q 492 -207 456 -177 q 570 -237 528 -237 q 625 -219 603 -237 q 658 -181 647 -200 q 676 -161 669 -161 q 689 -176 688 -161 q 648 -256 689 -211 q 543 -301 607 -301 q 439 -263 485 -301 q 393 -164 393 -225 q 465 -22 393 -95 q 268 97 346 3 q 189 317 189 191 l 189 840 q 172 893 189 880 q 79 905 154 905 l 46 905 z "},"":{"ha":770,"x_min":45,"x_max":757,"o":"m 45 555 l 45 599 l 249 614 l 249 153 q 252 100 249 119 q 266 58 254 81 q 303 26 277 36 q 371 16 329 16 q 493 77 446 16 q 539 231 539 139 l 539 478 q 521 543 539 530 q 431 555 503 555 l 431 599 l 635 614 l 635 121 q 653 56 635 69 q 743 43 671 43 l 743 0 l 596 -11 q 524 -131 524 -68 q 560 -207 524 -177 q 637 -237 596 -237 q 693 -219 671 -237 q 726 -181 715 -200 q 745 -161 737 -161 q 757 -176 757 -161 q 716 -256 757 -211 q 611 -301 675 -301 q 507 -263 553 -301 q 461 -164 461 -225 q 543 -14 461 -87 l 543 110 q 364 -16 485 -15 q 261 0 303 -16 q 199 35 220 16 q 166 92 178 54 q 154 152 155 129 q 153 220 153 175 l 153 428 q 139 539 153 522 q 45 555 125 555 z "},"":{"ha":1042,"x_min":16,"x_max":1025,"o":"m 16 905 l 16 949 q 196 945 103 945 q 401 949 351 945 l 401 905 q 327 899 350 905 q 304 871 304 892 q 314 847 304 861 l 566 437 l 794 810 q 808 851 808 831 q 789 890 808 875 q 729 905 770 905 l 729 949 q 889 945 838 945 q 1025 949 961 945 l 1025 905 q 847 815 901 905 l 579 379 l 579 111 q 596 56 579 68 q 690 43 614 43 l 722 43 l 722 0 q 519 4 672 4 q 317 0 367 4 l 317 43 l 350 43 q 443 55 425 43 q 460 109 460 68 l 460 379 l 168 854 q 146 884 156 876 q 111 899 136 893 q 40 905 86 905 l 16 905 m 313 1129 q 333 1181 313 1158 q 385 1203 354 1203 q 435 1181 412 1203 q 458 1129 458 1160 q 435 1078 458 1099 q 385 1057 412 1057 q 333 1079 354 1057 q 313 1129 313 1101 m 582 1129 q 604 1182 582 1161 q 654 1203 625 1203 q 707 1181 686 1203 q 728 1131 728 1158 q 707 1079 728 1101 q 656 1057 686 1057 q 605 1078 628 1057 q 582 1129 582 1099 z "},"":{"ha":848,"x_min":78,"x_max":778,"o":"m 78 24 q 87 52 78 36 l 628 905 l 410 905 q 271 887 326 905 q 187 828 216 868 q 146 745 158 789 q 131 636 135 701 l 96 636 l 111 949 l 733 949 q 750 949 745 949 q 761 946 755 949 q 768 939 766 943 q 770 926 770 935 q 760 900 770 916 l 221 47 l 449 47 q 577 63 524 47 q 660 104 629 79 q 708 174 690 129 q 733 262 726 220 q 743 371 739 304 l 778 371 l 754 0 l 114 0 q 84 3 90 0 q 78 24 78 7 m 319 1063 q 541 1196 528 1192 q 553 1197 545 1197 q 586 1180 572 1197 q 600 1145 600 1164 q 541 1095 600 1105 q 333 1030 352 1036 l 319 1063 z "},"":{"ha":616,"x_min":39,"x_max":557,"o":"m 39 20 q 52 45 39 29 l 439 568 l 281 568 q 135 528 171 568 q 93 375 100 488 l 58 375 l 74 599 l 518 599 q 540 598 534 599 q 550 593 546 597 q 554 581 554 589 q 542 557 554 572 l 155 35 l 319 35 q 474 83 435 35 q 522 260 513 131 l 557 260 l 533 0 l 75 0 q 46 3 53 0 q 39 20 39 6 m 219 708 q 311 798 256 744 q 395 878 377 864 q 427 892 412 892 q 462 875 448 892 q 476 840 476 859 q 473 826 476 832 q 467 814 471 819 q 457 805 464 810 q 448 798 451 800 q 437 792 444 796 q 427 786 429 787 q 240 681 245 683 l 219 708 z "},"":{"ha":848,"x_min":78,"x_max":778,"o":"m 78 24 q 87 52 78 36 l 628 905 l 410 905 q 271 887 326 905 q 187 828 216 868 q 146 745 158 789 q 131 636 135 701 l 96 636 l 111 949 l 733 949 q 750 949 745 949 q 761 946 755 949 q 768 939 766 943 q 770 926 770 935 q 760 900 770 916 l 221 47 l 449 47 q 577 63 524 47 q 660 104 629 79 q 708 174 690 129 q 733 262 726 220 q 743 371 739 304 l 778 371 l 754 0 l 114 0 q 84 3 90 0 q 78 24 78 7 m 389 1138 q 411 1191 389 1170 q 463 1211 433 1211 q 513 1191 492 1211 q 535 1138 535 1170 q 513 1086 535 1107 q 463 1065 490 1065 q 410 1087 431 1065 q 389 1138 389 1109 z "},"":{"ha":616,"x_min":39,"x_max":557,"o":"m 39 20 q 52 45 39 29 l 439 568 l 281 568 q 135 528 171 568 q 93 375 100 488 l 58 375 l 74 599 l 518 599 q 540 598 534 599 q 550 593 546 597 q 554 581 554 589 q 542 557 554 572 l 155 35 l 319 35 q 474 83 435 35 q 522 260 513 131 l 557 260 l 533 0 l 75 0 q 46 3 53 0 q 39 20 39 6 m 253 854 q 275 907 253 886 q 326 928 297 928 q 377 907 355 928 q 399 854 399 886 q 376 803 399 824 q 326 782 354 782 q 274 804 294 782 q 253 854 253 825 z "},"":{"ha":848,"x_min":78,"x_max":778,"o":"m 78 24 q 87 52 78 36 l 628 905 l 410 905 q 271 887 326 905 q 187 828 216 868 q 146 745 158 789 q 131 636 135 701 l 96 636 l 111 949 l 733 949 q 750 949 745 949 q 761 946 755 949 q 768 939 766 943 q 770 926 770 935 q 760 900 770 916 l 221 47 l 449 47 q 577 63 524 47 q 660 104 629 79 q 708 174 690 129 q 733 262 726 220 q 743 371 739 304 l 778 371 l 754 0 l 114 0 q 84 3 90 0 q 78 24 78 7 m 197 1276 l 212 1299 l 214 1299 q 270 1265 241 1282 q 314 1239 298 1249 q 348 1219 330 1229 q 374 1205 366 1210 q 390 1196 382 1200 q 404 1190 399 1192 q 412 1189 408 1189 q 452 1209 418 1189 q 534 1257 486 1229 q 606 1299 582 1286 l 621 1276 q 410 1103 416 1105 q 278 1207 400 1103 q 197 1276 229 1250 z "},"":{"ha":616,"x_min":39,"x_max":557,"o":"m 39 20 q 52 45 39 29 l 439 568 l 281 568 q 135 528 171 568 q 93 375 100 488 l 58 375 l 74 599 l 518 599 q 540 598 534 599 q 550 593 546 597 q 554 581 554 589 q 542 557 554 572 l 155 35 l 319 35 q 474 83 435 35 q 522 260 513 131 l 557 260 l 533 0 l 75 0 q 46 3 53 0 q 39 20 39 6 m 85 876 l 102 897 q 297 772 288 772 q 328 787 305 772 q 493 897 350 802 l 509 876 l 298 672 l 297 672 l 85 876 z "},"":{"ha":694,"x_min":17,"x_max":677,"o":"m 17 -193 q 37 -138 17 -159 q 86 -117 57 -117 q 119 -129 104 -117 q 134 -161 134 -140 q 118 -204 134 -185 q 72 -229 102 -224 q 127 -254 89 -254 q 186 -199 163 -254 q 244 37 208 -143 l 347 555 l 261 555 q 225 571 225 555 q 231 590 225 583 q 243 598 236 597 q 264 599 250 599 l 355 599 q 365 653 358 612 q 376 711 372 693 q 388 767 379 729 q 403 824 396 804 q 421 872 410 843 q 447 917 433 901 q 477 948 460 932 q 517 972 494 965 q 564 979 539 979 q 644 955 611 979 q 677 888 677 930 q 657 832 677 853 q 608 811 637 811 q 575 823 590 811 q 561 856 561 835 q 577 899 561 880 q 623 924 593 918 q 564 949 603 949 q 508 894 526 949 q 457 667 489 839 q 444 599 449 624 l 553 599 q 572 598 566 599 q 582 593 578 597 q 586 581 586 589 q 578 559 586 564 q 550 555 570 555 l 436 555 l 339 57 q 127 -285 262 -285 q 50 -261 83 -285 q 17 -193 17 -238 z "},"":{"ha":770,"x_min":78,"x_max":693,"o":"m 78 3 l 78 281 q 79 302 78 296 q 83 311 79 307 q 96 315 87 315 q 113 301 111 315 q 199 87 117 163 q 418 12 279 12 q 553 72 501 12 q 604 211 604 132 q 561 339 604 286 q 520 378 543 363 q 483 398 497 393 q 443 410 469 403 q 260 456 271 451 q 128 554 178 484 q 78 710 78 624 q 156 900 78 821 q 349 979 235 979 q 453 961 406 979 q 521 927 501 943 q 571 882 541 911 l 619 961 q 640 979 630 979 q 653 973 651 979 q 656 946 656 966 l 656 667 q 655 646 656 651 q 650 637 654 640 q 637 633 646 633 q 621 650 624 633 q 350 940 582 940 q 219 887 271 940 q 167 758 167 833 q 205 647 167 697 q 307 582 243 597 l 485 539 q 633 439 574 518 q 693 258 693 361 q 616 55 693 140 q 419 -31 539 -31 q 267 -2 333 -31 q 164 66 200 26 q 118 -5 136 20 l 114 -12 q 93 -31 103 -31 q 80 -24 82 -31 q 78 3 78 -17 m 342 -187 q 335 -180 342 -187 q 328 -151 328 -172 q 343 -115 328 -130 q 379 -100 357 -100 q 440 -200 440 -100 q 421 -294 440 -248 q 383 -364 403 -340 q 353 -389 363 -389 q 347 -387 350 -389 q 344 -380 343 -386 q 353 -363 345 -374 q 418 -201 418 -292 l 418 -184 q 379 -201 405 -201 q 342 -187 357 -201 z "},"":{"ha":547,"x_min":46,"x_max":500,"o":"m 46 18 l 46 201 q 47 222 46 217 q 52 232 47 228 q 64 236 56 236 q 77 232 73 236 q 83 212 81 228 q 150 66 104 117 q 277 16 195 16 q 394 50 355 16 q 433 142 433 85 q 289 269 433 243 q 171 297 205 286 q 106 334 136 309 q 46 452 46 382 q 99 572 46 521 q 268 623 151 623 q 399 583 346 623 q 422 606 414 595 q 450 623 441 623 q 463 615 461 623 q 465 589 465 608 l 465 449 q 465 428 465 433 q 460 419 464 422 q 447 415 456 415 q 431 428 431 415 q 268 596 420 596 q 149 565 186 596 q 113 490 113 533 q 124 449 113 467 q 150 420 135 431 q 191 400 164 410 q 235 387 218 390 q 283 376 252 383 q 441 310 395 355 q 500 178 500 252 q 444 40 500 96 q 277 -16 389 -16 q 123 45 186 -16 q 109 30 115 37 q 101 20 103 22 q 98 15 98 17 q 96 12 97 14 q 61 -16 68 -16 q 48 -8 50 -16 q 46 18 46 -1 m 231 -172 q 224 -165 231 -172 q 217 -136 217 -157 q 232 -100 217 -115 q 268 -85 246 -85 q 329 -185 329 -85 q 310 -279 329 -233 q 272 -349 292 -325 q 241 -374 252 -374 q 235 -372 239 -374 q 233 -365 232 -371 q 241 -349 233 -359 q 307 -186 307 -277 l 307 -170 q 268 -186 294 -186 q 231 -172 245 -186 z "},"":{"ha":1002,"x_min":50,"x_max":951,"o":"m 50 628 l 77 940 l 925 940 l 951 628 l 917 628 q 906 726 911 690 q 889 797 901 762 q 863 847 878 831 q 821 877 848 864 q 757 894 793 890 q 667 897 721 897 q 587 895 603 897 q 566 879 570 890 q 562 842 562 867 l 562 110 q 568 71 562 82 q 606 51 574 60 q 708 43 637 43 l 764 43 l 764 0 q 500 4 707 4 q 237 0 294 4 l 237 43 l 293 43 q 396 51 363 43 q 433 71 428 60 q 439 110 439 82 l 439 842 q 437 869 439 861 q 430 885 436 878 q 410 895 424 892 q 335 897 396 897 q 244 894 281 897 q 180 877 208 890 q 138 847 153 864 q 112 797 123 831 q 95 726 100 762 q 85 628 90 690 l 50 628 m 459 -156 q 452 -149 459 -156 q 445 -121 445 -142 q 459 -84 445 -100 q 496 -69 474 -69 q 557 -170 557 -69 q 538 -263 557 -217 q 499 -334 519 -309 q 469 -358 479 -358 q 463 -357 467 -358 q 460 -349 460 -355 q 469 -333 461 -343 q 535 -171 534 -261 l 535 -154 q 496 -171 522 -171 q 459 -156 473 -171 z "},"":{"ha":538,"x_min":26,"x_max":461,"o":"m 26 555 l 26 586 q 133 634 90 589 q 190 734 175 679 q 205 854 204 790 l 240 854 l 240 599 l 439 599 l 439 555 l 240 555 l 240 170 q 334 20 240 20 q 400 61 374 20 q 427 175 427 102 l 427 252 l 461 252 l 461 172 q 427 41 461 97 q 323 -16 392 -16 q 274 -9 298 -16 q 217 14 249 -3 q 164 72 184 31 q 144 172 144 113 l 144 555 l 26 555 m 201 -172 q 194 -165 201 -172 q 186 -136 186 -157 q 201 -100 186 -115 q 237 -85 216 -85 q 298 -185 298 -85 q 280 -279 298 -233 q 241 -349 261 -325 q 211 -374 221 -374 q 205 -372 208 -374 q 202 -365 201 -371 q 211 -349 203 -359 q 277 -186 276 -277 l 277 -170 q 237 -186 263 -186 q 201 -172 215 -186 z "},"":{"ha":694,"x_min":160,"x_max":532,"o":"m 160 694 l 346 901 l 347 901 l 532 694 l 507 669 l 347 828 l 346 828 l 184 669 l 160 694 z "},"":{"ha":694,"x_min":134,"x_max":558,"o":"m 134 876 l 151 897 q 346 772 337 772 q 376 787 354 772 q 542 897 399 802 l 558 876 l 347 672 l 346 672 l 134 876 z "},"":{"ha":694,"x_min":138,"x_max":554,"o":"m 138 888 l 170 888 q 209 802 174 835 q 279 761 244 770 q 347 751 314 751 q 465 786 411 751 q 524 888 519 821 l 554 888 q 488 749 550 800 q 346 699 427 699 q 204 749 267 699 q 138 888 142 799 z "},"":{"ha":386,"x_min":138,"x_max":283,"o":"m 138 854 q 160 907 138 886 q 211 928 182 928 q 262 907 240 928 q 283 854 283 886 q 261 803 283 824 q 211 782 239 782 q 158 804 179 782 q 138 854 138 825 z "},"":{"ha":1042,"x_min":386,"x_max":653,"o":"m 386 806 q 424 883 386 848 q 519 918 463 918 q 612 887 571 918 q 653 806 653 856 q 615 729 653 763 q 519 694 576 694 q 427 725 468 694 q 386 806 386 755 m 522 886 q 422 806 422 886 q 518 725 422 725 q 618 806 618 725 q 522 886 618 886 z "},"":{"ha":386,"x_min":16,"x_max":313,"o":"m 16 -178 q 55 -98 16 -130 q 160 -33 94 -65 q 254 25 225 -1 l 268 0 q 209 -48 254 -14 q 140 -111 163 -83 q 117 -164 117 -138 q 137 -199 117 -185 q 180 -214 157 -214 q 286 -142 241 -214 l 313 -160 q 140 -275 249 -275 q 54 -248 93 -275 q 16 -178 16 -220 z "},"":{"ha":694,"x_min":115,"x_max":578,"o":"m 115 817 q 164 873 149 857 q 208 908 179 889 q 265 926 237 926 q 354 894 297 926 q 443 861 411 861 q 486 872 464 861 q 517 893 507 884 q 554 928 528 903 l 578 907 q 564 891 575 904 q 549 874 553 878 q 536 860 546 871 q 522 844 526 848 q 508 832 517 840 q 493 820 498 823 q 478 811 488 817 q 461 804 468 806 q 445 800 454 802 q 428 798 436 798 q 339 830 395 798 q 250 863 283 863 q 228 860 239 863 q 206 851 216 857 q 188 841 196 846 q 172 828 180 836 q 158 817 163 821 q 146 806 153 812 l 139 798 l 115 817 z "}}}
